<?xml version="1.0" encoding="utf-8"?>
<!-- Generator: Adobe Illustrator 27.9.0, SVG Export Plug-In . SVG Version: 6.00 Build 0)  -->
<svg version="1.1" id="Layer_1" xmlns="http://www.w3.org/2000/svg" xmlns:xlink="http://www.w3.org/1999/xlink" x="0px" y="0px"
	 viewBox="0 0 760 230" style="enable-background:new 0 0 760 230;" xml:space="preserve">
<style type="text/css">
	.st0{fill:#253B7A;}
</style>
<path class="st0" d="M174.9,114.5c-6.7-10.1-6.4-23.1-11.5-33.9c-9.8-14.1-24.5-25.7-38.9-33c-9.5-6.1-19.6-11.4-30.4-13.9
	c-1.8-0.5-8.4-1.3-12.5-1.6c-11,0.1-18.9,9.4-24.1,18.1c-7,13.6-10.2,28.8-17.6,42.4c-0.1,0.7-0.5,1.3-0.8,1.9
	c-6.4,12.7-12.4,25.5-20.8,37.4c-4,7.5-8.7,15.1-8.8,23.8c0.8,9.1,2.4,18.8,11,24.3c8,3.9,16,8,24.8,9.4c5-0.1,9.4,2.2,14.1,3.4
	c11.2,2.1,24.1,0.4,35.2-1.6c12.8-1.8,27.8,0.7,40.3-4c10.2-5,21-8.5,30.2-15.8c5.5-6,13.5-11.3,16.5-18.9
	C184.7,139.3,179.7,126.2,174.9,114.5 M164.3,140.9c-8.5,15.3-25.1,19.9-38.5,27.8c-14,7.1-29.9,9.3-44.6,14.7
	c-5.3,2.3-11.7,1-17.6,1.1c-6.4-0.3-12.1-3.2-17.3-7c-7.8-9.5-8-24.6-4.8-36.3c2.2-6.7,2.6-14,5.7-20.3
	c9.5-20.3,16.1-41.1,28.1-60.4c2.9-5.4,3.7-14,10.6-16.2c2.5-0.4,3.1-1.1,7.8-0.4c6.5,2.5,14.6,7.2,18.4,10.1
	c3.8,2.9,31,31,42.9,48.1c2.9,4.5,5.7,9.5,8.2,14.4c0.8,2.2,1.5,4.7,1.9,8.2C165.6,128.3,168.3,136.4,164.3,140.9 M144.3,113.4
	c-2-10.3-9.6-18.5-15.8-27c-8.7-12.2-22.1-19.2-34.1-26.5c-2.4-1.3-6.1-3.3-7.7-2.9c-1.7,0.3-2.1,2-2.7,2.9c-3.4,7.6-7.1,15-11,22.4
	c-4.2,11.2-7,23.1-10.6,34.4c-5.3,11.9-10.8,24.9-9.7,38.2c0.6,5.4,0.8,11.3,5.4,14.7c5.6,3.3,12.7,4.1,19.4,3.9
	c16.6-1.5,34.1-1.7,47.8-10.9c0.8-0.5,10.1-8.5,15.4-12.6c3.2-3,7.6-6.2,8.3-10.6C149.6,131,146.4,121.9,144.3,113.4 M130.1,141.2
	c-16.2,12-33.3,22.1-53.2,25.3c-3,0.1-6.1-0.8-8-3.7c-6-10.8,0.3-23.2,1.4-34.4c1-5.4,3.6-10,5.6-15l13.6-30.7
	c2.1-3.9,5-9.8,7.5-11.2c2.5-1.4,6.7,3.4,9.3,5.7l3.7,4.6c4.9,6.9,14.7,21.1,14.7,21.1c4,7.6,8.8,15,11,23.3
	C136.8,132,134.7,137.6,130.1,141.2 M256.1,142.1h-8.9c-1.9,0-2.6-0.9-3.1-2.2l-3.2-9.3h-19.7l-3.2,9.6c-0.3,1-0.9,1.9-2.4,1.9h-9.1
	c-0.9,0-1.3-0.6-1.3-1.3c0-0.3,0-0.6,0.2-0.9l19-51.2c0.5-1.2,1.2-2,2.7-2h8.2c1.6,0,2.5,0.7,2.9,1.7l19.4,50.8
	c0.1,0.5,0.2,0.9,0.2,1.2C257.8,141.5,257.3,142.1,256.1,142.1 M232.4,105.3c-0.6-1.7-1-3.3-1.4-4.6h-0.2c-0.4,1.4-0.9,3-1.4,4.7
	l-5,15.6h13.1L232.4,105.3z M296.6,142.1h-7.3c-1.7,0-2.3-0.9-2.3-2.4v-21.2c0-3.4-0.9-5.6-4.5-5.6c-2.7,0-5.9,1.2-8.1,3.1v23.8
	c0,1.5-0.6,2.3-2.2,2.3h-7.5c-1.4,0-2.2-0.7-2.2-2.2v-34.4c0-1.5,0.6-2.3,2.3-2.3h6.5c1.2,0,2.1,0.3,2.2,1.7l0.2,1.7
	c3.6-2.9,8-4.5,12.7-4.5c8.8,0,12.6,5.5,12.6,14.2v23.4C299,141.3,298.4,142.1,296.6,142.1 M323.5,159.6c-4.1,0-8.1-0.6-12.3-2.4
	c-1-0.4-1.4-0.9-1.4-1.8c0-0.5,0.1-0.9,0.2-1.4l1.3-4.5c0.3-1,0.6-1.6,1.2-1.6c0.6,0,1,0.1,1.5,0.3c3,1.1,6,1.8,8.8,1.8
	c7.3,0,8.3-3.7,8.3-8.6v-2.9c-2.2,1.9-6.4,3.6-9.6,3.6c-4.8,0-8.9-1.5-11.8-4.5c-3.4-3.3-5.1-8.5-5.1-14.4c0-10.8,6.2-21.1,18-21.1
	c1.9,0,3.7,0.4,5.4,1.2c1.3,0.6,3,1.8,3.8,3.1l0.2-1.8c0.1-1.1,0.7-1.6,2.1-1.6h6.8c1.7,0,2.2,0.7,2.2,2.2V139
	C343.1,152.4,337.3,159.6,323.5,159.6 M331.2,114.5c-1.5-1.4-3.9-2.6-6.2-2.6c-2.1,0-3.8,0.9-5,2.1c-2.2,2.2-2.8,5.8-2.8,8.7
	c0,2.9,0.6,6.1,2.7,8.1c1.3,1.3,3.2,1.8,4.8,1.8c2.5,0,5.2-1.5,6.5-2.9V114.5z M361.8,142.1h-7.7c-1.2,0-2.1-0.6-2.1-2.2V88.2
	c0-1.6,0.7-2.1,1.9-2.2l7.6-1h0.8c1.1,0,1.7,0.7,1.7,2v53C363.9,141.4,363.1,142.1,361.8,142.1 M390.1,143.2
	c-13.5,0-19.8-8.7-19.8-20.6c0-11.8,7.4-20.5,20.3-20.5c13.5,0,19.8,8.7,19.8,20.6C410.5,134.5,403.1,143.2,390.1,143.2
	 M390.6,111.6c-5.9,0-7.8,5.1-7.8,10.9c0,5.9,1.7,11.2,7.6,11.2c5.9,0,7.8-5.2,7.8-11.1C398.1,116.8,396.4,111.6,390.6,111.6
	 M464.3,142.1h-8.9c-1.9,0-2.6-0.9-3.1-2.2l-3.2-9.3h-19.7l-3.2,9.6c-0.3,1-0.9,1.9-2.4,1.9h-9.1c-0.9,0-1.3-0.6-1.3-1.3
	c0-0.3,0-0.6,0.2-0.9l19-51.2c0.5-1.2,1.2-2,2.7-2h8.2c1.6,0,2.5,0.7,2.9,1.7l19.4,50.8c0.2,0.5,0.3,0.9,0.3,1.2
	C466,141.5,465.4,142.1,464.3,142.1 M440.6,105.3c-0.6-1.7-1-3.3-1.4-4.6H439c-0.4,1.4-0.9,3-1.4,4.7l-5,15.6h13.1L440.6,105.3z
	 M527.8,142.1h-7.2c-1.7,0-2.5-0.6-2.5-2.3v-21.4c0-3.2-0.7-5.7-4.3-5.7c-2.8,0-6.1,1.5-8.2,3.4v23.8c0,1.7-0.7,2.3-2.3,2.3h-6.6
	c-1.7,0-2.5-0.6-2.5-2.3v-21.4c0-3.2-0.7-5.7-4.3-5.7c-2.6,0-5.3,1.3-7.6,3.4v23.8c0,1.7-0.7,2.3-2.3,2.3h-7.2
	c-1.7,0-2.5-0.6-2.5-2.3v-34.5c0-1.4,0.9-2.1,2.2-2.1h6.5c1.4,0,2.2,0.5,2.3,1.7l0.1,1.5c3.2-2.7,7.4-4.3,11.4-4.3
	c5.4,0,8.3,2.6,10,5.3c3.6-3.6,8.9-5.3,13.9-5.3c6.2,0,10.1,3.5,11.6,6.8c1.4,3.2,1.6,6.8,1.6,12.4v18.4
	C530.2,141.5,529.4,142.1,527.8,142.1 M571.2,125.8h-22.4c1,5,5.4,7.8,10.3,7.8c3.5,0,6.9-0.8,10.1-2.1c0.3-0.2,0.6-0.2,1-0.2
	c0.7,0,1.1,0.5,1.3,1.1c0.3,1.4,1.5,5,1.5,6.2c0,1.1-0.7,1.4-1.5,1.8c-4.2,1.9-9.8,2.7-14.4,2.7c-12.7,0-20.7-7.8-20.7-20.6
	c0-12.4,8.4-20.5,20.7-20.5c5.1,0,9.4,1.9,12.4,5.1c4,4.2,4.8,9.7,4.8,15.3v1.1C574,125.4,573.2,125.8,571.2,125.8 M556.2,111.3
	c-4,0-6.6,3.2-7.2,7h13.3C562.3,114.8,560.3,111.3,556.2,111.3 M605.1,104.4l-1.2,7.5c-0.1,0.9-0.6,1.3-1.3,1.3h-0.4
	c-0.6-0.2-1.4-0.3-2.1-0.3c-2.6,0-5.3,1.1-7.3,3.1v23.9c0,1.4-0.6,2.2-2.2,2.2H583c-1.4,0-2.2-0.7-2.2-2.2v-34.3
	c0-1.9,0.9-2.3,2.3-2.3h6.5c1.5,0,2.2,0.4,2.3,1.6l0.2,2.4c2.9-3.4,5.3-5.1,10-5.1c0.7,0,1.5,0.2,2.2,0.3c0.6,0.2,0.9,0.5,1,1.1v0.2
	C605.2,103.9,605.2,104.1,605.1,104.4 M616.7,98.7c-3,0-6.4-2.2-6.4-6c0-3.9,3.2-6.2,6.4-6.2c3.2,0,6.4,2.2,6.4,6.1
	C623.1,96.4,619.7,98.7,616.7,98.7 M620.5,142.1h-7.2c-1.7,0-2.5-0.6-2.5-2.3v-34.5c0-1.6,1-2.1,2.5-2.1h7.2c1.5,0,2.3,0.4,2.3,2.1
	v34.5C622.8,141.4,622.1,142.1,620.5,142.1 M661.5,140.8c-4.2,1.9-7.5,2.4-12.2,2.4c-12.1,0-19.6-7.3-19.6-19.9
	c0-12.9,7.7-21.1,20.4-21.1c3.8,0,7.4,0.6,11.1,2.2c0.7,0.3,1,0.6,1,1.4c0,0.3-0.1,0.6-0.1,0.9l-1.3,5.7c-0.2,0.8-0.6,1.1-1,1.1
	c-0.3,0-0.7-0.2-1.1-0.3c-2.2-0.9-4.5-1.5-7-1.5c-6.2,0-9.6,4.2-9.6,11c0,7.2,3.5,11.2,9,11.2c3.4,0,5-0.5,8-1.7
	c0.3-0.1,0.6-0.2,0.9-0.2c0.6,0,0.9,0.5,1.1,1c0.4,1.4,1.7,5.1,1.7,6.4C662.8,140.2,662.1,140.5,661.5,140.8 M705.1,142.1h-4.2
	c-4.7,0-6.6-1.4-7.7-3.7H693c-2.2,2.5-7.2,4.7-11.2,4.7c-11.5,0-16.8-9.1-16.8-19.7c0-14.1,8.8-21.3,17.6-21.3
	c4.5,0,8.1,2.1,9.7,4.5l0.2-1.8c0.1-0.9,0.8-1.6,1.8-1.6h7.2c1.1,0,1.9,0.7,1.9,1.9v27.5c0,0.8,0.3,1.3,1.2,1.3h0.6
	c1.1,0,1.7,0.4,1.7,1.6v4.6C707,141.5,706.2,142.1,705.1,142.1 M691.5,114.8c-1.4-1.3-4.1-2.7-6.4-2.7c-3.9,0-7.6,3.2-7.6,10.6
	c0,5,1.3,10.8,7.3,10.8c2.9,0,5.7-2.1,6.7-3.3V114.8z M747.7,142.1h-7.4c-1.7,0-2.3-0.9-2.3-2.4v-21.2c0-3.4-0.9-5.6-4.5-5.6
	c-2.6,0-5.9,1.2-8.2,3.1v23.8c0,1.5-0.6,2.3-2.2,2.3h-7.5c-1.4,0-2.3-0.7-2.3-2.2v-34.4c0-1.5,0.6-2.3,2.3-2.3h6.5
	c1.2,0,2.1,0.3,2.2,1.7l0.2,1.7c3.6-2.9,8-4.5,12.8-4.5c8.8,0,12.6,5.5,12.6,14.2v23.4C750,141.3,749.4,142.1,747.7,142.1"/>
</svg>
