<?xml version="1.0" encoding="utf-8"?>
<!-- Generator: Adobe Illustrator 27.9.0, SVG Export Plug-In . SVG Version: 6.00 Build 0)  -->
<svg version="1.1" id="Layer_1" xmlns="http://www.w3.org/2000/svg" xmlns:xlink="http://www.w3.org/1999/xlink" x="0px" y="0px"
	 viewBox="0 0 760 230" style="enable-background:new 0 0 760 230;" xml:space="preserve">
<style type="text/css">
	.st0{fill:none;}
	.st1{fill:#F14E2A;}
</style>
<path class="st0" d="M185.2,18.1V2.2c0-4.7,3.8-8.6,8.6-8.6h15.7c4.7,0,8.6,3.8,8.6,8.6v15.9c0,4.7-3.8,8.6-8.6,8.6h-15.9
	C189,26.7,185.2,22.7,185.2,18.1"/>
<path class="st0" d="M185.2-15v-15.7c0-4.7,3.8-8.6,8.6-8.6h15.7c4.7,0,8.6,3.8,8.6,8.6v15.9c0,4.7-3.8,8.6-8.6,8.6h-15.9
	C189-6.4,185.2-10.2,185.2-15"/>
<g id="g10" transform="matrix(1.3333333,0,0,-1.3333333,0,396.85333)">
	<g id="g12" transform="scale(0.1)">
		<path id="path14" class="st1" d="M3869.4,2857.3c-407.8,0-738.5-330.6-738.5-738.5c0-407.8,330.6-738.5,738.5-738.5
			c407.9,0,738.5,330.6,738.5,738.5C4607.8,2526.6,4277.2,2857.3,3869.4,2857.3z M3869.4,1519.3c-331.1,0-599.4,268.4-599.4,599.4
			c0,331.1,268.4,599.4,599.4,599.4c331.1,0,599.4-268.4,599.4-599.4C4468.8,1787.7,4200.4,1519.3,3869.4,1519.3"/>
		<path id="path16" class="st1" d="M3489,2117.5c0,214.4,169.3,381.7,385.8,381.7c137.5,0,248.3-67.7,318.1-172.4l-117-83.1
			c-43.1,68.7-113.9,114.9-201.1,114.9c-133.4,0-237-105.7-237-241.1c0-136.5,103.6-242.2,237-242.2c88.2,0,160.1,48.2,203.2,119
			l120-80c-69.8-108.8-182.6-179.6-323.2-179.6C3658.3,1734.7,3489,1902,3489,2117.5"/>
		<path id="path18" class="st1" d="M1148.6,2117.5c0,214.4,169.3,381.7,385.8,381.7c137.5,0,248.3-67.7,318.1-172.4l-117-83.1
			c-43.1,68.7-113.9,114.9-201.1,114.9c-133.4,0-237-105.7-237-241.1c0-136.5,103.6-242.2,237-242.2c88.2,0,160.1,48.2,203.2,119
			l120.1-80c-69.8-108.8-182.6-179.6-323.2-179.6C1317.9,1734.7,1148.6,1902,1148.6,2117.5"/>
		<path id="path20" class="st1" d="M2443.3,1963.6H2076c10.3-62.6,59.5-103.6,121.1-103.6c50.3,0,93.4,26.7,111.8,63.6l117-51.3
			c-43.1-83.1-127.2-137.5-228.8-137.5c-144.7,0-256.5,110.8-256.5,253.4c0,141.6,110.8,252.4,255.5,252.4s250.4-107.7,250.4-242.2
			C2446.4,1980,2443.3,1963.6,2443.3,1963.6L2443.3,1963.6z M2084.2,2052.8h221.6c-17.4,52.3-56.4,80-109.8,80
			C2144.7,2132.9,2102.6,2105.2,2084.2,2052.8"/>
		<path id="path22" class="st1" d="M2558,2509.4h133.4v-759.3H2558V2509.4"/>
		<path id="path24" class="st1" d="M2841.8,2509.4h133.4v-759.3h-133.4V2509.4"/>
		<path id="path26" class="st1" d="M1155.1,1444.3c0,34.1,29.3,60.6,66.7,60.6c23.8,0,42.9-10.8,55-27.4l-20.2-13.2
			c-7.4,10.9-19.7,18.3-34.8,18.3c-23,0-41-16.8-41-38.3c0-21.7,17.9-38.5,41-38.5c15.3,0,27.7,7.7,35.1,18.9l20.7-12.7
			c-12.1-17.3-31.6-28.5-55.9-28.5C1184.3,1383.5,1155.1,1410,1155.1,1444.3"/>
		<path id="path28" class="st1" d="M1406.1,1502.5v-116.5h-25.7v49.2h-58.5v-49.2h-25.7v116.5h25.7v-45h58.5v45H1406.1"/>
		<path id="path30" class="st1" d="M1507.8,1409.7h-49.3l-11.7-23.8h-27.3l64.7,122.7l64.7-122.7h-29.8L1507.8,1409.7z
			 M1498.4,1429.6l-14.9,31.1l-15.3-31.1H1498.4z"/>
		<path id="path32" class="st1" d="M1587.6,1454.4v-68.5h-25.4v122.7l81.2-74.5v68.3h25.2v-122.7L1587.6,1454.4"/>
		<path id="path34" class="st1" d="M1817.4,1443.5c0-33.7-26.2-60-63.3-60c-37.6,0-66.9,26.6-66.9,60.8c0,34.1,29.3,60.6,67.7,60.6
			c19.2,0,35.8-6.4,47.5-16.8l-16.8-16.6c-7.5,6.7-18.3,11.1-30.7,11.1c-24.1,0-42-16.8-42-38.3c0-21.5,17.9-38.5,41.1-38.5
			c18.4,0,31.6,9.8,36.7,23.8h-56.4v20.4h82.6C1817,1450,1817.4,1446.4,1817.4,1443.5"/>
		<path id="path36" class="st1" d="M1912.2,1407.6v-21.7H1836v116.5h70.9v-21.7h-45.2V1456h49.6v-20h-49.6v-28.4H1912.2"/>
		<path id="path38" class="st1" d="M2014.4,1440.4l-42.2,62.1h30.1l26.2-38.6l26.1,38.6h27.5l-42-62.1v-54.4h-25.7V1440.4"/>
		<path id="path40" class="st1" d="M2076.1,1444.3c0,34.1,29.3,60.6,66.7,60.6c37.6,0,66.9-26.6,66.9-60.6
			c0-34.2-29.3-60.8-66.9-60.8C2105.4,1383.5,2076.1,1410,2076.1,1444.3z M2183.9,1444.3c0,21.5-17.9,38.3-41.1,38.3
			c-23.1,0-41-16.8-41-38.3c0-21.7,17.9-38.5,41-38.5C2166,1405.8,2183.9,1422.6,2183.9,1444.3"/>
		<path id="path42" class="st1" d="M2227.2,1427.6v74.8h25.7v-74.2c0-13,7.8-21.2,20.7-21.2c13.1,0,20.9,8.2,20.9,21.2v74.2h25.7
			v-74.8c0-27.1-18.4-44.2-46.6-44.2C2245.6,1383.5,2227.2,1400.6,2227.2,1427.6"/>
		<path id="path44" class="st1" d="M2373.3,1432.5h-3.5v-46.6h-25.7v116.5h39.5c24.3,0,39.9-16,39.9-35c0-14.3-9-26.9-23.9-32.3
			l38.1-49.2h-30.3L2373.3,1432.5z M2369.8,1481.9V1450h9.8c11.2,0,18.8,6.8,18.8,16c0,9.1-7.6,16-18.8,16H2369.8"/>
		<path id="path46" class="st1" d="M2621.7,1379.7l-38.7,76.6l-38.5-76.6l-52.8,122.7h28.6l28.7-68.6l35.5,71.6l35.3-71.9l28.7,69
			h25.9L2621.7,1379.7"/>
		<path id="path48" class="st1" d="M2673,1444.3c0,34.1,29.3,60.6,66.7,60.6c37.6,0,66.8-26.6,66.8-60.6c0-34.2-29.3-60.8-66.8-60.8
			C2702.3,1383.5,2673,1410,2673,1444.3z M2780.8,1444.3c0,21.5-17.9,38.3-41.1,38.3c-23.1,0-41-16.8-41-38.3
			c0-21.7,17.9-38.5,41-38.5C2762.9,1405.8,2780.8,1422.6,2780.8,1444.3"/>
		<path id="path50" class="st1" d="M2854.4,1432.5h-3.6v-46.6h-25.7v116.5h39.5c24.3,0,39.9-16,39.9-35c0-14.3-9-26.9-23.9-32.3
			l38.1-49.2h-30.3L2854.4,1432.5z M2850.9,1481.9V1450h9.8c11.2,0,18.8,6.8,18.8,16c0,9.1-7.6,16-18.8,16H2850.9"/>
		<path id="path52" class="st1" d="M3007.4,1408.3v-22.3h-76.2v116.5h25.7v-94.2H3007.4"/>
		<path id="path54" class="st1" d="M3022.2,1502.5h35.5c41.1,0,62.1-25.1,62.1-58.2c0-33.3-20.9-58.4-62.1-58.4h-35.5V1502.5z
			 M3057.6,1407.6c25.2,0,36.4,15,36.4,36.7c0,21.5-11.2,36.5-36.4,36.5h-9.8v-73.2H3057.6"/>
	</g>
</g>
</svg>
