<?xml version="1.0" encoding="utf-8"?>
<!-- Generator: Adobe Illustrator 27.9.0, SVG Export Plug-In . SVG Version: 6.00 Build 0)  -->
<svg version="1.1" id="Layer_1" xmlns="http://www.w3.org/2000/svg" xmlns:xlink="http://www.w3.org/1999/xlink" x="0px" y="0px"
	 viewBox="0 0 760 230" style="enable-background:new 0 0 760 230;" xml:space="preserve">
<style type="text/css">
	.st0{fill:#FFFFFF;}
</style>
<path class="st0" d="M114,23.8c-0.3,0.3-24.7,26.7-36.6,63.9c-5.8,19.8-7.7,38.3-5.5,55c2.2,16.7,8.4,32.2,18.5,46.2
	c11.5,15.9,25.9,24,42.7,24c6.1,0,11.6-1,15.7-2c12.9-2.8,22.5-12.1,27.3-19.9c4.6-7.5,11.5-23.1,6-42.5
	c-5-17.6-21.2-32.1-29.9-39.8c-1.3-1.2-2.5-2.2-3.3-3c-1.1-1-2.2-2.1-3.3-3c-6-5.5-14.3-13-23-26.8c-12-25.7-5.2-49.8-5.1-50
	L114,23.8z"/>
<image style="overflow:visible;" width="1839" height="296" xlink:href="D3DB1106.png"  transform="matrix(0.3892 0 0 0.3892 27.5925 60.8856)">
</image>
</svg>
