<svg xmlns="http://www.w3.org/2000/svg" width="29.268" height="27.75" viewBox="0 0 29.268 27.75">
  <path id="Path_26" data-name="Path 26" d="M31.941-29.846a1.471,1.471,0,0,1,.434,1.084,1.471,1.471,0,0,1-.434,1.084l-13.8,13.8-4.264-4.264,13.8-13.8a1.471,1.471,0,0,1,1.084-.434,1.471,1.471,0,0,1,1.084.434ZM7.516-14.02a4.445,4.445,0,0,1,3.252-1.373A4.445,4.445,0,0,1,14.02-14.02a4.445,4.445,0,0,1,1.373,3.252,5.913,5.913,0,0,1-1.807,4.336A5.913,5.913,0,0,1,9.25-4.625,7.407,7.407,0,0,1,3.107-7.732a3.135,3.135,0,0,0,2.06-.831,2.751,2.751,0,0,0,.976-2.2A4.445,4.445,0,0,1,7.516-14.02Z" transform="translate(-3.107 32.375)" fill="#fff"/>
</svg>
