<?xml version="1.0" encoding="utf-8"?>
<!-- Generator: Adobe Illustrator 27.9.0, SVG Export Plug-In . SVG Version: 6.00 Build 0)  -->
<svg version="1.1" id="Layer_1" xmlns="http://www.w3.org/2000/svg" xmlns:xlink="http://www.w3.org/1999/xlink" x="0px" y="0px"
	 viewBox="0 0 760 230" style="enable-background:new 0 0 760 230;" xml:space="preserve">
<style type="text/css">
	.st0{fill:#406EB3;}
	.st1{fill:#632678;}
	.st2{fill:#982881;}
	.st3{fill:#BA2F7D;}
	.st4{fill:#26478D;}
	.st5{fill:none;}
</style>
<path class="st0" d="M209.6,67.1h-19.5c-5.9,0-10.6-4.7-10.6-10.6V37c0-5.7,4.7-10.6,10.6-10.6h19.5c5.7,0,10.6,4.7,10.6,10.6v19.5
	C220.1,62.4,215.5,67.1,209.6,67.1"/>
<path class="st1" d="M158.9,110.9h-21.8c-6.6,0-11.8-5.4-11.8-11.8v-22c0-6.4,5.4-11.8,11.8-11.8h22c6.6,0,11.8,5.4,11.8,11.8v22
	C170.9,105.7,165.6,110.9,158.9,110.9"/>
<path class="st2" d="M157,156.5h-13.4c-3.9,0-7.2-3.2-7.2-7.2V136c0-3.9,3.2-7.2,7.2-7.2H157c3.9,0,7.2,3.2,7.2,7.2v13.4
	C164.1,153.3,160.9,156.5,157,156.5"/>
<path class="st3" d="M192.9,198.9H177c-4.7,0-8.6-3.8-8.6-8.6v-15.9c0-4.7,3.8-8.6,8.6-8.6h15.9c4.7,0,8.6,3.8,8.6,8.6v15.9
	C201.5,195.2,197.8,198.9,192.9,198.9"/>
<path class="st3" d="M251.1,75.1h-10.9c-3.2,0-5.9-2.7-5.9-5.9V58.3c0-3.2,2.7-5.9,5.9-5.9h10.9c3.2,0,5.9,2.7,5.9,5.9v10.9
	C257.1,72.5,254.5,75.1,251.1,75.1"/>
<path class="st4" d="M491.9,82.5c3.6,0,6.3-2.9,6.3-6.3c0-3.6-2.9-6.3-6.3-6.3c-3.6,0-6.4,2.9-6.4,6.3S488.3,82.5,491.9,82.5z"/>
<path class="st4" d="M260.5,150.1c-0.9,1.4-2.5,2.1-4.3,2.1c-0.9,0-2.1-0.2-2.9-0.7c-1.4-0.9-2.3-2.7-2.3-4.5c0-0.9,0.2-1.8,0.7-2.5
	l14.7-23.1l-14.7-23.1c-0.5-0.7-0.7-1.8-0.7-2.5c0-1.8,0.9-3.6,2.5-4.5c0.9-0.5,1.8-0.7,2.7-0.7c1.8,0,3.4,0.7,4.5,2.1l12,19
	l12.2-19c0.9-1.4,2.7-2.1,4.5-2.1c0.9,0,1.8,0.2,2.7,0.7c1.6,0.9,2.5,2.7,2.5,4.5c0,0.9-0.2,1.8-0.7,2.5l-14.7,23.1l14.7,23.1
	c0.5,0.7,0.7,1.6,0.7,2.5c0,1.8-0.9,3.8-2.3,4.5c-0.9,0.5-2,0.7-2.9,0.7c-1.8,0-3.2-0.7-4.3-2.1l-12.2-18.8L260.5,150.1z"/>
<path class="st4" d="M313,97.7c5.5-5,13.1-8.1,21.1-8.1c17.7,0,31.7,14.1,31.7,31.7c0,17.4-14.1,31.5-31.7,31.5
	c-8.1,0-15.6-3-21.1-8.1v27c0,2.7-2.5,5-5.2,5c-2.5,0-5.2-2.3-5.2-5V95.2c0-2.7,2.5-5,5.2-5c2.9,0,5.2,2.3,5.2,5V97.7z M333.9,100.2
	c-11.8,0-21.1,9.3-21.1,21.1c0,11.8,9.3,21.1,21.1,21.1s21.1-9.3,21.1-21.1C355.2,109.5,345.9,100.2,333.9,100.2z"/>
<path class="st4" d="M455.4,115.6v31.7c0,2.7-2.5,5-5.2,5c-2.9,0-5.2-2.3-5.2-5V95.2c0-2.7,2.5-5,5.2-5c2.5,0,5,2.1,5.2,4.8
	c4.3-3.2,9.8-5.2,15.7-5.2c3.2,0,5.7,2.5,5.7,5.2c0,2.9-2.5,5.4-5.7,5.4C463.1,100.6,455.4,103.4,455.4,115.6z"/>
<path class="st4" d="M491.9,90.2c-2.9,0-5.2,2.3-5.2,5v52.2c0,2.7,2.5,5,5.2,5c2.5,0,5.2-2.3,5.2-5V95.2
	C497,92.5,494.5,90.2,491.9,90.2z"/>
<path class="st4" d="M558.4,95.2c0-2.7,2.5-5,5.2-5c2.5,0,5.2,2.3,5.2,5v52.2c0,2.7-2.5,5-5.2,5c-2.9,0-5.2-2.3-5.2-5v-2.5
	c-5.7,5-13.1,8.1-21.1,8.1c-17.7,0-31.7-14.1-31.7-31.7c0-17.4,14.1-31.5,31.7-31.5c8.1,0,15.4,3,21.1,8.1V95.2z M537.3,142.4
	c11.8,0,21.1-9.3,21.1-21.1c0-11.8-9.3-21.1-21.1-21.1c-11.8,0-21.1,9.3-21.1,21.1C516.2,133.1,525.5,142.4,537.3,142.4z"/>
<path class="st4" d="M621.9,116.3c0-8.8-7.5-16.3-16.3-16.3c-8.4,0-16.3,3.4-16.3,15.7v31.7c0,2.7-2.5,5-5.2,5c-2.9,0-5.2-2.3-5.2-5
	V95.2c0-2.7,2.5-5,5.2-5c2.5,0,5,2.1,5.2,4.8c4.5-3.4,10-5.2,16.1-5.2c14.1,0,26.8,11.1,26.8,25v32.6c0,2.7-2.5,5-5.2,5
	c-2.9,0-5.2-2.3-5.2-5V116.3z"/>
<path class="st4" d="M248,119.5c-0.2-16.1-14.5-29.7-31.5-29.7c-17.7,0-31.7,14.1-31.7,31.5c0,17.7,14.1,31.7,31.7,31.7
	c8.4,0,16.3-3.2,22-8.9c1.1-0.9,1.8-2.5,1.8-3.9c0-2.9-2.5-5.2-5.2-5.2c-1.6,0-3,0.9-4.1,2.1c-3.6,3.8-8.8,5.5-14.3,5.5
	c-10.6,0-19.1-7.2-20.9-17.2H243c0,0,0,0,0.2,0h0.2h0.2c0.2,0,0.4,0,0.5-0.2C246.2,124.3,248,122.2,248,119.5z M216.5,100.2
	c9.5,0,17.4,6.1,20,14.7h-40.3C199,106.3,206.9,100.2,216.5,100.2z"/>
<path class="st4" d="M436.2,119.5c-0.2-16.1-14.7-29.7-31.5-29.7c-17.7,0-31.7,14.1-31.7,31.5c0,17.7,14.1,31.7,31.7,31.7
	c8.4,0,16.3-3.2,22-8.9c1.1-0.9,1.8-2.5,1.8-3.9c0-2.9-2.5-5.2-5.2-5.2c-1.6,0-3,0.9-4.1,2.1c-3.6,3.8-8.8,5.5-14.3,5.5
	c-10.6,0-19.1-7.2-20.9-17.2h47.2c0,0,0,0,0.2,0h0.2c0.2,0,0.4,0,0.4,0h0.2C434.3,124.5,436.2,122.2,436.2,119.5z M404.7,100.2
	c9.5,0,17.4,6.1,20,14.7h-40.3C387.2,106.3,395.1,100.2,404.7,100.2z"/>
<path class="st4" d="M643.4,152.4c-0.5,0-0.9-0.4-0.9-0.9v-8.8h-2c-0.5,0-0.9-0.4-0.9-0.9c0-0.5,0.4-0.9,0.9-0.9h5.7
	c0.5,0,0.9,0.4,0.9,0.9c0,0.5-0.4,0.9-0.9,0.9h-2v8.8C644.3,152.1,643.9,152.4,643.4,152.4z"/>
<path class="st4" d="M653.6,152.4c-0.5,0-0.7-0.4-0.9-0.7l-2.5-7.2v7c0,0.5-0.4,0.9-0.9,0.9s-0.9-0.4-0.9-0.9v-9.3
	c0-0.7,0.5-1.3,1.3-1.3c0.5,0,1.1,0.4,1.3,0.9l2.5,7.3l2.5-7.3c0.2-0.5,0.7-0.9,1.3-0.9c0.7,0,1.3,0.5,1.3,1.3v9.3
	c0,0.5-0.4,0.9-0.9,0.9c-0.5,0-0.9-0.4-0.9-0.9v-7c-0.4,1.1-0.9,2.9-1.4,4.3c-0.9,2.9-1.1,2.9-1.1,2.9
	C654.3,152.3,653.9,152.4,653.6,152.4z"/>
<path class="st5" d="M116.7,106.1h-15.9c-4.7,0-8.6-3.8-8.6-8.6V81.6c0-4.7,3.8-8.6,8.6-8.6h15.9c4.7,0,8.6,3.8,8.6,8.6v15.9
	C125.3,102.3,121.4,106.1,116.7,106.1"/>
<path class="st5" d="M83.6,106.1H67.9c-4.7,0-8.6-3.8-8.6-8.6V81.6c0-4.7,3.8-8.6,8.6-8.6h15.9c4.7,0,8.6,3.8,8.6,8.6v15.9
	C92.2,102.3,88.4,106.1,83.6,106.1"/>
<path class="st5" d="M201.5,207.5v15.9c0,4.7-3.8,8.6-8.6,8.6H177c-4.7,0-8.6-3.8-8.6-8.6v-15.9c0-4.7,3.8-8.6,8.6-8.6h15.9
	C197.8,198.9,201.5,202.9,201.5,207.5"/>
<path class="st5" d="M201.5,240.4v15.9c0,4.7-3.8,8.6-8.6,8.6H177c-4.7,0-8.6-3.8-8.6-8.6v-15.9c0-4.7,3.8-8.6,8.6-8.6h15.9
	C197.8,232,201.5,235.8,201.5,240.4"/>
<path class="st5" d="M185.2,18.1V2.2c0-4.7,3.8-8.6,8.6-8.6h15.7c4.7,0,8.6,3.8,8.6,8.6v15.9c0,4.7-3.8,8.6-8.6,8.6h-15.9
	C189,26.7,185.2,22.7,185.2,18.1"/>
<path class="st5" d="M185.2-15v-15.7c0-4.7,3.8-8.6,8.6-8.6h15.7c4.7,0,8.6,3.8,8.6,8.6v15.9c0,4.7-3.8,8.6-8.6,8.6h-15.9
	C189-6.4,185.2-10.2,185.2-15"/>
<path class="st5" d="M689.7,149.7h-15.9c-4.7,0-8.6-3.8-8.6-8.6v-15.9c0-4.7,3.8-8.6,8.6-8.6h15.9c4.7,0,8.6,3.8,8.6,8.6v15.9
	C698.3,146,694.4,149.7,689.7,149.7"/>
<path class="st5" d="M656.8,149.7h-15.9c-4.7,0-8.6-3.8-8.6-8.6v-15.9c0-4.7,3.8-8.6,8.6-8.6h15.9c4.7,0,8.6,3.8,8.6,8.6v15.9
	C665.2,146,661.4,149.7,656.8,149.7"/>
</svg>
