<svg xmlns="http://www.w3.org/2000/svg" width="30.693" height="29.121" viewBox="0 0 30.693 29.121">
  <path id="Path_27" data-name="Path 27" d="M11.689-10.186a2.837,2.837,0,0,1,2.085.854,2.758,2.758,0,0,1,.854,2.017L2.939-2.939-7.314-5.811V-18.936h2.871l10.6,3.9A1.671,1.671,0,0,1,7.314-13.4,1.64,1.64,0,0,1,6.8-12.2a1.718,1.718,0,0,1-1.265.513h-4.1l-2.529-.957-.479,1.367,3.008,1.094Zm-5.879-20.1a5.067,5.067,0,0,1,3.965-1.777,4.611,4.611,0,0,1,3.384,1.4,4.611,4.611,0,0,1,1.4,3.384,6.7,6.7,0,0,1-1.436,3.589A23.444,23.444,0,0,1,10.254-20.2q-1.436,1.4-4.443,4.136Q2.8-18.8,1.367-20.2A23.444,23.444,0,0,1-1.5-23.687a6.7,6.7,0,0,1-1.436-3.589A4.556,4.556,0,0,1-1.5-30.659a4.724,4.724,0,0,1,3.418-1.4A5,5,0,0,1,5.811-30.283ZM-16.064-18.936h5.879v16h-5.879Z" transform="translate(16.064 32.061)" fill="#fff"/>
</svg>
