<svg xmlns="http://www.w3.org/2000/svg" width="32.449" height="30.85" viewBox="0 0 32.449 30.85">
  <path id="Path_29" data-name="Path 29" d="M21.1-26.279A4.568,4.568,0,0,0,24.07-29.25h5.18L24.375-17.9a4.26,4.26,0,0,0,.762,2.476,5.346,5.346,0,0,0,2.057,1.752,6.382,6.382,0,0,0,2.895.647,6.213,6.213,0,0,0,2.818-.647,5.346,5.346,0,0,0,2.057-1.752,4.26,4.26,0,0,0,.762-2.476L30.85-29.25h3.275v-3.275H24.07a4.576,4.576,0,0,0-1.714-2.285,4.734,4.734,0,0,0-2.856-.914,4.734,4.734,0,0,0-2.856.914,4.576,4.576,0,0,0-1.714,2.285H4.875v3.275H8.15L3.275-17.9a4.26,4.26,0,0,0,.762,2.476,5.346,5.346,0,0,0,2.057,1.752,6.213,6.213,0,0,0,2.818.647,6.382,6.382,0,0,0,2.895-.647,5.346,5.346,0,0,0,2.057-1.752,4.26,4.26,0,0,0,.762-2.476L9.75-29.25h5.18A4.568,4.568,0,0,0,17.9-26.279V-8.15H3.275v3.275H35.725V-8.15H21.1ZM33.135-17.9H27.041l3.047-7.084Zm-21.176,0H5.865l3.047-7.084ZM19.5-29.25a1.49,1.49,0,0,1-1.143-.5,1.59,1.59,0,0,1-.457-1.1,1.681,1.681,0,0,1,.457-1.181,1.49,1.49,0,0,1,1.143-.5,1.49,1.49,0,0,1,1.143.5A1.681,1.681,0,0,1,21.1-30.85a1.59,1.59,0,0,1-.457,1.1A1.49,1.49,0,0,1,19.5-29.25Z" transform="translate(-3.275 35.725)" fill="#fff"/>
</svg>
