<?xml version="1.0" encoding="utf-8"?>
<!-- Generator: Adobe Illustrator 28.0.0, SVG Export Plug-In . SVG Version: 6.00 Build 0)  -->
<svg version="1.1" id="Layer_1" xmlns="http://www.w3.org/2000/svg" xmlns:xlink="http://www.w3.org/1999/xlink" x="0px" y="0px"
	 viewBox="0 0 838 351.6" style="enable-background:new 0 0 838 351.6;" xml:space="preserve">
<style type="text/css">
	.st0{fill-rule:evenodd;clip-rule:evenodd;fill:#248AC4;}
	.st1{fill-rule:evenodd;clip-rule:evenodd;fill:#1887C5;}
	.st2{opacity:0.682;fill-rule:evenodd;clip-rule:evenodd;fill:#5F99BD;enable-background:new    ;}
	.st3{opacity:0.682;fill-rule:evenodd;clip-rule:evenodd;fill:#649BBC;enable-background:new    ;}
	.st4{opacity:0.251;fill-rule:evenodd;clip-rule:evenodd;fill:#75A0BA;enable-background:new    ;}
	.st5{opacity:0.396;fill-rule:evenodd;clip-rule:evenodd;fill:#6F9EBB;enable-background:new    ;}
	.st6{opacity:4.000000e-03;fill-rule:evenodd;clip-rule:evenodd;fill:#78A0B9;enable-background:new    ;}
	.st7{opacity:0.722;fill-rule:evenodd;clip-rule:evenodd;fill:#6E9EBB;enable-background:new    ;}
	.st8{opacity:7.500000e-02;fill-rule:evenodd;clip-rule:evenodd;fill:#75A0BA;enable-background:new    ;}
	.st9{opacity:0.831;fill-rule:evenodd;clip-rule:evenodd;fill:#679CBC;enable-background:new    ;}
	.st10{opacity:0.745;fill-rule:evenodd;clip-rule:evenodd;fill:#6F9EBB;enable-background:new    ;}
	.st11{opacity:0.408;fill-rule:evenodd;clip-rule:evenodd;fill:#6C9DBB;enable-background:new    ;}
	.st12{opacity:0.478;fill-rule:evenodd;clip-rule:evenodd;fill:#659BBC;enable-background:new    ;}
	.st13{opacity:2.000000e-02;fill-rule:evenodd;clip-rule:evenodd;fill:#78A1B9;enable-background:new    ;}
	.st14{opacity:0.725;fill-rule:evenodd;clip-rule:evenodd;fill:#6E9EBB;enable-background:new    ;}
	.st15{opacity:4.700000e-02;fill-rule:evenodd;clip-rule:evenodd;fill:#75A0BA;enable-background:new    ;}
	.st16{opacity:0.749;fill-rule:evenodd;clip-rule:evenodd;fill:#6C9DBA;enable-background:new    ;}
	.st17{opacity:0.482;fill-rule:evenodd;clip-rule:evenodd;fill:#699DBB;enable-background:new    ;}
	.st18{opacity:0.494;fill-rule:evenodd;clip-rule:evenodd;fill:#739FBA;enable-background:new    ;}
	.st19{opacity:7.100000e-02;fill-rule:evenodd;clip-rule:evenodd;fill:#729FBA;enable-background:new    ;}
	.st20{fill-rule:evenodd;clip-rule:evenodd;fill:#5395BF;}
	.st21{opacity:0.51;fill-rule:evenodd;clip-rule:evenodd;fill:#6C9DBB;enable-background:new    ;}
	.st22{opacity:0.271;fill-rule:evenodd;clip-rule:evenodd;fill:#6D9DBA;enable-background:new    ;}
	.st23{opacity:0.886;fill-rule:evenodd;clip-rule:evenodd;fill:#659ABC;enable-background:new    ;}
	.st24{opacity:0.141;fill-rule:evenodd;clip-rule:evenodd;fill:#739FBA;enable-background:new    ;}
	.st25{opacity:0.267;fill-rule:evenodd;clip-rule:evenodd;fill:#719FBA;enable-background:new    ;}
	.st26{opacity:0.365;fill-rule:evenodd;clip-rule:evenodd;fill:#709FBA;enable-background:new    ;}
	.st27{opacity:0.467;fill-rule:evenodd;clip-rule:evenodd;fill:#609ABD;enable-background:new    ;}
	.st28{opacity:0.125;fill-rule:evenodd;clip-rule:evenodd;fill:#699DBC;enable-background:new    ;}
	.st29{fill-rule:evenodd;clip-rule:evenodd;fill:#1987C5;}
	.st30{opacity:0.235;fill-rule:evenodd;clip-rule:evenodd;fill:#77A0B9;enable-background:new    ;}
	.st31{opacity:0.459;fill-rule:evenodd;clip-rule:evenodd;fill:#699CBB;enable-background:new    ;}
	.st32{opacity:0.196;fill-rule:evenodd;clip-rule:evenodd;fill:#7BA2B9;enable-background:new    ;}
	.st33{opacity:0.251;fill-rule:evenodd;clip-rule:evenodd;fill:#75A0B9;enable-background:new    ;}
	.st34{opacity:4.000000e-03;fill-rule:evenodd;clip-rule:evenodd;fill:#7EA3B8;enable-background:new    ;}
	.st35{opacity:0.651;fill-rule:evenodd;clip-rule:evenodd;fill:#629BBC;enable-background:new    ;}
	.st36{opacity:8.000000e-03;fill-rule:evenodd;clip-rule:evenodd;fill:#709EBA;enable-background:new    ;}
	.st37{opacity:0.761;fill-rule:evenodd;clip-rule:evenodd;fill:#609ABD;enable-background:new    ;}
	.st38{opacity:4.000000e-03;fill-rule:evenodd;clip-rule:evenodd;fill:#7DA2B8;enable-background:new    ;}
	.st39{opacity:1.600000e-02;fill-rule:evenodd;clip-rule:evenodd;fill:#79A1B9;enable-background:new    ;}
	.st40{opacity:0.71;fill-rule:evenodd;clip-rule:evenodd;fill:#5F9ABD;enable-background:new    ;}
	.st41{opacity:0.788;fill-rule:evenodd;clip-rule:evenodd;fill:#5F99BD;enable-background:new    ;}
	.st42{opacity:4.000000e-03;fill-rule:evenodd;clip-rule:evenodd;fill:#739FBA;enable-background:new    ;}
	.st43{opacity:0.533;fill-rule:evenodd;clip-rule:evenodd;fill:#5E99BD;enable-background:new    ;}
	.st44{opacity:0.698;fill-rule:evenodd;clip-rule:evenodd;fill:#6D9EBB;enable-background:new    ;}
	.st45{opacity:5.000000e-02;fill-rule:evenodd;clip-rule:evenodd;fill:#85A4B7;enable-background:new    ;}
	.st46{opacity:7.800000e-02;fill-rule:evenodd;clip-rule:evenodd;fill:#6E9EBB;enable-background:new    ;}
	.st47{opacity:0.349;fill-rule:evenodd;clip-rule:evenodd;fill:#6E9EBB;enable-background:new    ;}
	.st48{opacity:4.000000e-03;fill-rule:evenodd;clip-rule:evenodd;fill:#79A1B9;enable-background:new    ;}
	.st49{opacity:4.000000e-03;fill-rule:evenodd;clip-rule:evenodd;fill:#7CA2B8;enable-background:new    ;}
	.st50{opacity:0.725;fill-rule:evenodd;clip-rule:evenodd;fill:#619ABD;enable-background:new    ;}
	.st51{opacity:0.706;fill-rule:evenodd;clip-rule:evenodd;fill:#659BBC;enable-background:new    ;}
	.st52{opacity:0.137;fill-rule:evenodd;clip-rule:evenodd;fill:#6A9DBC;enable-background:new    ;}
	.st53{opacity:0.145;fill-rule:evenodd;clip-rule:evenodd;fill:#699CBC;enable-background:new    ;}
	.st54{opacity:0.31;fill-rule:evenodd;clip-rule:evenodd;fill:#669CBC;enable-background:new    ;}
	.st55{opacity:0.31;fill-rule:evenodd;clip-rule:evenodd;fill:#689DBB;enable-background:new    ;}
	.st56{opacity:0.976;fill-rule:evenodd;clip-rule:evenodd;fill:#288AC4;enable-background:new    ;}
	.st57{opacity:0.306;fill-rule:evenodd;clip-rule:evenodd;fill:#7AA1B9;enable-background:new    ;}
	.st58{opacity:4.000000e-03;fill-rule:evenodd;clip-rule:evenodd;fill:#719FBA;enable-background:new    ;}
	.st59{opacity:0.663;fill-rule:evenodd;clip-rule:evenodd;fill:#6E9EBB;enable-background:new    ;}
	.st60{opacity:0.349;fill-rule:evenodd;clip-rule:evenodd;fill:#709FBB;enable-background:new    ;}
	.st61{opacity:0.329;fill-rule:evenodd;clip-rule:evenodd;fill:#719FBA;enable-background:new    ;}
	.st62{opacity:5.100000e-02;fill-rule:evenodd;clip-rule:evenodd;fill:#749FBA;enable-background:new    ;}
	.st63{opacity:0.192;fill-rule:evenodd;clip-rule:evenodd;fill:#76A0BA;enable-background:new    ;}
	.st64{opacity:0.169;fill-rule:evenodd;clip-rule:evenodd;fill:#76A0B9;enable-background:new    ;}
	.st65{opacity:0.106;fill-rule:evenodd;clip-rule:evenodd;fill:#7AA1B8;enable-background:new    ;}
	.st66{opacity:9.800000e-02;fill-rule:evenodd;clip-rule:evenodd;fill:#7AA1B8;enable-background:new    ;}
	.st67{opacity:0.125;fill-rule:evenodd;clip-rule:evenodd;fill:#79A1B9;enable-background:new    ;}
	.st68{opacity:0.894;fill-rule:evenodd;clip-rule:evenodd;fill:#699CBB;enable-background:new    ;}
	.st69{opacity:4.000000e-03;fill-rule:evenodd;clip-rule:evenodd;fill:#749FBA;enable-background:new    ;}
	.st70{opacity:0.522;fill-rule:evenodd;clip-rule:evenodd;fill:#709EBA;enable-background:new    ;}
	.st71{opacity:0.435;fill-rule:evenodd;clip-rule:evenodd;fill:#6B9DBB;enable-background:new    ;}
	.st72{opacity:0.376;fill-rule:evenodd;clip-rule:evenodd;fill:#679BBC;enable-background:new    ;}
	.st73{opacity:0.553;fill-rule:evenodd;clip-rule:evenodd;fill:#5999BD;enable-background:new    ;}
	.st74{opacity:0.553;fill-rule:evenodd;clip-rule:evenodd;fill:#5B99BD;enable-background:new    ;}
	.st75{opacity:0.922;fill-rule:evenodd;clip-rule:evenodd;fill:#4A4A4C;enable-background:new    ;}
	.st76{opacity:0.92;fill-rule:evenodd;clip-rule:evenodd;fill:#4A4A4C;enable-background:new    ;}
	.st77{opacity:0.934;fill-rule:evenodd;clip-rule:evenodd;fill:#4A4A4C;enable-background:new    ;}
	.st78{opacity:0.883;fill-rule:evenodd;clip-rule:evenodd;fill:#4A4A4C;enable-background:new    ;}
	.st79{opacity:0.893;fill-rule:evenodd;clip-rule:evenodd;fill:#4A4A4C;enable-background:new    ;}
	.st80{opacity:0.909;fill-rule:evenodd;clip-rule:evenodd;fill:#4A4A4C;enable-background:new    ;}
	.st81{opacity:0.905;fill-rule:evenodd;clip-rule:evenodd;fill:#4A4A4C;enable-background:new    ;}
	.st82{opacity:0.879;fill-rule:evenodd;clip-rule:evenodd;fill:#4A4A4C;enable-background:new    ;}
	.st83{opacity:0.91;fill-rule:evenodd;clip-rule:evenodd;fill:#4A4A4C;enable-background:new    ;}
	.st84{opacity:0.881;fill-rule:evenodd;clip-rule:evenodd;fill:#4A4A4C;enable-background:new    ;}
	.st85{opacity:0.907;fill-rule:evenodd;clip-rule:evenodd;fill:#4A4A4C;enable-background:new    ;}
	.st86{opacity:0.856;fill-rule:evenodd;clip-rule:evenodd;fill:#4A4A4C;enable-background:new    ;}
</style>
<g>
	<path class="st0" d="M79.3,33.1c40.1,0,80.1,0,120.2,0c0,0.2,0,0.4,0,0.7c-40.1-0.4-79.9,0-119.5,1.3
		C79.4,34.6,79.2,33.9,79.3,33.1z"/>
</g>
<g>
	<path class="st0" d="M634.1,33.7c0-0.2,0-0.4,0-0.7c40.1,0,80.1,0,120.2,0c0.2,0.9-0.1,1.5-0.7,2C714,33.7,674.1,33.3,634.1,33.7z"
		/>
</g>
<g>
	<path class="st1" d="M199.5,33.7c4.4,0,8.8,0.2,13.2,0.7c8.3,1.3,16.5,3.3,24.4,5.9c5.8,3,11.5,6.2,17.2,9.6
		c3.3,2.4,6.6,4.8,9.9,7.3c18.8,18.3,37.5,36.7,56.1,55.1c13.3,14.3,26.9,28.2,40.9,41.9c-16.3,0.3-32.6,0.4-48.9,0.3
		c-2.9-2.4-5.5-5.1-7.9-7.9c-3.1-3.8-6.6-7.1-10.6-9.9c-16.8-17.2-33.7-34.2-50.9-50.9c-0.9-1.6-2.3-2.7-4-3.3
		c-0.5-1.2-1.4-1.8-2.6-2c-0.3-0.9-1-1.4-2-1.3c-1.1-0.1-2-0.5-2.6-1.3c-1.3-2.3-3.2-3.4-5.9-3.3c-3.3-2.3-7-3.7-11.2-4
		c-0.8-1-1.9-1.6-3.3-1.7c-2-0.3-4-0.4-5.9-0.3c-30.1-0.5-60.3-0.9-90.5-1c-1.5-1.8-3.3-3.3-5.3-4.3c-2.7-3.3-5.8-6.2-9.2-8.6
		c-2.9-3.6-6.2-6.6-9.9-9.2c-2.7-3.3-5.8-6.2-9.2-8.6c-0.4-0.7-0.9-1.3-1.3-2C119.6,33.7,159.4,33.3,199.5,33.7z"/>
</g>
<g>
	<path class="st2" d="M199.5,33.7c0-0.2,0-0.4,0-0.7c4,0,7.9,0,11.9,0c0.2,0.6,0.7,0.8,1.3,0.7c0,0.2,0,0.4,0,0.7
		C208.3,34,203.9,33.7,199.5,33.7z"/>
</g>
<g>
	<path class="st3" d="M622.2,33.1c4,0,7.9,0,11.9,0c0,0.2,0,0.4,0,0.7c-6.6-0.1-13.2,0.4-19.8,1.3C616.9,34.3,619.5,33.6,622.2,33.1
		z"/>
</g>
<g>
	<path class="st1" d="M634.1,33.7c40.1-0.4,79.9,0,119.5,1.3c-0.4,0.7-0.9,1.3-1.3,2c-3.5,2.4-6.6,5.2-9.2,8.6
		c0,0.4-0.2,0.7-0.7,0.7c-3.5,2.4-6.6,5.2-9.2,8.6c-3.5,2.4-6.6,5.2-9.2,8.6c0,0.4-0.2,0.7-0.7,0.7c-1.9,0.8-3.5,2.2-4.6,4
		c-30.4-0.1-60.8,0-91.1,0.3c-4.2,0.6-8.4,1.5-12.5,2.6c-2.7,0.8-5.1,2-7.3,3.6c-6.8,2.2-12.5,5.9-17.2,11.2c-2,0.7-3.3,2-4,4
		c-15.8,15.4-31.5,31-46.9,46.9c-3.1,3.5-6.4,6.8-9.9,9.9c-2.8,2.6-5.7,5.2-8.6,7.9c-16.3,0.1-32.6,0-48.9-0.3
		c7.2-7.1,14.2-14.2,21.1-21.5c7-6.6,13.9-13.4,20.5-20.5c11.7-11.9,23.3-23.8,35-35.7c10-9.8,20.3-19,31-27.7
		c0.2-0.6,0.7-0.8,1.3-0.7c1.6-0.1,2.7-0.7,3.3-2c2.1-0.2,3.6-1,4.6-2.6c7.2-2.8,14.5-5.5,21.8-7.9c0.9-0.6,2-0.8,3.3-0.7
		C620.8,34.1,627.4,33.7,634.1,33.7z"/>
</g>
<g>
	<path class="st4" d="M78.5,33.1c0.3,0,0.5,0,0.8,0c-0.2,1,0.1,1.8,0.8,2.4c0.5,0.8,1.1,1.6,1.6,2.4c-1.3-0.2-2.3-0.7-3.2-1.6
		C78.5,35.2,78.5,34.1,78.5,33.1z"/>
</g>
<g>
	<path class="st5" d="M212.7,34.4c0-0.2,0-0.4,0-0.7c8.6,0.9,16.7,3.1,24.4,6.6C229.2,37.7,221,35.7,212.7,34.4z"/>
</g>
<g>
	<path class="st6" d="M1022.5-0.5c0.3,0,0.7,0,1,0c0,1.3,0,2.7,0,4c-1.1,1.1-2.4,1.8-4,2c0.7-1,1.3-2,2-3
		C1022.4,1.8,1022.7,0.8,1022.5-0.5z"/>
</g>
<g>
	<path class="st7" d="M81.7,37.9c4.3,2.9,8,6.4,11.3,10.5C88.8,45.5,85,42,81.7,37.9z"/>
</g>
<g>
	<path class="st8" d="M1019.5,5.5c-4.1,5.1-8.7,9.4-14,13C1009.6,13.4,1014.2,9.1,1019.5,5.5z"/>
</g>
<g>
	<path class="st9" d="M610.9,35.7c-7.3,2.4-14.6,5.1-21.8,7.9C595.9,39.7,603.2,37.1,610.9,35.7z"/>
</g>
<g>
	<path class="st10" d="M93,48.4c4.5,3.2,8.6,6.9,12.1,11.3C100.6,56.5,96.6,52.8,93,48.4z"/>
</g>
<g>
	<path class="st11" d="M589.2,43.6c-1,1.6-2.6,2.5-4.6,2.6C585.7,44.9,587.3,44,589.2,43.6z"/>
</g>
<g>
	<path class="st12" d="M584.5,46.3c-0.7,1.3-1.8,1.9-3.3,2C582,47.1,583.1,46.4,584.5,46.3z"/>
</g>
<g>
	<path class="st13" d="M742.4,46.3c-2.7,3.3-5.8,6.2-9.2,8.6C735.8,51.5,738.9,48.7,742.4,46.3z"/>
</g>
<g>
	<path class="st14" d="M105.1,59.7c4.3,2.9,8,6.4,11.3,10.5C112.2,67.3,108.4,63.8,105.1,59.7z"/>
</g>
<g>
	<path class="st15" d="M733.1,54.9c-2.7,3.3-5.8,6.2-9.2,8.6C726.6,60.1,729.6,57.2,733.1,54.9z"/>
</g>
<g>
	<path class="st16" d="M109.7,63.4c2,1,3.8,2.5,5.3,4.3c30.2,0.1,60.3,0.5,90.5,1c0,0.2,0,0.4,0,0.7c-30.2,0.1-60.3,0-90.5-0.3
		C113.1,67.3,111.3,65.4,109.7,63.4z"/>
</g>
<g>
	<path class="st17" d="M579.9,48.9c-10.7,8.7-21.1,18-31,27.7c0-0.2,0-0.4,0-0.7c6.3-6.8,12.9-13.3,19.8-19.5
		C572.2,53.6,575.9,51,579.9,48.9z"/>
</g>
<g>
	<path class="st18" d="M237.2,40.3c10.1,3.9,19.4,9.3,27.7,16.2c19.1,18.1,37.6,36.7,55.5,55.8c-18.6-18.5-37.3-36.9-56.1-55.1
		c-3.3-2.4-6.6-4.8-9.9-7.3C248.6,46.5,242.9,43.3,237.2,40.3z"/>
</g>
<g>
	<path class="st19" d="M723.2,64.1c-1.3,1.8-2.9,3.3-4.6,4.6c0-0.2,0-0.4,0-0.7C719.7,66.3,721.3,64.9,723.2,64.1z"/>
</g>
<g>
	<path class="st20" d="M205.5,69.4c0-0.2,0-0.4,0-0.7c2-0.1,4,0,5.9,0.3c1.4,0.1,2.5,0.6,3.3,1.7C211.6,70.4,208.5,70,205.5,69.4z"
		/>
</g>
<g>
	<path class="st21" d="M214.7,70.7c4.2,0.3,7.9,1.6,11.2,4C222.1,73.3,218.4,72,214.7,70.7z"/>
</g>
<g>
	<path class="st22" d="M718.6,68.1c0,0.2,0,0.4,0,0.7c-30.7,0.5-61.5,0.9-92.5,1c-6.3,1-12.5,2.7-18.5,5c2.1-1.6,4.5-2.8,7.3-3.6
		c4.1-1.1,8.3-2,12.5-2.6C657.8,68.1,688.2,68,718.6,68.1z"/>
</g>
<g>
	<path class="st23" d="M225.9,74.7c2.7-0.1,4.7,1,5.9,3.3C229.8,77,227.8,75.9,225.9,74.7z"/>
</g>
<g>
	<path class="st24" d="M607.6,74.7c-6.1,3.2-11.8,7-17.2,11.2C595.1,80.6,600.9,76.8,607.6,74.7z"/>
</g>
<g>
	<path class="st25" d="M234.5,79.3c1,0,1.7,0.4,2,1.3C235.5,80.7,234.8,80.2,234.5,79.3z"/>
</g>
<g>
	<path class="st26" d="M236.5,80.6c1.3,0.2,2.1,0.8,2.6,2C237.9,82.4,237,81.8,236.5,80.6z"/>
</g>
<g>
	<path class="st4" d="M239.1,82.6c1.7,0.6,3,1.7,4,3.3C241.4,85.3,240.1,84.2,239.1,82.6z"/>
</g>
<g>
	<path class="st27" d="M186.3,93.8c0,0.2,0,0.4,0,0.7c-1.8-1.5-3.6-3.2-5.3-5c-16.3-0.4-32.6-0.4-48.9,0c2.8,2.7,5.4,5.4,7.9,8.3
		c-0.4,0-0.9,0-1.3,0c-2.6-2.8-5.3-5.7-7.9-8.6c16.9-0.8,33.9-0.9,50.9-0.3C183.4,90.4,184.9,92.1,186.3,93.8z"/>
</g>
<g>
	<path class="st28" d="M590.5,85.9c-1.1,1.5-2.4,2.9-4,4C587.2,87.9,588.5,86.6,590.5,85.9z"/>
</g>
<g>
	<path class="st1" d="M186.3,94.5c15.9,16.5,32.2,32.6,48.9,48.2c-0.1,0.5,0,0.9,0.3,1.3c1.5,1,2.9,2.1,4.3,3.3
		c11.5,15.7,26.9,24.9,46.2,27.7c30.7,0.6,61.5,0.9,92.5,1c3,3.4,6.3,6.3,9.9,8.9c6,6,12.1,11.7,18.5,17.2c2.7,2.7,5.1,5.5,7.3,8.6
		c-42.9,0.2-85.9,0-128.8-0.7c-3-0.6-6.1-0.8-9.2-0.7c-1.3,0.2-2.4,0-3.3-0.7c-1.6-0.8-3.3-1.3-5.3-1.3c-5.8-2.5-11.8-4.7-17.8-6.6
		c-0.5-1.1-1.4-1.5-2.6-1.3c-0.3-0.9-1-1.4-2-1.3c-1.1-0.1-2-0.5-2.6-1.3c-0.3-0.9-1-1.4-2-1.3c-0.3-0.9-1-1.4-2-1.3
		c-0.3-0.9-1-1.4-2-1.3c-0.5-1.2-1.4-1.8-2.6-2c-0.5-1.2-1.4-1.8-2.6-2c-0.9-1.6-2.3-2.7-4-3.3c-1.6-2.2-3.6-4-5.9-5.3
		c-2.4-3.7-5.5-6.8-9.2-9.2c-1.8-2.2-3.8-4.2-5.9-5.9C188,146,169.6,127.3,150.6,109c-3.5-3.7-7-7.5-10.6-11.2
		c-2.5-2.8-5.1-5.6-7.9-8.3c16.3-0.4,32.6-0.4,48.9,0C182.7,91.3,184.5,93,186.3,94.5z"/>
</g>
<g>
	<path class="st29" d="M696.8,95.1c-0.4,0.9-1.1,1.5-2,2c-4.2,3.7-8.1,7.7-11.9,11.9c-0.7,1.1-1.5,2-2.6,2.6
		c-11.2,10.8-22.2,21.8-33,33c-7.1,6.4-13.7,13.2-19.8,20.5c0,0.4-0.2,0.7-0.7,0.7c-2,1.6-3.8,3.3-5.3,5.3c-1.3,0-2,0.7-2,2
		c-1.3,0-2,0.7-2,2c-1.3,1.8-2.9,3.3-4.6,4.6c-6.1,5.3-12.4,10.2-19.2,14.9c-6.8,4.2-13.9,7.8-21.1,10.9c-0.5,0.6-1.1,0.8-2,0.7
		c-5.5,1.2-11,2.3-16.5,3.3c-5.1,0.3-10.1,0.6-15.2,1c-40,0.5-79.8,0.4-119.5-0.3c10.8-11,22-21.6,33.7-31.7c1.1-0.1,2-0.7,2.6-1.7
		c27.4-0.1,54.7-0.4,81.9-1c5,0.1,9.9-0.6,14.5-2c1.9-0.7,3.9-1.2,5.9-1.3c3.3-0.2,6.1-1.3,8.6-3.3c1.1-1,2.4-1.7,4-2
		c6.9-3.4,12.8-8,17.8-13.9c21.4-21.1,42.8-42.3,64.1-63.7c16.3-0.4,32.6-0.4,48.9,0C699.5,91.1,697.9,93,696.8,95.1z"/>
</g>
<g>
	<path class="st30" d="M243.1,85.9c17.1,16.7,34.1,33.6,50.9,50.9C276.4,120.5,259.4,103.5,243.1,85.9z"/>
</g>
<g>
	<path class="st31" d="M186.3,93.8c16.5,16.1,32.8,32.4,48.9,48.9c-16.7-15.6-33-31.7-48.9-48.2C186.3,94.3,186.3,94,186.3,93.8z"/>
</g>
<g>
	<path class="st32" d="M138.8,97.8c0.4,0,0.9,0,1.3,0c3.5,3.7,7,7.5,10.6,11.2C146.3,105.8,142.3,102,138.8,97.8z"/>
</g>
<g>
	<path class="st33" d="M548.9,76c0,0.2,0,0.4,0,0.7c-11.7,11.9-23.3,23.8-35,35.7c-0.2,0-0.4,0-0.7,0
		C524.6,99.8,536.5,87.7,548.9,76z"/>
</g>
<g>
	<path class="st34" d="M694.8,97.1c-3.3,4.6-7.3,8.6-11.9,11.9C686.7,104.8,690.6,100.9,694.8,97.1z"/>
</g>
<g>
	<path class="st35" d="M696.8,95.1c1.1-2.1,2.7-4,4.6-5.6c-16.3-0.4-32.6-0.4-48.9,0c-21.3,21.4-42.7,42.7-64.1,63.7
		c0-0.2,0-0.4,0-0.7c21-21.3,42.1-42.5,63.4-63.7c17-0.6,33.9-0.4,50.9,0.3C701,91.4,699,93.4,696.8,95.1z"/>
</g>
<g>
	<path class="st36" d="M150.6,109c18.9,18.3,37.4,37,55.5,56.1C187.2,146.9,168.7,128.1,150.6,109z"/>
</g>
<g>
	<path class="st37" d="M320.4,112.3c14.1,13.6,28,27.5,41.6,41.6c-8,0.9-16.3,1.3-24.8,1.3c-8.4,0-16.6-0.2-24.8-0.7
		c16.3,0.1,32.6,0,48.9-0.3C347.3,140.5,333.6,126.6,320.4,112.3z"/>
</g>
<g>
	<path class="st38" d="M586.5,89.9c-14.8,15.8-30,31.3-45.6,46.6c-0.4,0.3-0.8,0.4-1.3,0.3C555,120.9,570.7,105.3,586.5,89.9z"/>
</g>
<g>
	<path class="st39" d="M680.3,111.7c-10.5,11.6-21.5,22.9-33,33.7c0-0.2,0-0.4,0-0.7C658.1,133.4,669.1,122.4,680.3,111.7z"/>
</g>
<g>
	<path class="st40" d="M513.2,112.3c0.2,0,0.4,0,0.7,0c-6.6,7-13.4,13.9-20.5,20.5c0-0.2,0-0.4,0-0.7
		C499.8,125.3,506.4,118.7,513.2,112.3z"/>
</g>
<g>
	<path class="st41" d="M294,136.8c3.9,2.8,7.4,6.1,10.6,9.9c-0.2,0-0.4,0-0.7,0C300.3,143.6,297,140.3,294,136.8z"/>
</g>
<g>
	<path class="st42" d="M235.2,142.7c1,0.9,2.1,1.7,3.3,2.3c0.9,0.5,1.3,1.3,1.3,2.3c-1.4-1.2-2.8-2.3-4.3-3.3
		C235.2,143.6,235.1,143.2,235.2,142.7z"/>
</g>
<g>
	<path class="st43" d="M493.4,132.1c0,0.2,0,0.4,0,0.7c-6.9,7.2-14,14.4-21.1,21.5c16.3,0.3,32.6,0.4,48.9,0.3
		c-8.1,0.4-16.4,0.7-24.8,0.7c-8.5,0-16.7-0.4-24.8-1.3C478.6,146.4,485.9,139.2,493.4,132.1z"/>
</g>
<g>
	<path class="st44" d="M239.8,147.3c4.3,3.9,8.5,8,12.5,12.2c11.2,9,24,14.2,38.3,15.5c-1.5,0-3.1,0-4.6,0
		C266.7,172.2,251.3,163,239.8,147.3z"/>
</g>
<g>
	<path class="st45" d="M303.9,146.7c0.2,0,0.4,0,0.7,0c2.4,2.8,5,5.5,7.9,7.9c8.1,0.4,16.4,0.7,24.8,0.7c8.5,0,16.7-0.4,24.8-1.3
		c0.6,0.5,0.8,1.1,0.7,2c-17,0.1-33.9,0-50.9-0.3C308.7,152.9,306.1,149.9,303.9,146.7z"/>
</g>
<g>
	<path class="st45" d="M529.7,146.7c-2.2,3.2-4.9,6.2-7.9,8.9c-16.9,0.3-33.9,0.4-50.9,0.3c-0.2-0.9,0.1-1.5,0.7-2
		c8,0.9,16.3,1.3,24.8,1.3c8.4,0,16.6-0.2,24.8-0.7C524,151.9,526.9,149.2,529.7,146.7z"/>
</g>
<g>
	<path class="st46" d="M647.3,144.7c0,0.2,0,0.4,0,0.7c-6.4,6.8-13,13.4-19.8,19.8C633.6,157.9,640.2,151.1,647.3,144.7z"/>
</g>
<g>
	<path class="st47" d="M588.5,152.6c0,0.2,0,0.4,0,0.7c-5,5.9-10.9,10.5-17.8,13.9C577,162.8,582.9,158,588.5,152.6z"/>
</g>
<g>
	<path class="st48" d="M206.1,165.1c2.2,1.7,4.2,3.7,5.9,5.9C209.4,169.8,207.5,167.8,206.1,165.1z"/>
</g>
<g>
	<path class="st49" d="M626.8,165.8c-1.1,2.4-2.9,4.2-5.3,5.3C623,169.1,624.8,167.4,626.8,165.8z"/>
</g>
<g>
	<path class="st50" d="M212.1,171.1c3.7,2.4,6.8,5.5,9.2,9.2C218,177.5,214.9,174.4,212.1,171.1z"/>
</g>
<g>
	<path class="st51" d="M566.7,169.1c-2.4,2-5.3,3.1-8.6,3.3C560.9,171.2,563.7,170.1,566.7,169.1z"/>
</g>
<g>
	<path class="st52" d="M621.5,171.1c-0.4,0.9-1.1,1.5-2,2C619.5,171.8,620.2,171.1,621.5,171.1z"/>
</g>
<g>
	<path class="st53" d="M619.5,173.1c-0.4,0.9-1.1,1.5-2,2C617.6,173.7,618.2,173.1,619.5,173.1z"/>
</g>
<g>
	<path class="st54" d="M286,175.1c1.5,0,3.1,0,4.6,0c29.5-0.1,59,0,88.5,0.3c3.2,3.1,6.3,6.3,9.2,9.6c-3.6-2.6-6.9-5.5-9.9-8.9
		C347.6,175.9,316.7,175.6,286,175.1z"/>
</g>
<g>
	<path class="st55" d="M552.2,173.7c-4.6,1.4-9.5,2.1-14.5,2c-27.5-0.1-55,0-82.6,0.3c-0.8,0.7-1.5,1.5-2,2.3
		c-11.6,10.1-22.9,20.7-33.7,31.7c-0.6,0.2-0.8,0.7-0.7,1.3c-0.7-0.5-0.8-1.2-0.3-2c11.9-11.4,23.9-22.8,36-34
		c29.5-0.2,59-0.4,88.5-0.7C546,174.4,549.1,174,552.2,173.7z"/>
</g>
<g>
	<path class="st56" d="M537.6,175.7c-27.2,0.6-54.5,0.9-81.9,1c-0.6,1-1.5,1.5-2.6,1.7c0.5-0.9,1.2-1.6,2-2.3
		C482.6,175.7,510.1,175.6,537.6,175.7z"/>
</g>
<g>
	<path class="st57" d="M221.3,180.3c2.4,1.3,4.4,3,5.9,5.3C224.9,184.3,222.9,182.6,221.3,180.3z"/>
</g>
<g>
	<path class="st58" d="M388.4,185c6.8,5,12.9,10.7,18.5,17.2C400.5,196.6,394.4,190.9,388.4,185z"/>
</g>
<g>
	<path class="st59" d="M227.2,185.6c1.7,0.6,3,1.7,4,3.3C229.5,188.3,228.2,187.2,227.2,185.6z"/>
</g>
<g>
	<path class="st60" d="M231.2,188.9c1.3,0.2,2.1,0.8,2.6,2C232.6,190.7,231.7,190.1,231.2,188.9z"/>
</g>
<g>
	<path class="st61" d="M233.9,190.9c1.3,0.2,2.1,0.8,2.6,2C235.2,192.7,234.4,192.1,233.9,190.9z"/>
</g>
<g>
	<path class="st62" d="M612.9,179.7c-11.2,12-24.6,20.6-40.3,25.8c7.3-3.1,14.3-6.7,21.1-10.9C600.5,189.9,606.9,184.9,612.9,179.7z
		"/>
</g>
<g>
	<path class="st63" d="M236.5,192.9c1,0,1.7,0.4,2,1.3C237.5,194.3,236.8,193.8,236.5,192.9z"/>
</g>
<g>
	<path class="st64" d="M238.5,194.2c1,0,1.7,0.4,2,1.3C239.4,195.6,238.8,195.1,238.5,194.2z"/>
</g>
<g>
	<path class="st65" d="M240.5,195.5c1,0,1.7,0.4,2,1.3C241.4,196.9,240.8,196.5,240.5,195.5z"/>
</g>
<g>
	<path class="st66" d="M245.1,198.2c1,0,1.7,0.4,2,1.3C246.1,199.5,245.4,199.1,245.1,198.2z"/>
</g>
<g>
	<path class="st67" d="M247.1,199.5c1.2-0.2,2.1,0.3,2.6,1.3C248.6,200.7,247.7,200.3,247.1,199.5z"/>
</g>
<g>
	<path class="st68" d="M249.7,200.8c6.1,2,12,4.2,17.8,6.6C261.2,206.2,255.2,204,249.7,200.8z"/>
</g>
<g>
	<path class="st69" d="M406.9,202.1c3.4,2.2,6.3,4.9,8.6,8.3c-0.2,0.7-0.7,1-1.3,1c0-0.2,0-0.4,0-0.7
		C412,207.6,409.5,204.8,406.9,202.1z"/>
</g>
<g>
	<path class="st70" d="M267.5,207.4c1.9,0,3.7,0.5,5.3,1.3C270.8,208.9,269.1,208.4,267.5,207.4z"/>
</g>
<g>
	<path class="st71" d="M570.7,206.1c-5.2,2.1-10.7,3.5-16.5,4c0-0.2,0-0.4,0-0.7C559.7,208.4,565.2,207.3,570.7,206.1z"/>
</g>
<g>
	<path class="st72" d="M276.1,209.4c3.1-0.2,6.2,0,9.2,0.7c0,0.2,0,0.4,0,0.7C282.1,210.8,279,210.4,276.1,209.4z"/>
</g>
<g>
	<path class="st73" d="M285.4,210.7c0-0.2,0-0.4,0-0.7c42.9,0.6,85.8,0.8,128.8,0.7c0,0.2,0,0.4,0,0.7
		C371.2,211.6,328.3,211.4,285.4,210.7z"/>
</g>
<g>
	<path class="st74" d="M554.2,209.4c0,0.2,0,0.4,0,0.7c-2.4,0.5-4.8,0.8-7.3,1c-42.7,0.3-85.4,0.4-128.1,0.3
		c-0.1-0.7,0.1-1.1,0.7-1.3c39.7,0.8,79.6,0.9,119.5,0.3C544,210,549.1,209.7,554.2,209.4z"/>
</g>
<g>
	<path class="st75" d="M175.7,313.7c-6.8,0-13.6,0-20.5,0c-4.3-1-7.3-3.7-8.9-7.9c-1-9.4-1.3-18.9-0.7-28.4c1-6.3,4.6-9.9,10.9-10.9
		c5.9-0.4,11.9-0.4,17.8,0c5.7,0.8,9.3,4,10.9,9.6c1.3,9.2,1.3,18.5,0,27.7C184.2,309.2,181,312.5,175.7,313.7z M161.2,276.8
		c3.1-0.1,6.2,0,9.2,0.3c1.2,0.2,2.2,0.7,3,1.7c1.3,7.5,1.3,15,0,22.5c-0.6,0.6-1.1,1.1-1.7,1.7c-2.2,0.1-4.2,0.5-6.3,1
		c-2-0.5-4.1-0.9-6.3-1c-0.8-0.6-1.3-1.4-1.7-2.3c-0.4-6.8-0.4-13.6,0-20.5C158.3,278.3,159.5,277.2,161.2,276.8z"/>
</g>
<g>
	<path class="st76" d="M232.5,313.7c-5.5,0-11,0-16.5,0c-5.3-10-10.5-20.1-15.5-30.4c0.1,10.2,0,20.3-0.3,30.4c-3.5,0-7,0-10.6,0
		c-0.8-15.6-0.9-31.2-0.3-46.9c5.1-0.8,10.3-0.9,15.5-0.3c6,9.6,11.4,19.6,16.2,30c0.2-9.9,0.4-19.8,0.7-29.7
		c3.4-0.8,6.8-0.9,10.2-0.3c0.3,0.3,0.7,0.7,1,1C233.4,283,233.3,298.4,232.5,313.7z"/>
</g>
<g>
	<path class="st77" d="M353.4,313.7c-3.5,0-7,0-10.6,0c-0.5-3.9-0.9-7.9-1-11.9c-0.2-0.6-0.6-1.2-1-1.7c-4.5-0.9-9.2-1.3-13.9-1
		c0.2,4.9,0,9.7-0.7,14.5c-3.5,0-7,0-10.6,0c-0.8-15.4-0.9-30.8-0.3-46.2c0.3-0.3,0.7-0.7,1-1c9.9-0.6,19.8-0.4,29.7,0.7
		c2.6,0.6,4.7,2.1,6.3,4.3c2.4,5.8,2.8,11.7,1.3,17.8c-0.7,1.8-1.7,3.3-3,4.6c1.5,1.5,2.5,3.2,3,5.3
		C354.2,304.1,354.1,309,353.4,313.7z M327,277.4c4.8-0.1,9.7,0,14.5,0.3c1.6,3.1,1.7,6.3,0.3,9.6c-0.5,0.4-1,0.7-1.7,1
		c-4.4,0.3-8.8,0.4-13.2,0.3C327,284.9,327,281.2,327,277.4z"/>
</g>
<g>
	<path class="st78" d="M405.6,313.7c-9.5,0-18.9,0-28.4,0c-1-2.4-0.8-4.8,0.7-6.9c7.7-0.2,15.4-0.4,23.1-0.7c1.2-0.2,2.2-0.7,3-1.7
		c1.4-3.3,1.3-6.5-0.3-9.6c-5.9-0.9-11.8-1.6-17.8-2c-6.6-1.5-9.7-5.7-9.2-12.5c-0.6-7.5,2.7-12.1,9.9-13.9c8.4-0.4,16.7-0.4,25.1,0
		c1,2.6,0.8,5-0.7,7.3c-8.2,0-16.3,0.5-24.4,1.3c-1.6,2.9-1.8,5.9-0.3,8.9c0.5,0.4,1,0.7,1.7,1c6.4,0.3,12.8,1,19.2,2
		c2.3,0.7,3.9,2.2,5,4.3c1,4.8,1.2,9.6,0.7,14.5C411.6,309.8,409.3,312.5,405.6,313.7z"/>
</g>
<g>
	<path class="st79" d="M453.8,313.7c-2.4,0-4.8,0-7.3,0c-1-2.9-2.1-5.8-3.3-8.6c-6.6-0.7-13.2-0.9-19.8-0.7
		c-0.8,3.2-1.9,6.3-3.3,9.2c-2.4,0-4.8,0-7.3,0c-0.7-1.3-0.8-2.6-0.3-4c5.1-13.9,10.1-27.7,15.2-41.6c0.3-0.8,0.9-1.3,1.7-1.7
		c2.6-0.4,5.3-0.4,7.9,0c0.6,0.3,1.1,0.7,1.3,1.3c5.1,14,10.3,28,15.5,41.9C454.5,311.2,454.4,312.5,453.8,313.7z M432.6,278.1
		c3.1,6,5.7,12.3,7.9,18.8c-4.8,0.4-9.7,0.4-14.5,0C428.6,290.7,430.8,284.5,432.6,278.1z"/>
</g>
<g>
	<path class="st80" d="M499.3,313.7c-9.7,0-19.4,0-29.1,0c-0.8-15.6-0.9-31.2-0.3-46.9c2.3-0.7,4.6-0.9,6.9-0.3c0.4,0.5,0.7,1,1,1.7
		c0.3,12.5,0.4,25.1,0.3,37.6c6.8-0.1,13.7,0,20.5,0.3c1.6,0.6,2.3,1.8,2,3.6C500.8,311.3,500.3,312.6,499.3,313.7z"/>
</g>
<g>
	<path class="st81" d="M509.2,313.7c-2.4,0-4.8,0-7.3,0c-0.8-15.4-0.9-30.8-0.3-46.2c0.3-0.3,0.7-0.7,1-1c8.6-0.4,17.2-0.4,25.8,0
		c5.3,1.3,8.3,4.7,8.9,10.2c1,5.8,0.1,11.3-2.6,16.5c-1.5,1.3-3.1,2.3-5,3c-6.6,0.3-13.2,0.4-19.8,0.3
		C510.1,302.4,509.9,308.1,509.2,313.7z M509.9,274.1c6-0.3,11.9,0.1,17.8,1c1.3,3.5,1.6,7.1,1,10.9c-0.3,0.9-0.9,1.7-1.7,2.3
		c-5.7,0.3-11.4,0.4-17.2,0.3C509.9,283.8,509.9,279,509.9,274.1z"/>
</g>
<g>
	<path class="st82" d="M651.2,313.7c-3.5,0-7,0-10.6,0c-7.1-11.6-14.3-23.3-21.5-35c-0.1,11.7-0.4,23.4-1,35c-2.4,0-4.8,0-7.3,0
		c-0.2-0.9-0.4-0.9-0.7,0c-2.4,0-4.8,0-7.3,0c-1.2-3-2.5-6-4-8.9c-6.6-0.3-13.2-0.4-19.8-0.3c-0.6,3.3-1.7,6.4-3.3,9.2
		c-12.3,0-24.7,0-37,0c-0.8-15.4-0.9-30.8-0.3-46.2c1.1-1,2.4-1.4,4-1.3c1.6-0.1,2.9,0.3,4,1.3c0.3,12.8,0.4,25.5,0.3,38.3
		c7-0.1,14.1,0,21.1,0.3c0.3,0.5,0.8,0.8,1.3,1c4.8-12.7,9.5-25.5,14.2-38.3c1.1-2.3,3-3.2,5.6-2.6c1.3,0.1,2.6,0.2,4,0.3
		c0.8,0.3,1.3,0.9,1.7,1.7c5.2,13.6,10.3,27.2,15.2,40.9c0.2-13.9,0.4-27.7,0.7-41.6c0.3-0.3,0.7-0.7,1-1c3.1-0.4,6.2-0.4,9.2,0
		c0.5,0.2,1,0.5,1.3,1c6.9,11.2,13.9,22.5,20.8,33.7c0.2-11.2,0.4-22.5,0.7-33.7c1.1-1,2.4-1.4,4-1.3c1.6-0.1,2.9,0.3,4,1.3
		C652.1,283,652,298.4,651.2,313.7z M589.2,277.4c2.5,6.3,5,12.7,7.3,19.2c-4.6,0.9-9.2,0.9-13.9,0
		C585,290.3,587.2,283.9,589.2,277.4z"/>
</g>
<g>
	<path class="st83" d="M684.3,313.7c-10.1,0-20.3,0-30.4,0c-0.8-15.6-0.9-31.2-0.3-46.9c10-0.8,20-0.9,30-0.3c1.3,2.1,1.7,4.4,1,6.9
		c-7.8,0.7-15.6,0.9-23.4,0.7c0,4,0,7.9,0,11.9c7.3-0.1,14.5,0,21.8,0.3c0.9,2.2,0.9,4.4,0,6.6c-7.3,0.3-14.5,0.4-21.8,0.3
		c0,4.2,0,8.4,0,12.5c7.5-0.1,15,0,22.5,0.3C685.1,308.5,685.3,311.1,684.3,313.7z"/>
</g>
<g>
	<path class="st84" d="M714.6,313.7c-9.5,0-18.9,0-28.4,0c-0.2-2.4,0-4.7,0.7-6.9c7.9-0.2,15.8-0.4,23.8-0.7c1.4-0.6,2.4-1.5,3-3
		c0.6-2.9,0.3-5.7-1-8.3c-6.8-0.9-13.6-1.8-20.5-2.6c-3.2-1.2-5.1-3.5-5.6-6.9c-0.4-3.5-0.4-7,0-10.6c1.1-4.8,4-7.6,8.9-8.3
		c8.4-0.4,16.7-0.4,25.1,0c0.7,2.3,0.9,4.6,0.3,6.9c-8.5,0.4-16.9,0.9-25.4,1.7c-0.7,2.7-0.9,5.4-0.3,8.3c0.3,0.8,0.9,1.3,1.7,1.7
		c6.4,0.3,12.8,1,19.2,2c2.8,1,4.6,2.9,5.6,5.6c1.6,5.9,1.1,11.6-1.3,17.2C718.7,311.7,716.8,313,714.6,313.7z"/>
</g>
<g>
	<path class="st83" d="M134.1,313.7c-6.2,0-12.3,0-18.5,0c-0.2-3.3,0-6.6,0.7-9.9c3.2-0.9,6.4-0.9,9.6,0c1.5-0.4,2.8-1,4-2
		c0.2-11.4,0.4-22.9,0.7-34.3c0.3-0.3,0.7-0.7,1-1c3.1-0.4,6.2-0.4,9.2,0c0.3,0.3,0.7,0.7,1,1c0.4,11.9,0.4,23.8,0,35.7
		C141.6,308.5,139,312,134.1,313.7z"/>
</g>
<g>
	<path class="st85" d="M312.4,313.7c-10.6,0-21.1,0-31.7,0c-0.7-1.8-1.3-1.8-2,0c-4.2,0-8.4,0-12.5,0c-4.8-6.1-9.9-12.1-15.2-17.8
		c-0.5-0.6-1.2-0.8-2-0.7c0.2,6.2,0,12.4-0.7,18.5c-3.5,0-7,0-10.6,0c-0.8-15.4-0.9-30.8-0.3-46.2c0.3-0.3,0.7-0.7,1-1
		c3.1-0.4,6.2-0.4,9.2,0c0.3,0.3,0.7,0.7,1,1c0.3,5.5,0.4,11,0.3,16.5c0.9,0.1,1.6-0.1,2.3-0.7c4.5-5.2,8.8-10.6,12.9-16.2
		c4.1-1,8.3-1.3,12.5-0.7c1.7,1.7,1.6,3.4-0.3,5c-5.2,6.1-10.3,12.1-15.5,18.2c6.1,6.9,12.1,13.9,18.2,20.8
		c0.2-14.3,0.4-28.6,0.7-42.9c0.3-0.3,0.7-0.7,1-1c10.6-0.4,21.1-0.4,31.7,0c0.7,3.1,0.9,6.3,0.3,9.6c-0.3,0.3-0.7,0.7-1,1
		c-6.8,0.3-13.6,0.4-20.5,0.3c0,2.4,0,4.8,0,7.3c6.6-0.1,13.2,0,19.8,0.3c0.3,0.3,0.7,0.7,1,1c0.4,2.6,0.4,5.3,0,7.9
		c-0.3,0.3-0.7,0.7-1,1c-6.6,0.3-13.2,0.4-19.8,0.3c0,2.6,0,5.3,0,7.9c7-0.1,14.1,0,21.1,0.3c0.3,0.3,0.7,0.7,1,1
		C314.1,307.8,313.8,310.9,312.4,313.7z"/>
</g>
<g>
	<path class="st86" d="M463.7,313.7c-2.4,0-4.8,0-7.3,0c-0.8-15.4-0.9-30.8-0.3-46.2c1.1-1,2.4-1.4,4-1.3c1.6-0.1,2.9,0.3,4,1.3
		C464.6,283,464.4,298.4,463.7,313.7z"/>
</g>
</svg>
