<svg xmlns="http://www.w3.org/2000/svg" width="541.42" height="82.309" viewBox="0 0 541.42 82.309">
  <g id="Logo" transform="translate(-198.05 -312.063)">
    <path id="Path_397" d="M721.3,398.09H676a5.241,5.241,0,0,0-4.225,2.827l-9.672,19.82c-.379.782,0,1.422.737,1.422h7.517a2.637,2.637,0,0,0,2.119-1.422l3.793-7.773h30.2l-3.809,7.786c-.379.77,0,1.405.721,1.405h7.578a2.612,2.612,0,0,0,2.119-1.422l9.672-19.82C723.515,399.353,722.863,398.09,721.3,398.09Zm-11.289,7.619a3.08,3.08,0,0,1-2.449,1.654H680.628c-.892,0-1.226-.746-.831-1.654a3.072,3.072,0,0,1,2.448-1.642h26.933c.892,0,1.271.745.831,1.642Z" transform="translate(-274.909 -50.98)" fill="#fff"/>
    <path id="Path_398" d="M334.4,312.184,242.66,323.351c-7.737.99-17.608,7.908-21.914,15.375l-20.667,43.722c-4.318,7.48-1.511,12.784,6.217,11.806l91.616-11.432c4.726-.595,10.242-3.439,14.809-7.24H290.367l-2.408-4.7,11.55-23.752-2.086-4.07H286.761l-6.087,4.094-12.3,25.316-4.689,3.153H252.829l-2.416-4.718,11.6-23.756-11.55,23.731,11.55-23.735-2.086-4.082H228.12l2.807-5.7a9.4,9.4,0,0,1,7.541-5.064h81.961c2.827,0,3.988,2.281,2.62,5.1l-16.28,33.3h10.812a25.766,25.766,0,0,0,2.257-3.243L340.628,324C344.946,316.51,342.135,311.182,334.4,312.184Zm-90.158,36.308-11.806,24.065-4.665,3.137H216.994l-2.461-4.807,10.943-22.4Z" transform="translate(0 0)" fill="#fff"/>
    <path id="Path_399" d="M826.283,398.06l-2.913,5.989h20.545l-7.957,16.308.917,1.788h6.844l2.632-1.764,7.957-16.333H874.8l2.913-5.989Z" transform="translate(-370.564 -50.962)" fill="#fff"/>
    <path id="Path_400" d="M1003.006,398.09H965.3a7.837,7.837,0,0,0-6.311,4.225l-4.974,10.222c-2.6,5.312-.391,9.623,4.9,9.623H996.63a7.866,7.866,0,0,0,6.311-4.249l4.97-10.2C1010.514,402.388,1008.335,398.09,1003.006,398.09Zm-5.777,10.234-2.717,5.594a4.219,4.219,0,0,1-3.369,2.253H966.9c-2.351,0-3.328-1.9-2.18-4.249l2.718-5.581a4.189,4.189,0,0,1,3.377-2.277h24.228c2.355,0,3.333,1.915,2.184,4.261Z" transform="translate(-447.339 -50.98)" fill="#fff"/>
    <path id="Path_401" d="M1107.949,404.067h41.343l1.532-3.149c.77-1.568.122-2.827-1.447-2.827h-46.085a5.241,5.241,0,0,0-4.225,2.827l-1.532,3.149-5.952,12.108-1.536,3.157c-.77,1.556-.122,2.827,1.447,2.827h35.676a5.258,5.258,0,0,0,4.225-2.84l-1.332,2.852h10.405l4.481-9.2,2.746-5.61h-21.022l-2.73,5.61h10.6l-1.569,3.206h-28.807c-1.226,0-1.666-.953-1.092-2.118Z" transform="translate(-528.405 -50.98)" fill="#fff"/>
    <path id="Path_402" d="M1289.762,407.352h-38.508c-.9,0-1.226-.745-.851-1.654a3.048,3.048,0,0,1,2.448-1.642h40.622l1.886-3.858c.575-1.226.086-2.119-1.092-2.119h-46.057a5.207,5.207,0,0,0-4.2,2.827l-7.407,15.131c-1.63,3.357-.24,6.123,3.121,6.123h44.916l1.886-3.87c.575-1.226.086-2.118-1.092-2.118h-38.528c-.892,0-1.226-.725-.831-1.605a2.982,2.982,0,0,1,2.388-1.605h40.671l1.707-3.5C1291.42,408.294,1290.931,407.352,1289.762,407.352Z" transform="translate(-615.044 -50.974)" fill="#fff"/>
    <path id="Path_403" d="M1425.539,398.06l-7.26,14.886L1399.3,398.06h-14.23l-11.741,24.081h10.4l8.437-17.286,21.621,17.286h10.4l11.741-24.081Z" transform="translate(-696.47 -50.962)" fill="#fff"/>
    <path id="Path_404" d="M592.019,397.49h-46.7a5.34,5.34,0,0,0-4.306,2.888l-1.573,3.239h18.113l1.255,2.334h0l-6.6,13.53,1.381,2.685h6.188l2.673-1.793,7.028-14.422,3.475-2.334h6.038l1.181,2.322-6.6,13.542,1.381,2.672h6.188l2.673-1.793,9.741-19.967C594.292,398.781,593.628,397.49,592.019,397.49Z" transform="translate(-202.308 -50.624)" fill="#fff"/>
    <path id="Path_405" d="M520.44,431.8l1.4,2.738h6.135l2.66-1.793L537.7,418.27H527.032Z" transform="translate(-191.048 -62.938)" fill="#fff"/>
  </g>
</svg>
