<?xml version="1.0" encoding="utf-8"?>
<!-- Generator: Adobe Illustrator 27.9.0, SVG Export Plug-In . SVG Version: 6.00 Build 0)  -->
<svg version="1.1" id="Layer_1" xmlns="http://www.w3.org/2000/svg" xmlns:xlink="http://www.w3.org/1999/xlink" x="0px" y="0px"
	 viewBox="0 0 806.1 131.2" style="enable-background:new 0 0 806.1 131.2;" xml:space="preserve">
<style type="text/css">
	.st0{fill:#27A8E0;}
	.st1{enable-background:new    ;}
	.st2{fill:#FDFFFE;}
	.st3{fill:#FFFFFA;}
</style>
<g id="Matogen-logo-white-d2" transform="translate(-16.032 -16.326)">
	<g id="Logo" transform="translate(16.032 16.326)">
		<path id="Path_397" class="st0" d="M369.7,53h-67.5c-2.7,0.3-5.1,1.9-6.3,4.3l-14.4,30.5c-0.6,1.2,0,2.2,1.1,2.2h11.2
			c1.4-0.1,2.6-0.9,3.2-2.2l5.7-12h45l-5.7,12c-0.6,1.2,0,2.2,1.1,2.2h11.2c1.4-0.1,2.6-0.9,3.2-2.2l14.4-30.5
			C373.1,55,372.1,53,369.7,53z M352.9,64.8c-0.7,1.4-2.1,2.4-3.7,2.6h-40.1c-1.3,0-1.8-1.2-1.2-2.6c0.7-1.4,2.1-2.4,3.7-2.5h40.1
			C353,62.2,353.6,63.4,352.9,64.8z"/>
		<path id="Path_398" class="st0" d="M203-0.8L66.4,16.4c-11.5,1.5-26.2,12.1-32.6,23.7L3,107.5c-6.4,11.6-2.2,19.7,9.2,18.2
			l136.4-17.6c7.1-0.9,15.2-5.3,22-11.1h-33.3l-3.6-7.2l17.2-36.6l-3.1-6.2h-15.9l-9.1,6.3l-18.3,39l-7,4.8H81.6l-3.6-7.2l17.3-36.6
			L78.1,89.8l17.2-36.6l-3.1-6.3H44.9l4.2-8.8c2.1-4.4,6.4-7.4,11.2-7.8h122.1c4.2,0,5.9,3.5,3.9,7.8l-24.5,51.3H178
			c1.2-1.6,2.3-3.2,3.3-5l31-67C218.7,5.9,214.5-2.3,203-0.8z M68.7,55.2L51.2,92.3l-6.9,4.8H28.2l-3.7-7.4l16.3-34.5L68.7,55.2z"/>
		<path id="Path_399" class="st0" d="M383.6,53l-4.3,9.2h30.6l-11.8,25.1l1.3,2.7h10.2l3.9-2.7l11.8-25.2h30.5l4.3-9.2L383.6,53z"/>
		<path id="Path_400" class="st0" d="M532.5,53h-56.2c-4,0.4-7.6,2.8-9.4,6.5l-7.4,15.7c-3.9,8.2-0.6,14.8,7.3,14.8H523
			c4.1-0.4,7.6-2.9,9.4-6.6l7.4-15.7C543.6,59.7,540.4,53,532.5,53z M523.9,68.8l-4.1,8.7c-1,1.9-2.8,3.2-5,3.5h-36.1
			c-3.5,0-5-2.9-3.2-6.6l4.1-8.6c0.9-2,2.8-3.3,5-3.5h36.1C524.2,62.2,525.6,65.2,523.9,68.8L523.9,68.8z"/>
		<path id="Path_401" class="st0" d="M568,62.2h61.6l2.2-4.8c1.2-2.4,0.2-4.3-2.2-4.3H561c-2.7,0.3-5.1,1.9-6.3,4.3l-2.2,4.8
			l-8.9,18.6l-2.2,4.8c-1.2,2.4-0.2,4.3,2.2,4.3h53.2c2.7-0.3,5.1-2,6.3-4.4l-2,4.4h15.5l6.7-14.1l4.1-8.7h-31.3l-4.1,8.7h15.8
			l-2.3,4.9h-42.9c-1.8,0-2.5-1.5-1.7-3.2L568,62.2z"/>
		<path id="Path_402" class="st0" d="M709.8,67.3h-57.3c-1.3,0-1.8-1.2-1.2-2.6c0.7-1.4,2.1-2.4,3.7-2.5h60.5l2.8-5.9
			c0.8-1.9,0.2-3.2-1.7-3.2H648c-2.7,0.3-5,1.9-6.2,4.3l-11.1,23.3c-2.4,5.2-0.3,9.4,4.7,9.4h66.9l2.8-6c0.8-1.9,0.2-3.2-1.7-3.2
			H646c-1.3,0-1.8-1.1-1.2-2.5c0.7-1.4,2-2.3,3.6-2.5h60.6l2.6-5.4C712.2,68.8,711.5,67.3,709.8,67.3z"/>
		<path id="Path_403" class="st0" d="M790.7,53l-10.8,23l-28.3-23h-21.2l-17.5,37.1h15.5L741,63.5l32.2,26.6h15.5L806.1,53L790.7,53
			z"/>
		<path id="Path_404" class="st0" d="M285.4,52.7h-69.6c-2.8,0.3-5.2,2-6.4,4.5l-2.3,5h27l1.8,3.6l0,0l-9.8,20.9l2.1,4.2h9.2l4-2.7
			l10.5-22.2l5.2-3.6h9l1.7,3.6l-9.8,20.9l2.1,4.1h9.2l4-2.7l14.5-30.8C288.7,54.7,287.8,52.7,285.4,52.7z"/>
		<path id="Path_405" class="st0" d="M195.5,86.5l2.1,4.2h9.2l4-2.7l10.5-22.3h-15.9L195.5,86.5z"/>
	</g>
	<g class="st1">
		<path class="st2" d="M247.5,46c0.6-1.4,2-4,4.2-7.8l3.2-5.6h4.5l-3.8,18.3h-3.3l2-8.7c0.3-1.5,0.7-3.2,1.2-5.2h-0.1
			c-0.9,1.9-2.7,5.2-5.2,9.8l-2.4,4.2h-2.2l-1.5-9.9c-0.2-1.3-0.4-2.7-0.5-4h-0.1c-0.1,1.3-0.4,2.9-0.7,4.8l-1.8,9.1h-3.3l3.8-18.3
			h4.3l0.8,5.1C246.7,39.8,247,42.6,247.5,46L247.5,46z"/>
		<path class="st2" d="M271,47.7c0,0.2,0.1,0.4,0.2,0.5s0.3,0.2,0.6,0.2c0.3,0,0.6,0,1-0.1l-0.6,2.6c-0.6,0.1-1.1,0.2-1.6,0.2
			c-0.7,0-1.3-0.2-1.7-0.5s-0.6-0.8-0.7-1.5H268c-0.6,0.8-1.3,1.3-2,1.7s-1.4,0.5-2.1,0.5c-0.6,0-1.1-0.1-1.6-0.3s-0.9-0.5-1.2-0.9
			s-0.6-0.9-0.8-1.4s-0.3-1.2-0.3-1.9c0-0.7,0.1-1.5,0.2-2.2s0.3-1.5,0.6-2.2s0.5-1.3,0.9-1.9s0.8-1.1,1.3-1.6s1-0.8,1.6-1.1
			s1.2-0.4,1.9-0.4c0.6,0,1.2,0.1,1.8,0.4s1.1,0.7,1.5,1.2h0.1l0.5-1.3h2.8l-1.9,9.2c0,0.2-0.1,0.3-0.1,0.5S271,47.6,271,47.7z
			 M269.1,41c-0.1-0.1-0.2-0.2-0.3-0.4s-0.3-0.2-0.5-0.3s-0.4-0.2-0.6-0.2S267.3,40,267,40c-0.4,0-0.8,0.1-1.2,0.3s-0.7,0.5-0.9,0.8
			s-0.5,0.7-0.7,1.2s-0.4,0.9-0.5,1.4s-0.2,0.9-0.3,1.4s-0.1,0.9-0.1,1.3c0,0.8,0.1,1.3,0.4,1.7s0.6,0.5,1.1,0.5s0.9-0.2,1.4-0.5
			s0.9-0.7,1.2-1.3c0.2-0.4,0.5-0.8,0.6-1.2s0.3-1,0.5-1.6L269.1,41z"/>
		<path class="st2" d="M284.4,40.3H281l-1.3,6.4c0,0.2-0.1,0.4-0.1,0.5s0,0.3,0,0.4c0,0.3,0.1,0.6,0.3,0.7s0.5,0.2,1,0.2
			c0.3,0,0.7,0,1.2-0.1s0.9-0.1,1.3-0.2l-0.5,2.7c-0.4,0.1-0.9,0.2-1.4,0.3s-1,0.1-1.5,0.1c-0.6,0-1.2-0.1-1.6-0.2s-0.8-0.3-1.1-0.6
			s-0.5-0.5-0.7-0.9s-0.2-0.8-0.2-1.2c0-0.2,0-0.3,0-0.6s0.1-0.5,0.1-0.8l1.4-6.7h-2.5l0.6-2.7h2.5l0.8-3.7h3.2l-0.8,3.7h3.4
			L284.4,40.3z"/>
		<path class="st2" d="M293,37.3c0.8,0,1.5,0.1,2.1,0.3s1.2,0.5,1.6,0.9s0.8,0.9,1,1.6s0.4,1.4,0.4,2.2c0,1.2-0.2,2.3-0.5,3.4
			s-0.8,2-1.4,2.8s-1.4,1.5-2.3,2s-2,0.7-3.2,0.7c-0.8,0-1.5-0.1-2.1-0.3s-1.2-0.5-1.6-0.9s-0.8-0.9-1-1.6s-0.4-1.4-0.4-2.2
			c0-1.2,0.2-2.3,0.5-3.4s0.8-2,1.4-2.8s1.4-1.5,2.3-2S291.8,37.3,293,37.3z M292.8,40c-0.4,0-0.8,0.1-1.2,0.3s-0.7,0.4-1,0.7
			s-0.5,0.7-0.8,1.1s-0.4,0.8-0.5,1.3s-0.3,0.9-0.3,1.4s-0.1,1-0.1,1.4c0,0.8,0.2,1.4,0.5,1.8s0.9,0.7,1.7,0.7
			c0.4,0,0.8-0.1,1.2-0.3s0.7-0.4,1-0.7s0.5-0.7,0.8-1.1s0.4-0.8,0.5-1.3s0.2-0.9,0.3-1.4s0.1-1,0.1-1.4c0-0.7-0.2-1.3-0.5-1.8
			S293.5,40,292.8,40z"/>
		<path class="st2" d="M307.3,49.4c-0.5,0.6-1,1.1-1.6,1.4s-1.2,0.5-1.9,0.5c-0.6,0-1.1-0.1-1.6-0.3s-0.9-0.5-1.2-0.9
			s-0.6-0.9-0.8-1.4s-0.3-1.2-0.3-1.9c0-0.7,0.1-1.5,0.2-2.2s0.3-1.5,0.5-2.2s0.5-1.3,0.9-1.9s0.8-1.1,1.3-1.6s1-0.8,1.6-1.1
			s1.2-0.4,1.9-0.4c0.6,0,1.2,0.1,1.8,0.4s1.1,0.7,1.5,1.2h0.1l0.5-1.3h2.8L310.2,51c-0.2,1.1-0.6,2.1-1,2.9s-1,1.5-1.6,2.1
			s-1.4,0.9-2.3,1.2s-1.9,0.4-3,0.4c-0.8,0-1.6-0.1-2.3-0.2s-1.5-0.3-2.2-0.6l0.6-2.7c0.6,0.2,1.2,0.4,1.8,0.6s1.3,0.2,1.9,0.2
			c0.8,0,1.5-0.1,2-0.3s1-0.5,1.4-0.8s0.7-0.8,1-1.4s0.5-1.2,0.6-1.9C307.2,50,307.3,49.7,307.3,49.4L307.3,49.4z M309,41
			c-0.1-0.1-0.2-0.2-0.3-0.4s-0.3-0.2-0.5-0.3s-0.4-0.2-0.6-0.2S307.2,40,307,40c-0.4,0-0.8,0.1-1.2,0.3s-0.7,0.5-0.9,0.8
			s-0.5,0.7-0.7,1.2s-0.4,0.9-0.5,1.4s-0.2,0.9-0.3,1.4s-0.1,0.9-0.1,1.3c0,0.8,0.1,1.3,0.4,1.7s0.6,0.5,1.1,0.5
			c0.4,0,0.9-0.1,1.3-0.4s0.8-0.7,1.2-1.2c0.5-0.7,0.9-1.8,1.2-3L309,41z"/>
		<path class="st2" d="M326.4,40.9c0,0.7-0.2,1.4-0.5,2s-0.9,1.1-1.6,1.5s-1.6,0.7-2.6,1s-2.2,0.3-3.6,0.3c-0.2,0-0.4,0-0.6,0v0.1
			c0,0.5,0.1,0.9,0.2,1.3s0.3,0.7,0.6,0.9s0.6,0.4,1,0.5s0.8,0.2,1.3,0.2c0.7,0,1.5-0.1,2.2-0.3s1.5-0.4,2.1-0.7l-0.6,2.8
			c-0.6,0.2-1.2,0.4-1.9,0.6s-1.5,0.2-2.3,0.2c-1,0-1.8-0.1-2.5-0.4s-1.3-0.6-1.8-1.1s-0.8-1-1-1.7s-0.3-1.4-0.3-2.2
			c0-0.7,0.1-1.4,0.2-2.1s0.4-1.4,0.6-2s0.6-1.2,1.1-1.8s0.9-1,1.5-1.4s1.2-0.7,1.9-0.9s1.4-0.3,2.2-0.3c0.7,0,1.3,0.1,1.9,0.3
			s1,0.4,1.4,0.7s0.7,0.7,0.9,1.1S326.4,40.4,326.4,40.9z M323.2,40.9c0-0.3-0.1-0.6-0.4-0.8s-0.6-0.3-1.1-0.3
			c-0.4,0-0.7,0.1-1.1,0.2s-0.7,0.4-1.1,0.6s-0.6,0.6-0.9,1.1s-0.5,0.9-0.6,1.4c1,0,1.8-0.1,2.4-0.2s1.2-0.3,1.6-0.5
			s0.7-0.4,0.9-0.7S323.2,41.2,323.2,40.9z"/>
		<path class="st2" d="M330.7,50.9h-3.2l2.7-13.2h2.7v1.7h0.1c0.2-0.3,0.5-0.5,0.8-0.8s0.6-0.5,1-0.6s0.7-0.3,1.2-0.4
			s0.8-0.2,1.3-0.2c0.5,0,1,0.1,1.5,0.2s0.9,0.4,1.2,0.7s0.6,0.6,0.8,1.1s0.3,0.9,0.3,1.4c0,0.3,0,0.7-0.1,1.1s-0.1,0.8-0.2,1.2
			l-1.6,7.8h-3.2l1.7-8.1c0.1-0.3,0.1-0.5,0.1-0.8s0-0.4,0-0.6c0-0.5-0.1-0.8-0.4-1.1s-0.7-0.4-1.2-0.4c-0.7,0-1.3,0.2-1.9,0.5
			s-1.1,0.9-1.4,1.5c-0.1,0.1-0.1,0.2-0.2,0.4s-0.1,0.3-0.2,0.5s-0.1,0.4-0.2,0.6s-0.1,0.5-0.2,0.8L330.7,50.9z"/>
		<path class="st2" d="M357.7,32.6c0.9,0,1.8,0.1,2.5,0.2s1.3,0.3,1.9,0.5c0.7,0.3,1.3,0.6,1.8,1s0.9,0.9,1.2,1.4s0.6,1.1,0.7,1.7
			s0.2,1.3,0.2,2c0,0.4,0,1-0.1,1.6s-0.2,1.2-0.4,1.9s-0.4,1.3-0.8,2s-0.7,1.3-1.2,2s-1.1,1.2-1.8,1.8s-1.5,1-2.4,1.4
			c-0.7,0.3-1.5,0.5-2.4,0.7s-1.9,0.2-3.2,0.2h-5.2l3.8-18.3H357.7z M352.3,48.1h2.1c0.9,0,1.6-0.1,2.3-0.2s1.2-0.4,1.8-0.6
			c0.7-0.4,1.3-0.8,1.8-1.3s0.9-1.1,1.3-1.8s0.6-1.4,0.8-2.1s0.3-1.5,0.3-2.3c0-1-0.1-1.8-0.5-2.5s-0.9-1.1-1.6-1.4
			c-0.4-0.2-0.8-0.3-1.2-0.3s-1.1-0.1-1.7-0.1H355L352.3,48.1z"/>
		<path class="st2" d="M367.2,50.9l2.8-13.2h3.2l-2.8,13.2H367.2z M370.5,34.6l0.7-3.5h3.4l-0.7,3.5H370.5z"/>
		<path class="st2" d="M381.9,49.4c-0.5,0.6-1,1.1-1.6,1.4s-1.2,0.5-1.9,0.5c-0.6,0-1.1-0.1-1.6-0.3s-0.9-0.5-1.2-0.9
			s-0.6-0.9-0.8-1.4s-0.3-1.2-0.3-1.9c0-0.7,0.1-1.5,0.2-2.2s0.3-1.5,0.5-2.2s0.5-1.3,0.9-1.9s0.8-1.1,1.3-1.6s1-0.8,1.6-1.1
			s1.2-0.4,1.9-0.4c0.6,0,1.2,0.1,1.8,0.4s1.1,0.7,1.5,1.2h0.1l0.5-1.3h2.8L384.7,51c-0.2,1.1-0.6,2.1-1,2.9s-1,1.5-1.6,2.1
			s-1.4,0.9-2.3,1.2s-1.9,0.4-3,0.4c-0.8,0-1.6-0.1-2.3-0.2s-1.5-0.3-2.2-0.6l0.6-2.7c0.6,0.2,1.2,0.4,1.8,0.6s1.3,0.2,1.9,0.2
			c0.8,0,1.5-0.1,2-0.3s1-0.5,1.4-0.8s0.7-0.8,1-1.4s0.5-1.2,0.6-1.9C381.8,50,381.9,49.7,381.9,49.4L381.9,49.4z M383.6,41
			c-0.1-0.1-0.2-0.2-0.3-0.4s-0.3-0.2-0.5-0.3s-0.4-0.2-0.6-0.2s-0.4-0.1-0.7-0.1c-0.4,0-0.8,0.1-1.2,0.3s-0.7,0.5-0.9,0.8
			s-0.5,0.7-0.7,1.2s-0.4,0.9-0.5,1.4s-0.2,0.9-0.3,1.4s-0.1,0.9-0.1,1.3c0,0.8,0.1,1.3,0.4,1.7s0.6,0.5,1.1,0.5
			c0.4,0,0.9-0.1,1.3-0.4s0.8-0.7,1.2-1.2c0.5-0.7,0.9-1.8,1.2-3L383.6,41z"/>
		<path class="st2" d="M388.5,50.9l2.8-13.2h3.2l-2.8,13.2H388.5z M391.8,34.6l0.7-3.5h3.4l-0.7,3.5H391.8z"/>
		<path class="st2" d="M405.1,40.3h-3.4l-1.3,6.4c0,0.2-0.1,0.4-0.1,0.5s0,0.3,0,0.4c0,0.3,0.1,0.6,0.3,0.7s0.5,0.2,1,0.2
			c0.3,0,0.7,0,1.2-0.1s0.9-0.1,1.3-0.2l-0.5,2.7c-0.4,0.1-0.9,0.2-1.4,0.3s-1,0.1-1.5,0.1c-0.6,0-1.2-0.1-1.6-0.2s-0.8-0.3-1.1-0.6
			s-0.5-0.5-0.7-0.9s-0.2-0.8-0.2-1.2c0-0.2,0-0.3,0-0.6s0.1-0.5,0.1-0.8l1.4-6.7h-2.5l0.6-2.7h2.5l0.8-3.7h3.2l-0.8,3.7h3.4
			L405.1,40.3z"/>
		<path class="st2" d="M417.2,47.7c0,0.2,0.1,0.4,0.2,0.5s0.3,0.2,0.6,0.2c0.3,0,0.6,0,1-0.1l-0.6,2.6c-0.6,0.1-1.1,0.2-1.6,0.2
			c-0.7,0-1.3-0.2-1.7-0.5s-0.6-0.8-0.7-1.5h-0.1c-0.6,0.8-1.3,1.3-2,1.7s-1.4,0.5-2.1,0.5c-0.6,0-1.1-0.1-1.6-0.3s-0.9-0.5-1.2-0.9
			s-0.6-0.9-0.8-1.4s-0.3-1.2-0.3-1.9c0-0.7,0.1-1.5,0.2-2.2s0.3-1.5,0.6-2.2s0.5-1.3,0.9-1.9s0.8-1.1,1.3-1.6s1-0.8,1.6-1.1
			s1.2-0.4,1.9-0.4c0.6,0,1.2,0.1,1.8,0.4s1.1,0.7,1.5,1.2h0.1l0.5-1.3h2.8l-1.9,9.2c0,0.2-0.1,0.3-0.1,0.5S417.2,47.6,417.2,47.7z
			 M415.3,41c-0.1-0.1-0.2-0.2-0.3-0.4s-0.3-0.2-0.5-0.3s-0.4-0.2-0.6-0.2s-0.4-0.1-0.7-0.1c-0.4,0-0.8,0.1-1.2,0.3
			s-0.7,0.5-0.9,0.8s-0.5,0.7-0.7,1.2s-0.4,0.9-0.5,1.4s-0.2,0.9-0.3,1.4s-0.1,0.9-0.1,1.3c0,0.8,0.1,1.3,0.4,1.7s0.6,0.5,1.1,0.5
			s0.9-0.2,1.4-0.5s0.9-0.7,1.2-1.3c0.2-0.4,0.5-0.8,0.6-1.2s0.3-1,0.5-1.6L415.3,41z"/>
		<path class="st2" d="M424.8,31.1h3.2l-3.3,15.7c-0.1,0.4-0.1,0.6-0.1,0.8c0,0.3,0.1,0.4,0.2,0.6s0.4,0.2,0.7,0.2s0.6,0,1-0.1
			l-0.6,2.7c-0.2,0-0.5,0.1-0.8,0.1s-0.6,0.1-0.9,0.1c-1,0-1.7-0.2-2.2-0.6s-0.7-1.1-0.7-1.9c0-0.4,0.1-0.9,0.2-1.5L424.8,31.1z"/>
	</g>
	<g class="st1">
		<path class="st3" d="M437.4,46.8c0-1.2,0.2-2.5,0.7-3.7c0.5-1.3,1.2-2.3,2.1-3.1c0.9-0.8,1.9-1.3,3.1-1.3c1.1,0,2.1,0.5,2.7,1.6h0
			l0.5-1.3h0.7l-2,9.3c-0.1,0.3-0.1,0.6-0.1,0.8c0,0.4,0.2,0.6,0.5,0.6c0.3,0,0.6,0,0.8,0l-0.2,0.8c-0.3,0.1-0.5,0.1-0.8,0.1
			c-0.4,0-0.7-0.1-1-0.3c-0.2-0.2-0.3-0.5-0.3-0.8c0-0.2,0-0.5,0.1-0.9h0c-1.1,1.4-2.3,2.1-3.7,2.1c-1,0-1.8-0.3-2.3-1
			C437.6,49.1,437.4,48.1,437.4,46.8z M445.8,41.3c-0.4-0.5-0.7-0.9-1.1-1.2s-0.9-0.5-1.5-0.5c-1,0-1.8,0.4-2.6,1.1
			c-0.7,0.8-1.3,1.7-1.6,2.8s-0.6,2.2-0.6,3.3c0,1.1,0.2,1.9,0.6,2.3s1,0.6,1.7,0.6c0.9,0,1.8-0.4,2.6-1.1c0.8-0.7,1.3-1.6,1.5-2.6
			L445.8,41.3z"/>
		<path class="st3" d="M453.9,46.8c0-1.4,0.3-2.7,0.8-4c0.5-1.3,1.3-2.3,2.2-3c0.9-0.7,1.9-1.1,3.1-1.1c1.3,0,2.3,0.5,2.8,1.5h0
			l1.6-7.4h1L462,48.6c-0.1,0.4-0.1,0.6-0.1,0.7c0,0.2,0.1,0.3,0.2,0.4c0.1,0.1,0.3,0.1,0.6,0.1c0.2,0,0.4,0,0.6-0.1l-0.2,0.8
			c-0.2,0.1-0.5,0.1-0.9,0.1c-0.4,0-0.8-0.1-1-0.3s-0.3-0.5-0.3-1l0-0.6h0c-0.6,0.8-1.2,1.3-1.9,1.6s-1.3,0.4-2,0.4
			C454.9,50.7,453.9,49.4,453.9,46.8z M462.5,41.3c-0.3-0.5-0.7-0.9-1.2-1.2c-0.5-0.3-1-0.5-1.7-0.5c-1,0-1.9,0.4-2.6,1.2
			c-0.7,0.8-1.2,1.7-1.6,2.8c-0.3,1.1-0.5,2.2-0.5,3.2c0,1.2,0.2,2,0.7,2.4s1,0.7,1.6,0.7c1,0,1.9-0.4,2.9-1.3
			c0.9-0.9,1.5-1.8,1.7-2.9L462.5,41.3z"/>
		<path class="st3" d="M465.5,50.4l2.3-11.4h1l-2.4,11.4H465.5z M468.4,36.4l0.2-1.1h1l-0.2,1.1H468.4z"/>
		<path class="st3" d="M471,39h1l1.6,7.9l0.5,2.3h0c0.3-0.4,0.6-1,1-1.7l4.8-8.5h1.1l-6.5,11.4h-1.1L471,39z"/>
		<path class="st3" d="M481.2,50.4l2.3-11.4h1l-2.4,11.4H481.2z M484.1,36.4l0.2-1.1h1l-0.2,1.1H484.1z"/>
		<path class="st3" d="M485.5,50l0.2-1c0.9,0.6,1.9,0.8,2.9,0.8c1.4,0,2.3-0.3,2.7-0.9c0.4-0.6,0.6-1.1,0.6-1.7
			c0-0.5-0.1-0.9-0.3-1.2c-0.2-0.3-0.5-0.5-0.8-0.7s-0.8-0.3-1.3-0.5c-0.6-0.2-1-0.4-1.3-0.6c-0.3-0.2-0.6-0.4-0.8-0.8
			c-0.2-0.3-0.3-0.8-0.3-1.3c0-1,0.3-1.9,1-2.5c0.7-0.6,1.6-0.9,2.8-0.9c0.6,0,1.2,0.1,1.7,0.2c0.6,0.1,1,0.3,1.4,0.5l-0.2,0.9
			c-0.5-0.2-1-0.4-1.4-0.6c-0.4-0.1-0.9-0.2-1.3-0.2c-0.9,0-1.6,0.2-2.1,0.7c-0.5,0.4-0.8,1-0.8,1.8c0,0.5,0.1,1,0.4,1.2
			s0.7,0.5,1.3,0.7c0.7,0.2,1.3,0.4,1.7,0.6c0.4,0.2,0.8,0.5,1.1,0.8c0.3,0.4,0.5,0.9,0.5,1.6c0,1.3-0.4,2.3-1.2,2.9
			c-0.8,0.6-1.9,0.9-3.2,0.9c-0.4,0-0.9-0.1-1.6-0.2C486.3,50.5,485.8,50.3,485.5,50z"/>
		<path class="st3" d="M495.3,50.4l2.3-11.4h1l-2.4,11.4H495.3z M498.2,36.4l0.2-1.1h1l-0.2,1.1H498.2z"/>
		<path class="st3" d="M500.2,46.3c0-0.8,0.2-1.9,0.6-3.1c0.4-1.2,1-2.3,1.9-3.2c0.9-0.9,2-1.4,3.4-1.4c1.2,0,2.2,0.4,2.8,1.2
			s0.9,2,0.9,3.4c0,0.9-0.2,1.9-0.6,3c-0.4,1.2-1,2.2-2,3s-2.1,1.3-3.5,1.3c-1.1,0-2-0.4-2.7-1.2C500.6,48.7,500.2,47.7,500.2,46.3z
			 M508.9,43.3c0-1-0.2-1.9-0.7-2.6c-0.4-0.7-1.1-1.1-2.1-1.1c-1,0-1.9,0.4-2.6,1.1c-0.7,0.7-1.3,1.6-1.7,2.7c-0.4,1.1-0.6,2-0.6,3
			c0,1,0.2,1.9,0.7,2.5c0.5,0.6,1.1,0.9,1.9,0.9c1,0,1.9-0.3,2.6-1c0.7-0.7,1.3-1.5,1.7-2.5S508.9,44.3,508.9,43.3z"/>
		<path class="st3" d="M514.1,39h0.7l0,1.7h0c0.6-0.7,1.2-1.2,1.9-1.5s1.5-0.5,2.3-0.5c0.9,0,1.6,0.2,2.1,0.7
			c0.5,0.4,0.8,1.1,0.8,1.9c0,0.3,0,0.7-0.1,1.2s-0.6,3.1-1.6,8h-1l1.5-7.2c0.1-0.7,0.2-1.3,0.2-1.7c0-0.7-0.2-1.2-0.6-1.4
			c-0.4-0.3-1-0.4-1.7-0.4c-1.5,0-2.7,0.7-3.8,2.1c-0.4,0.5-0.7,1.1-0.8,1.9l-1.4,6.8h-1L514.1,39z"/>
		<path class="st3" d="M529.4,46.3c0-0.8,0.2-1.9,0.6-3.1c0.4-1.2,1-2.3,1.9-3.2c0.9-0.9,2-1.4,3.4-1.4c1.2,0,2.2,0.4,2.8,1.2
			s0.9,2,0.9,3.4c0,0.9-0.2,1.9-0.6,3c-0.4,1.2-1,2.2-2,3s-2.1,1.3-3.5,1.3c-1.1,0-2-0.4-2.7-1.2C529.7,48.7,529.4,47.7,529.4,46.3z
			 M538,43.3c0-1-0.2-1.9-0.7-2.6c-0.4-0.7-1.1-1.1-2.1-1.1c-1,0-1.9,0.4-2.6,1.1c-0.7,0.7-1.3,1.6-1.7,2.7c-0.4,1.1-0.6,2-0.6,3
			c0,1,0.2,1.9,0.7,2.5c0.5,0.6,1.1,0.9,1.9,0.9c1,0,1.9-0.3,2.6-1c0.7-0.7,1.3-1.5,1.7-2.5S538,44.3,538,43.3z"/>
		<path class="st3" d="M536.6,56.3l0.1-0.8l1,0.1c1.1,0,1.9-0.3,2.4-1s1-1.7,1.3-3.2l2.4-11.4h-2.2l0.2-0.9h2.2l0.6-2.6
			c0.3-1.4,0.9-2.4,1.6-3.1c0.8-0.7,1.7-1,2.8-1c0.4,0,0.8,0.1,1.2,0.2l-0.2,0.8c-0.4-0.1-0.7-0.1-1.1-0.1c-0.9,0-1.6,0.3-2.2,0.8
			c-0.5,0.5-1,1.4-1.2,2.6l-0.5,2.3h3.2L548,40h-3.2l-2.6,12.3c-0.3,1.5-0.9,2.6-1.7,3.2c-0.8,0.6-1.7,0.9-2.8,0.9
			C537.3,56.4,536.9,56.4,536.6,56.3z"/>
	</g>
	<g class="st1">
		<path class="st3" d="M204.5,133.2c0-1.2,0.2-2.5,0.7-3.8c0.5-1.3,1.1-2.5,1.9-3.5c0.8-1,1.8-1.7,2.9-2.3c1.1-0.5,2.3-0.8,3.8-0.8
			c0.6,0,1.2,0,1.7,0.1c0.6,0.1,1,0.2,1.3,0.3l-0.3,1c-0.3-0.1-0.7-0.3-1.3-0.3c-0.5-0.1-1.1-0.1-1.5-0.1c-1.5,0-2.8,0.4-4.1,1.3
			c-1.2,0.9-2.2,2.1-2.9,3.5c-0.7,1.4-1,3-1,4.5c0,1.3,0.3,2.4,0.8,3.3s1.2,1.4,2,1.8c0.8,0.4,1.7,0.5,2.5,0.5
			c0.6,0,1.1-0.1,1.7-0.2c0.6-0.1,1-0.3,1.4-0.4l-0.2,1.1c-0.8,0.3-1.8,0.5-2.9,0.5c-2,0-3.6-0.6-4.8-1.8
			C205.1,136.9,204.5,135.3,204.5,133.2z"/>
		<path class="st3" d="M217.3,135.4c0-0.8,0.2-1.9,0.6-3.1c0.4-1.2,1-2.3,1.9-3.2c0.9-0.9,2-1.4,3.4-1.4c1.2,0,2.2,0.4,2.8,1.2
			c0.6,0.8,0.9,2,0.9,3.4c0,0.9-0.2,1.9-0.6,3c-0.4,1.2-1,2.2-2,3s-2.1,1.3-3.5,1.3c-1.1,0-2-0.4-2.7-1.2
			C217.6,137.8,217.3,136.8,217.3,135.4z M225.9,132.4c0-1-0.2-1.9-0.7-2.6c-0.4-0.7-1.1-1.1-2.1-1.1c-1,0-1.9,0.4-2.6,1.1
			c-0.7,0.7-1.3,1.6-1.7,2.7c-0.4,1.1-0.6,2-0.6,3c0,1,0.2,1.9,0.7,2.5c0.5,0.6,1.1,0.9,1.9,0.9c1,0,1.9-0.3,2.6-1
			c0.7-0.7,1.3-1.5,1.7-2.5S225.9,133.4,225.9,132.4z"/>
		<path class="st3" d="M231.2,128.1h0.7l0,1.7h0c0.4-0.5,0.9-1,1.5-1.4c0.6-0.4,1.3-0.6,2-0.6c0.3,0,0.5,0,0.7,0.1l-0.2,1
			c-0.1,0-0.3,0-0.5,0c-0.8,0-1.5,0.2-2.1,0.5c-0.5,0.3-1,0.8-1.4,1.3c-0.4,0.6-0.7,1.2-0.8,2l-1.4,6.8h-1L231.2,128.1z"/>
		<path class="st3" d="M238.4,128.1h0.7v1.7h0c0.5-0.7,1-1.2,1.7-1.5c0.6-0.3,1.3-0.5,1.9-0.5c1.1,0,2,0.3,2.5,1
			c0.6,0.7,0.9,1.7,0.9,3c0,1.3-0.2,2.5-0.7,3.7c-0.4,1.2-1.1,2.2-2,3c-0.9,0.8-1.9,1.2-3.1,1.2c-1.3,0-2.4-0.4-3.1-1.2h0l-1.4,6.6
			h-0.9L238.4,128.1z M245,132c0-1.2-0.2-2-0.7-2.5c-0.5-0.5-1.1-0.8-1.8-0.8c-0.9,0-1.7,0.4-2.6,1.2c-0.8,0.8-1.3,1.7-1.6,2.7
			l-1,5.1c0.4,0.4,0.8,0.7,1.2,0.9s1,0.3,1.7,0.3c1.1,0,2-0.4,2.7-1.2c0.7-0.8,1.2-1.8,1.6-2.8C244.9,133.8,245,132.9,245,132z"/>
		<path class="st3" d="M248.4,135.4c0-0.8,0.2-1.9,0.6-3.1c0.4-1.2,1-2.3,1.9-3.2c0.9-0.9,2-1.4,3.4-1.4c1.2,0,2.2,0.4,2.8,1.2
			c0.6,0.8,0.9,2,0.9,3.4c0,0.9-0.2,1.9-0.6,3c-0.4,1.2-1,2.2-2,3c-0.9,0.9-2.1,1.3-3.5,1.3c-1.1,0-2-0.4-2.7-1.2
			C248.8,137.8,248.4,136.8,248.4,135.4z M257.1,132.4c0-1-0.2-1.9-0.7-2.6c-0.4-0.7-1.1-1.1-2.1-1.1c-1,0-1.9,0.4-2.6,1.1
			c-0.7,0.7-1.3,1.6-1.7,2.7c-0.4,1.1-0.6,2-0.6,3c0,1,0.2,1.9,0.7,2.5c0.5,0.6,1.1,0.9,1.9,0.9c1,0,1.9-0.3,2.6-1
			c0.7-0.7,1.3-1.5,1.7-2.5S257.1,133.4,257.1,132.4z"/>
		<path class="st3" d="M262.3,128.1h0.7l0,1.7h0c0.4-0.5,0.9-1,1.5-1.4c0.6-0.4,1.3-0.6,2-0.6c0.3,0,0.5,0,0.7,0.1l-0.2,1
			c-0.1,0-0.3,0-0.5,0c-0.8,0-1.5,0.2-2.1,0.5c-0.5,0.3-1,0.8-1.4,1.3c-0.4,0.6-0.7,1.2-0.8,2l-1.4,6.8h-1L262.3,128.1z"/>
		<path class="st3" d="M267.3,135.9c0-1.2,0.2-2.5,0.7-3.7c0.5-1.3,1.2-2.3,2.1-3.1c0.9-0.8,1.9-1.3,3.1-1.3c1.1,0,2.1,0.5,2.7,1.6
			h0l0.5-1.3h0.7l-2,9.3c-0.1,0.3-0.1,0.6-0.1,0.8c0,0.4,0.2,0.6,0.5,0.6c0.3,0,0.6,0,0.8,0l-0.2,0.8c-0.3,0.1-0.5,0.1-0.8,0.1
			c-0.4,0-0.7-0.1-1-0.3c-0.2-0.2-0.3-0.5-0.3-0.8c0-0.2,0-0.5,0.1-0.9h0c-1.1,1.4-2.3,2.1-3.7,2.1c-1,0-1.8-0.3-2.3-1
			C267.6,138.2,267.3,137.2,267.3,135.9z M275.7,130.4c-0.4-0.5-0.7-0.9-1.1-1.2s-0.9-0.5-1.5-0.5c-1,0-1.8,0.4-2.6,1.1
			c-0.7,0.8-1.3,1.7-1.6,2.8c-0.4,1.1-0.6,2.2-0.6,3.3c0,1.1,0.2,1.9,0.6,2.3c0.4,0.4,1,0.6,1.7,0.6c0.9,0,1.8-0.4,2.6-1.1
			c0.8-0.7,1.3-1.6,1.5-2.6L275.7,130.4z"/>
		<path class="st3" d="M279.9,137.8c0-0.4,0-0.7,0.1-0.9l1.6-7.8h-2.3l0.2-1h2.4l0.6-3.1h1l-0.6,3.1h3.1l-0.2,1h-3.1l-1.5,7.2
			c-0.1,0.4-0.1,0.8-0.1,1.1c0,0.5,0.1,0.9,0.4,1.1c0.3,0.2,0.7,0.3,1.4,0.3c0.5,0,1-0.1,1.4-0.2l-0.2,1c-0.4,0.1-0.9,0.1-1.4,0.1
			C280.8,139.8,279.9,139.1,279.9,137.8z"/>
		<path class="st3" d="M286.7,135.4c0-1.2,0.2-2.4,0.7-3.6c0.5-1.2,1.2-2.1,2.1-2.8c0.9-0.7,1.9-1.1,3.1-1.1c1,0,1.7,0.3,2.3,0.8
			s0.9,1.2,0.9,2c0,1.1-0.6,1.9-1.8,2.5c-1.2,0.6-3.1,0.9-5.6,1l-0.6,0c-0.1,0.3-0.1,0.7-0.1,1c0,1.3,0.3,2.2,0.9,2.8
			c0.6,0.6,1.5,0.9,2.7,0.9c0.8,0,1.8-0.2,2.9-0.6l-0.1,0.9c-0.8,0.5-1.8,0.7-2.9,0.7c-1.5,0-2.6-0.4-3.3-1.2
			C287.1,137.8,286.7,136.7,286.7,135.4z M294.8,130.6c0-0.5-0.2-1-0.6-1.3c-0.4-0.4-0.9-0.5-1.5-0.5c-1.2,0-2.2,0.4-3,1.3
			c-0.8,0.8-1.4,1.9-1.7,3.3c2.5-0.1,4.3-0.4,5.3-0.8C294.3,132,294.8,131.4,294.8,130.6z"/>
		<path class="st3" d="M302.3,123.2h1.1l1.6,11.7l0.4,3h0c0.1-0.4,0.4-1,0.7-1.7c0.3-0.7,2.1-5,5.4-12.9h1.4l0.4,11.7l0.1,3h0.1
			c0.3-0.8,0.8-1.7,1.3-2.8l6.2-11.8h1.2l-8.5,16.3h-1.1c-0.5-9.7-0.7-14.6-0.7-14.7h0l-1,2.3l-5.1,12.4h-1.1L302.3,123.2z"/>
		<path class="st3" d="M320.8,135.4c0-1.2,0.2-2.4,0.7-3.6c0.5-1.2,1.2-2.1,2.1-2.8c0.9-0.7,1.9-1.1,3.1-1.1c1,0,1.7,0.3,2.3,0.8
			s0.9,1.2,0.9,2c0,1.1-0.6,1.9-1.8,2.5c-1.2,0.6-3.1,0.9-5.6,1l-0.6,0c-0.1,0.3-0.1,0.7-0.1,1c0,1.3,0.3,2.2,0.9,2.8
			c0.6,0.6,1.5,0.9,2.7,0.9c0.8,0,1.8-0.2,2.9-0.6l-0.1,0.9c-0.8,0.5-1.8,0.7-2.9,0.7c-1.5,0-2.6-0.4-3.3-1.2
			C321.2,137.8,320.8,136.7,320.8,135.4z M328.9,130.6c0-0.5-0.2-1-0.6-1.3c-0.4-0.4-0.9-0.5-1.5-0.5c-1.2,0-2.2,0.4-3,1.3
			c-0.8,0.8-1.4,1.9-1.7,3.3c2.5-0.1,4.3-0.4,5.3-0.8C328.4,132,328.9,131.4,328.9,130.6z"/>
		<path class="st3" d="M331.7,136.7c0-0.3,0-0.7,0.1-1l2.9-13.7h1l-1.6,7.9h0c0.4-0.5,0.9-1,1.5-1.4c0.6-0.4,1.3-0.6,2-0.6
			c0.5,0,1.1,0.1,1.6,0.4c0.5,0.2,0.9,0.6,1.3,1.2c0.3,0.6,0.5,1.3,0.5,2.3c0,1.3-0.2,2.6-0.7,3.8c-0.4,1.2-1.1,2.3-2.1,3.1
			c-0.9,0.8-2.1,1.2-3.4,1.2c-1,0-1.7-0.3-2.3-0.8S331.7,137.6,331.7,136.7z M340,131.9c0-1-0.2-1.7-0.7-2.3
			c-0.5-0.6-1.1-0.9-1.9-0.9c-0.4,0-0.9,0.2-1.5,0.5c-0.5,0.3-1,0.8-1.5,1.3c-0.4,0.6-0.7,1.2-0.9,1.9l-0.7,3.1
			c-0.1,0.4-0.1,0.8-0.1,1.1c0,0.7,0.2,1.3,0.6,1.7c0.4,0.4,1,0.6,1.7,0.6c1.1,0,2-0.4,2.7-1.1c0.7-0.7,1.3-1.7,1.7-2.8
			C339.8,134,340,132.9,340,131.9z"/>
		<path class="st3" d="M357.7,137.1l1.9,2.4h-1.2l-1.5-1.8c-1.7,1.4-3.6,2.1-5.8,2.1c-0.9,0-1.6-0.2-2.2-0.5c-0.6-0.3-1-0.8-1.3-1.3
			s-0.4-1.1-0.4-1.7c0-1.2,0.3-2.2,0.9-3c0.6-0.8,1.7-1.6,3.3-2.5c-0.8-1-1.3-1.7-1.5-2.3c-0.2-0.6-0.4-1.1-0.4-1.7
			c0-1.2,0.4-2.2,1.3-2.9c0.8-0.8,1.9-1.1,3.3-1.1c1.1,0,1.9,0.3,2.5,0.8c0.6,0.6,0.9,1.3,0.9,2.2c0,0.9-0.2,1.6-0.6,2.3
			c-0.4,0.6-1,1.2-1.6,1.6c-0.6,0.4-1.5,0.9-2.5,1.4l4.2,5.2c0.7-0.7,1.3-1.5,1.8-2.4s0.8-1.8,0.9-2.7h1
			C360.4,133.6,359.3,135.5,357.7,137.1z M351.4,138.9c1.8,0,3.5-0.6,5-1.9l-4.4-5.4c-1.4,0.8-2.4,1.5-3,2.1
			c-0.5,0.6-0.8,1.4-0.8,2.4c0,0.9,0.3,1.6,0.8,2.1C349.6,138.7,350.4,138.9,351.4,138.9z M350.7,126.9c0,0.5,0.1,1.1,0.4,1.6
			c0.2,0.5,0.7,1.2,1.3,2c1-0.5,1.8-0.9,2.3-1.3c0.5-0.3,1-0.8,1.4-1.3c0.4-0.5,0.6-1.1,0.6-1.8c0-0.7-0.2-1.3-0.7-1.7
			c-0.5-0.4-1.1-0.6-1.9-0.6c-0.9,0-1.7,0.3-2.3,0.9C351,125.3,350.7,126,350.7,126.9z"/>
		<path class="st3" d="M365.8,138.8l0.2-1c0.4,0.3,1.1,0.6,1.8,0.8c0.8,0.2,1.6,0.3,2.4,0.3c1.6,0,2.8-0.4,3.8-1.1
			c0.9-0.7,1.4-1.7,1.4-2.9c0-0.7-0.2-1.3-0.5-1.7c-0.3-0.4-0.7-0.8-1.2-1c-0.5-0.2-1-0.4-1.7-0.6c-0.9-0.3-1.6-0.5-2.2-0.9
			c-0.6-0.3-1-0.7-1.4-1.2c-0.3-0.5-0.5-1.2-0.5-2c0-0.9,0.2-1.6,0.7-2.3c0.5-0.7,1.1-1.2,2-1.6c0.9-0.4,1.9-0.6,3.1-0.6
			c1.5,0,2.9,0.3,4.2,0.8l-0.2,1.1c-0.3-0.2-0.9-0.4-1.7-0.6c-0.8-0.2-1.6-0.3-2.3-0.3c-1.4,0-2.4,0.3-3.3,1
			c-0.8,0.7-1.3,1.6-1.3,2.6c0,0.7,0.2,1.2,0.7,1.7c0.5,0.4,1.4,0.9,2.8,1.3c0.8,0.2,1.5,0.5,2.1,0.8c0.6,0.3,1,0.8,1.4,1.3
			c0.3,0.6,0.5,1.3,0.5,2.2c0,1.5-0.6,2.7-1.8,3.7c-1.2,0.9-2.7,1.4-4.6,1.4c-0.8,0-1.7-0.1-2.5-0.3S366.4,139.1,365.8,138.8z"/>
		<path class="st3" d="M379.7,135.4c0-0.8,0.2-1.9,0.6-3.1c0.4-1.2,1-2.3,1.9-3.2c0.9-0.9,2-1.4,3.4-1.4c1.2,0,2.2,0.4,2.8,1.2
			c0.6,0.8,0.9,2,0.9,3.4c0,0.9-0.2,1.9-0.6,3c-0.4,1.2-1,2.2-2,3s-2.1,1.3-3.5,1.3c-1.1,0-2-0.4-2.7-1.2
			C380,137.8,379.7,136.8,379.7,135.4z M388.3,132.4c0-1-0.2-1.9-0.7-2.6c-0.4-0.7-1.1-1.1-2.1-1.1c-1,0-1.9,0.4-2.6,1.1
			c-0.7,0.7-1.3,1.6-1.7,2.7c-0.4,1.1-0.6,2-0.6,3c0,1,0.2,1.9,0.7,2.5c0.5,0.6,1.1,0.9,1.9,0.9c1,0,1.9-0.3,2.6-1
			c0.7-0.7,1.3-1.5,1.7-2.5S388.3,133.4,388.3,132.4z"/>
		<path class="st3" d="M386.9,145.4l0.1-0.8l1,0.1c1.1,0,1.9-0.3,2.4-1c0.6-0.6,1-1.7,1.3-3.2l2.4-11.4h-2.2l0.2-0.9h2.2l0.6-2.6
			c0.3-1.4,0.9-2.4,1.6-3.1c0.8-0.7,1.7-1,2.8-1c0.4,0,0.8,0.1,1.2,0.2l-0.2,0.8c-0.4-0.1-0.7-0.1-1.1-0.1c-0.9,0-1.6,0.3-2.2,0.8
			c-0.5,0.5-1,1.4-1.2,2.6l-0.5,2.3h3.2l-0.2,0.9h-3.2l-2.6,12.3c-0.3,1.5-0.9,2.6-1.7,3.2c-0.8,0.6-1.7,0.9-2.8,0.9
			C387.6,145.5,387.2,145.5,386.9,145.4z"/>
		<path class="st3" d="M399.2,137.8c0-0.4,0-0.7,0.1-0.9l1.6-7.8h-2.3l0.2-1h2.4l0.6-3.1h1l-0.6,3.1h3.1l-0.2,1h-3.1l-1.5,7.2
			c-0.1,0.4-0.1,0.8-0.1,1.1c0,0.5,0.1,0.9,0.4,1.1c0.3,0.2,0.7,0.3,1.4,0.3c0.5,0,1-0.1,1.4-0.2l-0.2,1c-0.4,0.1-0.9,0.1-1.4,0.1
			C400.1,139.8,399.2,139.1,399.2,137.8z"/>
		<path class="st3" d="M406.6,128.1h1l1.5,10.2h0.1c0.1-0.2,0.3-0.7,0.7-1.5l0.5-1l3.4-7.7h1.3l0.9,8l0.1,0.9l0.2,1.3h0l0.4-0.7
			l0.7-1.3l4.3-8.2h1.2l-6.2,11.4h-1.2l-0.8-6.7c-0.2-1.7-0.3-2.8-0.3-3.5h-0.1c0,0.1-0.1,0.2-0.1,0.3c0,0.1-1.6,3.4-4.6,9.9h-1.3
			L406.6,128.1z"/>
		<path class="st3" d="M423.4,135.9c0-1.2,0.2-2.5,0.7-3.7c0.5-1.3,1.2-2.3,2.1-3.1c0.9-0.8,1.9-1.3,3.1-1.3c1.1,0,2.1,0.5,2.7,1.6
			h0l0.5-1.3h0.7l-2,9.3c-0.1,0.3-0.1,0.6-0.1,0.8c0,0.4,0.2,0.6,0.5,0.6c0.3,0,0.6,0,0.8,0l-0.2,0.8c-0.3,0.1-0.5,0.1-0.8,0.1
			c-0.4,0-0.7-0.1-1-0.3c-0.2-0.2-0.3-0.5-0.3-0.8c0-0.2,0-0.5,0.1-0.9h0c-1.1,1.4-2.3,2.1-3.7,2.1c-1,0-1.8-0.3-2.3-1
			C423.7,138.2,423.4,137.2,423.4,135.9z M431.8,130.4c-0.4-0.5-0.7-0.9-1.1-1.2s-0.9-0.5-1.5-0.5c-1,0-1.8,0.4-2.6,1.1
			c-0.7,0.8-1.3,1.7-1.6,2.8c-0.4,1.1-0.6,2.2-0.6,3.3c0,1.1,0.2,1.9,0.6,2.3c0.4,0.4,1,0.6,1.7,0.6c0.9,0,1.8-0.4,2.6-1.1
			s1.3-1.6,1.5-2.6L431.8,130.4z"/>
		<path class="st3" d="M437.1,128.1h0.7l0,1.7h0c0.4-0.5,0.9-1,1.5-1.4c0.6-0.4,1.3-0.6,2-0.6c0.3,0,0.5,0,0.7,0.1l-0.2,1
			c-0.1,0-0.3,0-0.5,0c-0.8,0-1.5,0.2-2.1,0.5c-0.5,0.3-1,0.8-1.4,1.3c-0.4,0.6-0.7,1.2-0.8,2l-1.4,6.8h-1L437.1,128.1z"/>
		<path class="st3" d="M442.1,135.4c0-1.2,0.2-2.4,0.7-3.6c0.5-1.2,1.2-2.1,2.1-2.8c0.9-0.7,1.9-1.1,3.1-1.1c1,0,1.7,0.3,2.3,0.8
			s0.9,1.2,0.9,2c0,1.1-0.6,1.9-1.8,2.5c-1.2,0.6-3.1,0.9-5.6,1l-0.6,0c-0.1,0.3-0.1,0.7-0.1,1c0,1.3,0.3,2.2,0.9,2.8
			s1.5,0.9,2.7,0.9c0.8,0,1.8-0.2,2.9-0.6l-0.1,0.9c-0.8,0.5-1.8,0.7-2.9,0.7c-1.5,0-2.6-0.4-3.3-1.2
			C442.5,137.8,442.1,136.7,442.1,135.4z M450.2,130.6c0-0.5-0.2-1-0.6-1.3c-0.4-0.4-0.9-0.5-1.5-0.5c-1.2,0-2.2,0.4-3,1.3
			c-0.8,0.8-1.4,1.9-1.7,3.3c2.5-0.1,4.3-0.4,5.3-0.8C449.7,132,450.2,131.4,450.2,130.6z"/>
		<path class="st3" d="M461.1,123.2h3.4c1.6,0,2.9,0.2,3.9,0.7s1.7,1.2,2.2,2.1c0.5,0.9,0.7,2.1,0.7,3.5c0,1.9-0.4,3.6-1.2,5.1
			c-0.8,1.5-1.9,2.7-3.3,3.6s-3.1,1.3-5,1.3h-4.1L461.1,123.2z M461.8,138.6c1.8,0,3.3-0.4,4.6-1.2c1.3-0.8,2.2-1.9,2.9-3.3
			c0.7-1.4,1-2.9,1-4.5c0-1.4-0.2-2.4-0.7-3.2s-1.1-1.3-1.9-1.7c-0.8-0.4-1.8-0.5-3-0.5H462l-2.9,14.4H461.8z"/>
		<path class="st3" d="M473.4,135.4c0-1.2,0.2-2.4,0.7-3.6c0.5-1.2,1.2-2.1,2.1-2.8c0.9-0.7,1.9-1.1,3.1-1.1c1,0,1.7,0.3,2.3,0.8
			s0.9,1.2,0.9,2c0,1.1-0.6,1.9-1.8,2.5c-1.2,0.6-3.1,0.9-5.6,1l-0.6,0c-0.1,0.3-0.1,0.7-0.1,1c0,1.3,0.3,2.2,0.9,2.8
			s1.5,0.9,2.7,0.9c0.8,0,1.8-0.2,2.9-0.6l-0.1,0.9c-0.8,0.5-1.8,0.7-2.9,0.7c-1.5,0-2.6-0.4-3.3-1.2
			C473.7,137.8,473.4,136.7,473.4,135.4z M481.5,130.6c0-0.5-0.2-1-0.6-1.3c-0.4-0.4-0.9-0.5-1.5-0.5c-1.2,0-2.2,0.4-3,1.3
			c-0.8,0.8-1.4,1.9-1.7,3.3c2.5-0.1,4.3-0.4,5.3-0.8C480.9,132,481.5,131.4,481.5,130.6z"/>
		<path class="st3" d="M484.7,128.1h1l1.6,7.9l0.5,2.3h0c0.3-0.4,0.6-1,1-1.7l4.8-8.5h1.1l-6.5,11.4h-1.1L484.7,128.1z"/>
		<path class="st3" d="M495.2,135.4c0-1.2,0.2-2.4,0.7-3.6c0.5-1.2,1.2-2.1,2.1-2.8c0.9-0.7,1.9-1.1,3.1-1.1c1,0,1.7,0.3,2.3,0.8
			s0.9,1.2,0.9,2c0,1.1-0.6,1.9-1.8,2.5c-1.2,0.6-3.1,0.9-5.6,1l-0.6,0c-0.1,0.3-0.1,0.7-0.1,1c0,1.3,0.3,2.2,0.9,2.8
			s1.5,0.9,2.7,0.9c0.8,0,1.8-0.2,2.9-0.6l-0.1,0.9c-0.8,0.5-1.8,0.7-2.9,0.7c-1.5,0-2.6-0.4-3.3-1.2
			C495.5,137.8,495.2,136.7,495.2,135.4z M503.3,130.6c0-0.5-0.2-1-0.6-1.3c-0.4-0.4-0.9-0.5-1.5-0.5c-1.2,0-2.2,0.4-3,1.3
			c-0.8,0.8-1.4,1.9-1.7,3.3c2.5-0.1,4.3-0.4,5.3-0.8C502.8,132,503.3,131.4,503.3,130.6z"/>
		<path class="st3" d="M506.2,138.5c0-0.2,0-0.4,0.1-0.6l3.4-16h1l-3.3,15.6l-0.1,0.9c0,0.2,0,0.4,0.1,0.4c0.1,0.1,0.3,0.1,0.5,0.1
			l0.8,0l-0.2,0.8c-0.3,0.1-0.5,0.1-0.8,0.1c-0.5,0-0.9-0.1-1.1-0.3S506.2,139,506.2,138.5z"/>
		<path class="st3" d="M511.2,135.4c0-0.8,0.2-1.9,0.6-3.1c0.4-1.2,1-2.3,1.9-3.2c0.9-0.9,2-1.4,3.4-1.4c1.2,0,2.2,0.4,2.8,1.2
			c0.6,0.8,0.9,2,0.9,3.4c0,0.9-0.2,1.9-0.6,3c-0.4,1.2-1,2.2-2,3s-2.1,1.3-3.5,1.3c-1.1,0-2-0.4-2.7-1.2
			C511.5,137.8,511.2,136.8,511.2,135.4z M519.8,132.4c0-1-0.2-1.9-0.7-2.6c-0.4-0.7-1.1-1.1-2.1-1.1c-1,0-1.9,0.4-2.6,1.1
			c-0.7,0.7-1.3,1.6-1.7,2.7c-0.4,1.1-0.6,2-0.6,3c0,1,0.2,1.9,0.7,2.5c0.5,0.6,1.1,0.9,1.9,0.9c1,0,1.9-0.3,2.6-1
			c0.7-0.7,1.3-1.5,1.7-2.5S519.8,133.4,519.8,132.4z"/>
		<path class="st3" d="M525.2,128.1h0.7v1.7h0c0.5-0.7,1-1.2,1.7-1.5c0.6-0.3,1.3-0.5,1.9-0.5c1.1,0,2,0.3,2.5,1
			c0.6,0.7,0.9,1.7,0.9,3c0,1.3-0.2,2.5-0.7,3.7s-1.1,2.2-2,3c-0.9,0.8-1.9,1.2-3.1,1.2c-1.3,0-2.4-0.4-3.1-1.2h0l-1.4,6.6h-0.9
			L525.2,128.1z M531.9,132c0-1.2-0.2-2-0.7-2.5s-1.1-0.8-1.8-0.8c-0.9,0-1.7,0.4-2.6,1.2c-0.8,0.8-1.3,1.7-1.6,2.7l-1,5.1
			c0.4,0.4,0.8,0.7,1.2,0.9s1,0.3,1.7,0.3c1.1,0,2-0.4,2.7-1.2s1.2-1.8,1.6-2.8C531.7,133.8,531.9,132.9,531.9,132z"/>
		<path class="st3" d="M537.4,128.1h0.7l0,1.7h0c0.5-0.6,1.1-1.1,1.8-1.4c0.7-0.4,1.4-0.5,2.2-0.5c0.8,0,1.5,0.2,2,0.7
			c0.5,0.4,0.8,1,0.8,1.7v0.1h0c0.5-0.9,1.2-1.5,2-1.9c0.8-0.4,1.6-0.6,2.4-0.6c0.8,0,1.4,0.2,1.9,0.7c0.5,0.4,0.7,1.1,0.7,1.9
			c0,0.6-0.1,1.3-0.3,2.2l-1.4,7h-1l1.6-7.5c0.1-0.5,0.1-0.9,0.1-1.3c0-0.7-0.2-1.2-0.5-1.5c-0.4-0.3-0.8-0.5-1.3-0.5
			c-1,0-2,0.4-2.9,1.2c-0.9,0.8-1.5,1.8-1.7,3l-1.4,6.6h-1l1.6-7.5c0.1-0.5,0.1-0.9,0.1-1.3c0-1.3-0.6-2-1.9-2
			c-0.6,0-1.3,0.2-1.9,0.5c-0.6,0.3-1.2,0.8-1.6,1.3s-0.8,1.3-1,2.1l-1.5,6.9h-1L537.4,128.1z"/>
		<path class="st3" d="M554.4,135.4c0-1.2,0.2-2.4,0.7-3.6c0.5-1.2,1.2-2.1,2.1-2.8c0.9-0.7,1.9-1.1,3.1-1.1c1,0,1.7,0.3,2.3,0.8
			s0.9,1.2,0.9,2c0,1.1-0.6,1.9-1.8,2.5c-1.2,0.6-3.1,0.9-5.6,1l-0.6,0c-0.1,0.3-0.1,0.7-0.1,1c0,1.3,0.3,2.2,0.9,2.8
			c0.6,0.6,1.5,0.9,2.7,0.9c0.8,0,1.8-0.2,2.9-0.6l-0.1,0.9c-0.8,0.5-1.8,0.7-2.9,0.7c-1.5,0-2.6-0.4-3.3-1.2
			S554.4,136.7,554.4,135.4z M562.5,130.6c0-0.5-0.2-1-0.6-1.3c-0.4-0.4-0.9-0.5-1.5-0.5c-1.2,0-2.2,0.4-3,1.3
			c-0.8,0.8-1.4,1.9-1.7,3.3c2.5-0.1,4.3-0.4,5.3-0.8C562,132,562.5,131.4,562.5,130.6z"/>
		<path class="st3" d="M567.3,128.1h0.7l0,1.7h0c0.6-0.7,1.2-1.2,1.9-1.5c0.7-0.3,1.5-0.5,2.3-0.5c0.9,0,1.6,0.2,2.1,0.7
			c0.5,0.4,0.8,1.1,0.8,1.9c0,0.3,0,0.7-0.1,1.2s-0.6,3.1-1.6,8h-1l1.5-7.2c0.1-0.7,0.2-1.3,0.2-1.7c0-0.7-0.2-1.2-0.6-1.4
			c-0.4-0.3-1-0.4-1.7-0.4c-1.5,0-2.7,0.7-3.8,2.1c-0.4,0.5-0.7,1.1-0.8,1.9l-1.4,6.8h-1L567.3,128.1z"/>
		<path class="st3" d="M578.6,137.8c0-0.4,0-0.7,0.1-0.9l1.6-7.8H578l0.2-1h2.4l0.6-3.1h1l-0.6,3.1h3.1l-0.2,1h-3.1l-1.5,7.2
			c-0.1,0.4-0.1,0.8-0.1,1.1c0,0.5,0.1,0.9,0.4,1.1c0.3,0.2,0.7,0.3,1.4,0.3c0.5,0,1-0.1,1.4-0.2l-0.2,1c-0.4,0.1-0.9,0.1-1.4,0.1
			C579.5,139.8,578.6,139.1,578.6,137.8z"/>
	</g>
</g>
</svg>
