<?xml version="1.0" encoding="utf-8"?>
<!-- Generator: Adobe Illustrator 27.7.0, SVG Export Plug-In . SVG Version: 6.00 Build 0)  -->
<svg version="1.1" id="Layer_1" xmlns="http://www.w3.org/2000/svg" xmlns:xlink="http://www.w3.org/1999/xlink" x="0px" y="0px"
	 viewBox="0 0 500 293" style="enable-background:new 0 0 500 293;" xml:space="preserve">
<style type="text/css">
	.st0{fill:none;stroke:#56B0E9;stroke-width:8;stroke-miterlimit:10;}
</style>
<path id="matogen-logo-abbreviated" class="st0" d="M460,11.9L159.9,48.4c-25.3,3.2-57.6,25.9-71.7,50.3l-67.6,143
	c-14.1,24.5-4.9,41.8,20.3,38.6L340.6,243c15.5-1.9,33.5-11.2,48.4-23.7h-73.1l-7.9-15.4l37.8-77.7l-6.8-13.3h-34.9l-19.9,13.4
	L244,209.1l-15.3,10.3h-35.5l-7.9-15.4l38-77.7l-37.8,77.6l37.8-77.7l-6.8-13.4H112.3l9.2-18.7c4.8-9.4,14.1-15.6,24.7-16.6h268.1
	c9.2,0,13.1,7.5,8.6,16.7l-53.2,108.9H405c2.7-3.3,5.2-6.9,7.4-10.6l68-142.2C494.5,26,485.3,8.6,460,11.9z M165,130.6l-38.6,78.7
	l-15.3,10.3H75.9l-8.1-15.7l35.8-73.3L165,130.6z"/>
</svg>
