<svg xmlns="http://www.w3.org/2000/svg" width="157.26" height="89.512" viewBox="0 0 157.26 89.512">
  <path id="matogen-logo-abbreviated" d="M148.278,99.125,48.514,111.269c-8.414,1.077-19.147,8.6-23.832,16.722L2.206,175.539c-4.7,8.134-1.642,13.9,6.763,12.839L108.6,175.946c5.14-.647,11.138-3.739,16.1-7.873h-24.31l-2.618-5.114,12.558-25.828-2.27-4.425H96.469l-6.618,4.453L76.471,164.69l-5.1,3.429h-11.8l-2.627-5.13,12.617-25.832L57,162.962l12.558-25.813-2.27-4.441H32.691l3.052-6.2a10.215,10.215,0,0,1,8.2-5.506h89.128c3.073,0,4.338,2.483,2.85,5.545l-17.69,36.214h11.757a28.264,28.264,0,0,0,2.453-3.526l22.61-47.259C159.752,103.83,156.693,98.033,148.278,99.125ZM50.234,138.608l-12.839,26.17-5.071,3.41H20.6l-2.676-5.226,11.9-24.36Z" transform="translate(0 -98.993)" fill="#56b0e9"/>
</svg>
