<?xml version="1.0" encoding="utf-8"?>
<!-- Generator: Adobe Illustrator 27.8.1, SVG Export Plug-In . SVG Version: 6.00 Build 0)  -->
<svg version="1.1" id="Layer_1" xmlns="http://www.w3.org/2000/svg" xmlns:xlink="http://www.w3.org/1999/xlink" x="0px" y="0px"
	 viewBox="0 0 793 130" style="enable-background:new 0 0 793 130;" xml:space="preserve">
<style type="text/css">
	.st0{fill:#27A8E0;}
	.st1{enable-background:new    ;}
	.st2{fill:#FFFFFF;}
</style>
<g id="Logo" transform="translate(-198.05 -312.063)">
	<path id="Path_397" class="st0" d="M559.5,367.8h-65c-2.6,0.2-4.9,1.8-6.1,4.2l-13.9,29.4c-0.6,1.1,0,2.1,1,2.1h10.8
		c1.3-0.1,2.5-0.9,3-2.1l5.4-11.5h43.3l-5.4,11.5c-0.6,1.1,0,2.1,1,2.1h10.8c1.3-0.1,2.5-0.9,3-2.1l13.9-29.4
		C562.7,369.7,561.7,367.8,559.5,367.8z M543.3,379.1c-0.7,1.4-2,2.3-3.5,2.5h-38.6c-1.3,0-1.8-1.1-1.2-2.5c0.7-1.4,2-2.3,3.5-2.4
		h38.6C543.4,376.7,543.9,377.8,543.3,379.1L543.3,379.1z"/>
	<path id="Path_398" class="st0" d="M398.9,315.9l-131.5,16.6c-11.1,1.4-25.2,11.7-31.4,22.8l-29.6,64.9c-6.2,11.1-2.2,19,8.9,17.5
		l131.4-17c6.8-0.9,14.7-5.1,21.2-10.7h-32l-3.4-7l16.6-35.2l-3-6h-15.3l-8.7,6.1l-17.6,37.6l-6.7,4.6H282l-3.4-7l16.7-35.2
		l-16.6,35.2l16.6-35.2l-3-6.1h-45.6l4-8.5c2.1-4.2,6.2-7.1,10.8-7.5h117.5c4.1,0,5.7,3.4,3.8,7.5l-23.6,49.4h15.5
		c1.2-1.5,2.2-3.1,3.2-4.8l29.8-64.5C414.1,322.4,410,314.5,398.9,315.9z M269.6,369.8l-16.9,35.7l-6.6,4.6h-15.5l-3.5-7.1
		l15.7-33.2H269.6z"/>
	<path id="Path_399" class="st0" d="M572.9,367.8l-4.2,8.9h29.5l-11.4,24.2l1.3,2.6h9.8l3.8-2.6l11.4-24.3h29.4l4.2-8.9L572.9,367.8
		z"/>
	<path id="Path_400" class="st0" d="M716.2,367.8h-54.1c-3.8,0.3-7.3,2.7-9.1,6.2l-7.1,15.1c-3.8,7.9-0.6,14.3,7,14.3H707
		c3.8-0.3,7.3-2.7,9.1-6.3l7.1-15.1C726.9,374.2,723.8,367.8,716.2,367.8z M707.9,383l-3.9,8.3c-1,1.9-2.8,3.1-4.8,3.4h-34.8
		c-3.4,0-4.8-2.8-3.1-6.3l3.9-8.3c1-1.9,2.8-3.2,4.8-3.4h34.8C708.2,376.7,709.5,379.5,707.9,383L707.9,383z"/>
	<path id="Path_401" class="st0" d="M750.4,376.7h59.3l2.2-4.6c1.1-2.3,0.2-4.2-2.1-4.2h-66.1c-2.6,0.2-4.9,1.8-6.1,4.2l-2.2,4.6
		l-8.6,17.9l-2.2,4.6c-1.1,2.3-0.2,4.2,2.1,4.2h51.2c2.6-0.2,4.9-1.8,6.1-4.2l-1.9,4.2H797l6.4-13.6l3.9-8.3h-30.1l-3.9,8.3h15.2
		l-2.2,4.7h-41.3c-1.8,0-2.4-1.4-1.6-3.1L750.4,376.7z"/>
	<path id="Path_402" class="st0" d="M886.9,381.5h-55.2c-1.3,0-1.8-1.1-1.2-2.5c0.7-1.4,2-2.3,3.5-2.4h58.2l2.7-5.7
		c0.8-1.8,0.2-3.1-1.6-3.1h-66c-2.6,0.2-4.9,1.8-6,4.2l-10.7,22.4c-2.3,5-0.3,9.1,4.5,9.1h64.4l2.7-5.8c0.8-1.8,0.2-3.1-1.6-3.1
		h-55.3c-1.3,0-1.8-1-1.2-2.4c0.6-1.4,2-2.2,3.4-2.4H886l2.5-5.2C889.2,383,888.6,381.5,886.9,381.5z"/>
	<path id="Path_403" class="st0" d="M964.8,367.8l-10.4,22.1l-27.2-22.1h-20.4l-16.8,35.7h14.9l12.1-25.6l31,25.6h14.9l16.8-35.7
		H964.8z"/>
	<path id="Path_404" class="st0" d="M478.2,367.4h-67c-2.6,0.2-5,1.8-6.2,4.3l-2.2,4.8h26l1.8,3.4l0,0l-9.5,20.1l2,4h8.9l3.8-2.6
		l10.1-21.4l5-3.4h8.7l1.7,3.4l-9.5,20.1l2,3.9h8.9l3.8-2.6l13.9-29.6C481.4,369.4,480.6,367.4,478.2,367.4z"/>
	<path id="Path_405" class="st0" d="M391.7,400l2,4.1h8.8l3.8-2.6l10.1-21.5h-15.3L391.7,400z"/>
</g>
<g class="st1">
	<path class="st2" d="M222.4,35.1c0.6-1.5,1.9-4.2,3.8-8.3l2.9-5.9h4.1l-3.5,19.4h-3.1l1.8-9.2c0.3-1.5,0.7-3.4,1.1-5.5h-0.1
		c-0.8,2-2.4,5.5-4.8,10.4l-2.2,4.4h-2l-1.3-10.5c-0.2-1.4-0.3-2.8-0.5-4.3h-0.1c-0.1,1.4-0.3,3.1-0.7,5.1l-1.7,9.7h-3.1l3.5-19.4
		h3.9l0.8,5.4C221.7,28.6,222,31.6,222.4,35.1L222.4,35.1z"/>
	<path class="st2" d="M244,37c0,0.3,0.1,0.4,0.2,0.6c0.1,0.1,0.3,0.2,0.5,0.2c0.2,0,0.5,0,0.9-0.1l-0.5,2.8c-0.5,0.1-1,0.2-1.5,0.2
		c-0.7,0-1.2-0.2-1.6-0.6c-0.4-0.4-0.6-0.9-0.7-1.6h-0.1c-0.6,0.8-1.2,1.4-1.9,1.8s-1.3,0.5-1.9,0.5c-0.5,0-1-0.1-1.5-0.3
		s-0.8-0.6-1.1-1c-0.3-0.4-0.5-0.9-0.7-1.5c-0.2-0.6-0.2-1.3-0.2-2c0-0.8,0.1-1.6,0.2-2.4s0.3-1.6,0.5-2.3c0.2-0.7,0.5-1.4,0.8-2.1
		c0.3-0.6,0.7-1.2,1.1-1.7s0.9-0.8,1.5-1.1c0.5-0.3,1.1-0.4,1.7-0.4c0.6,0,1.1,0.1,1.6,0.4s1,0.7,1.4,1.3h0l0.4-1.4h2.5l-1.8,9.8
		c0,0.2-0.1,0.4-0.1,0.5C244,36.8,244,36.9,244,37z M242.2,29.9c-0.1-0.1-0.2-0.3-0.3-0.4c-0.1-0.1-0.3-0.2-0.4-0.3
		s-0.3-0.2-0.5-0.3c-0.2-0.1-0.4-0.1-0.6-0.1c-0.4,0-0.7,0.1-1.1,0.3c-0.3,0.2-0.6,0.5-0.9,0.9c-0.3,0.4-0.5,0.8-0.7,1.2
		c-0.2,0.5-0.3,1-0.5,1.5s-0.2,1-0.3,1.5c-0.1,0.5-0.1,0.9-0.1,1.4c0,0.8,0.1,1.4,0.3,1.8c0.2,0.4,0.5,0.6,1,0.6s0.9-0.2,1.3-0.5
		c0.4-0.3,0.8-0.8,1.1-1.4c0.2-0.4,0.4-0.8,0.6-1.3c0.2-0.5,0.3-1.1,0.4-1.7L242.2,29.9z"/>
	<path class="st2" d="M256.2,29.1h-3.2l-1.2,6.8c0,0.2-0.1,0.4-0.1,0.6c0,0.2,0,0.3,0,0.4c0,0.4,0.1,0.6,0.3,0.7s0.5,0.2,0.9,0.2
		c0.3,0,0.6,0,1.1-0.1c0.4-0.1,0.8-0.2,1.2-0.3l-0.5,2.9c-0.4,0.1-0.8,0.2-1.3,0.3c-0.5,0.1-0.9,0.1-1.3,0.1c-0.6,0-1.1-0.1-1.5-0.2
		c-0.4-0.1-0.8-0.3-1-0.6c-0.3-0.3-0.5-0.6-0.6-1c-0.1-0.4-0.2-0.8-0.2-1.3c0-0.2,0-0.4,0-0.6c0-0.2,0.1-0.5,0.1-0.8l1.3-7.1h-2.3
		l0.5-2.8h2.3l0.7-3.9h3l-0.7,3.9h3.2L256.2,29.1z"/>
	<path class="st2" d="M264.1,26c0.7,0,1.4,0.1,1.9,0.3c0.6,0.2,1.1,0.6,1.5,1c0.4,0.4,0.7,1,1,1.7c0.2,0.7,0.3,1.5,0.3,2.3
		c0,1.2-0.1,2.4-0.4,3.6c-0.3,1.1-0.7,2.1-1.3,3c-0.6,0.9-1.3,1.6-2.1,2.1c-0.9,0.5-1.8,0.8-3,0.8c-0.7,0-1.4-0.1-1.9-0.3
		c-0.6-0.2-1.1-0.6-1.5-1c-0.4-0.4-0.7-1-1-1.7c-0.2-0.7-0.3-1.5-0.3-2.3c0-1.2,0.1-2.4,0.4-3.6c0.3-1.1,0.7-2.1,1.3-3
		c0.6-0.9,1.3-1.6,2.1-2.1C262,26.2,263,26,264.1,26z M263.9,28.8c-0.4,0-0.8,0.1-1.1,0.3s-0.6,0.4-0.9,0.8
		c-0.3,0.3-0.5,0.7-0.7,1.1s-0.4,0.9-0.5,1.4c-0.1,0.5-0.2,1-0.3,1.5c-0.1,0.5-0.1,1-0.1,1.5c0,0.8,0.2,1.4,0.5,1.9
		c0.3,0.5,0.8,0.7,1.5,0.7c0.4,0,0.8-0.1,1.1-0.3c0.3-0.2,0.6-0.4,0.9-0.8s0.5-0.7,0.7-1.1c0.2-0.4,0.4-0.9,0.5-1.4s0.2-1,0.3-1.5
		s0.1-1,0.1-1.5c0-0.8-0.2-1.4-0.5-1.9C265.1,29,264.6,28.8,263.9,28.8z"/>
	<path class="st2" d="M277.2,38.8c-0.4,0.6-0.9,1.1-1.5,1.4c-0.6,0.3-1.1,0.5-1.8,0.5c-0.5,0-1-0.1-1.5-0.3s-0.8-0.6-1.1-1
		c-0.3-0.4-0.5-0.9-0.7-1.5c-0.2-0.6-0.2-1.3-0.2-2c0-0.8,0.1-1.6,0.2-2.4c0.1-0.8,0.3-1.6,0.5-2.3c0.2-0.7,0.5-1.4,0.8-2.1
		c0.3-0.6,0.7-1.2,1.1-1.7s0.9-0.8,1.5-1.1c0.5-0.3,1.1-0.4,1.8-0.4c0.6,0,1.1,0.1,1.6,0.4c0.5,0.3,1,0.7,1.4,1.3h0.1l0.4-1.4h2.5
		l-2.5,14.2c-0.2,1.2-0.5,2.2-0.9,3.1c-0.4,0.9-0.9,1.6-1.5,2.2c-0.6,0.6-1.3,1-2.1,1.3c-0.8,0.3-1.7,0.4-2.7,0.4
		c-0.7,0-1.4-0.1-2.1-0.2c-0.7-0.1-1.4-0.3-2-0.6l0.5-2.8c0.5,0.2,1.1,0.4,1.6,0.6c0.6,0.2,1.2,0.2,1.8,0.2c0.7,0,1.3-0.1,1.8-0.3
		s0.9-0.5,1.3-0.9c0.4-0.4,0.6-0.9,0.9-1.5c0.2-0.6,0.4-1.3,0.6-2.1C277.1,39.4,277.2,39.1,277.2,38.8L277.2,38.8z M278.8,29.9
		c-0.1-0.1-0.2-0.3-0.3-0.4c-0.1-0.1-0.3-0.2-0.4-0.3c-0.2-0.1-0.3-0.2-0.5-0.3c-0.2-0.1-0.4-0.1-0.6-0.1c-0.4,0-0.8,0.1-1.1,0.3
		c-0.3,0.2-0.6,0.5-0.9,0.9c-0.3,0.4-0.5,0.8-0.7,1.2s-0.3,1-0.5,1.5s-0.2,1-0.3,1.5c-0.1,0.5-0.1,0.9-0.1,1.4
		c0,0.8,0.1,1.4,0.3,1.8c0.2,0.4,0.5,0.6,1,0.6c0.4,0,0.8-0.1,1.2-0.4c0.4-0.3,0.8-0.7,1.1-1.2c0.5-0.8,0.9-1.9,1.1-3.2L278.8,29.9z
		"/>
	<path class="st2" d="M294.7,29.8c0,0.8-0.2,1.5-0.5,2.1c-0.3,0.6-0.8,1.2-1.5,1.6c-0.6,0.4-1.4,0.8-2.4,1s-2,0.3-3.3,0.3
		c-0.1,0-0.3,0-0.5,0v0.1c0,0.5,0.1,1,0.2,1.3c0.1,0.4,0.3,0.7,0.6,0.9s0.5,0.4,0.9,0.5c0.4,0.1,0.7,0.2,1.2,0.2
		c0.7,0,1.3-0.1,2.1-0.3c0.7-0.2,1.3-0.4,1.9-0.7l-0.5,3c-0.5,0.2-1.1,0.4-1.8,0.6s-1.4,0.2-2.1,0.2c-0.9,0-1.7-0.1-2.3-0.4
		c-0.7-0.3-1.2-0.7-1.6-1.2c-0.4-0.5-0.7-1.1-1-1.8c-0.2-0.7-0.3-1.5-0.3-2.3c0-0.7,0.1-1.5,0.2-2.2c0.1-0.7,0.3-1.4,0.6-2.1
		c0.3-0.7,0.6-1.3,1-1.9s0.8-1.1,1.3-1.5c0.5-0.4,1.1-0.8,1.7-1c0.6-0.2,1.3-0.4,2-0.4c0.6,0,1.2,0.1,1.7,0.3c0.5,0.2,1,0.4,1.3,0.8
		s0.6,0.7,0.8,1.2C294.6,28.7,294.7,29.2,294.7,29.8z M291.7,29.8c0-0.3-0.1-0.6-0.3-0.8c-0.2-0.2-0.5-0.3-1-0.3
		c-0.3,0-0.7,0.1-1,0.2c-0.3,0.2-0.7,0.4-1,0.7c-0.3,0.3-0.6,0.7-0.8,1.1c-0.2,0.4-0.4,0.9-0.6,1.5c0.9,0,1.6-0.1,2.2-0.2
		s1.1-0.3,1.5-0.5s0.6-0.5,0.8-0.8C291.6,30.4,291.7,30.1,291.7,29.8z"/>
	<path class="st2" d="M298.6,40.4h-3l2.5-14h2.5v1.8h0c0.2-0.3,0.4-0.5,0.7-0.8c0.3-0.3,0.6-0.5,0.9-0.7c0.3-0.2,0.7-0.3,1.1-0.5
		c0.4-0.1,0.8-0.2,1.2-0.2c0.5,0,0.9,0.1,1.3,0.2s0.8,0.4,1.1,0.7c0.3,0.3,0.6,0.7,0.8,1.1c0.2,0.4,0.3,1,0.3,1.5
		c0,0.4,0,0.8-0.1,1.2c-0.1,0.4-0.1,0.9-0.2,1.3l-1.5,8.3h-3l1.5-8.6c0.1-0.3,0.1-0.6,0.1-0.8c0-0.2,0-0.4,0-0.6
		c0-0.5-0.1-0.9-0.4-1.1c-0.2-0.3-0.6-0.4-1.1-0.4c-0.6,0-1.2,0.2-1.7,0.6s-1,0.9-1.3,1.6c-0.1,0.1-0.1,0.3-0.2,0.4
		c-0.1,0.1-0.1,0.3-0.2,0.5c-0.1,0.2-0.1,0.4-0.2,0.6s-0.1,0.5-0.2,0.8L298.6,40.4z"/>
	<path class="st2" d="M324.3,35.4h-5.9l-2.3,4.9h-3.4L322,21h2.9l3.4,19.4h-3.1L324.3,35.4z M319.7,32.4h4.1l-0.3-2.1
		c-0.3-1.7-0.5-3.2-0.7-4.7h-0.1c-0.6,1.5-1.2,3-1.9,4.5L319.7,32.4z"/>
	<path class="st2" d="M339.1,26c0.5,0,1,0.1,1.4,0.4s0.8,0.6,1.1,1c0.3,0.4,0.6,1,0.7,1.6c0.2,0.6,0.3,1.3,0.3,2.1
		c0,0.7-0.1,1.5-0.2,2.3c-0.1,0.8-0.3,1.5-0.6,2.2c-0.2,0.7-0.5,1.4-0.9,2c-0.4,0.6-0.8,1.2-1.2,1.6c-0.5,0.5-1,0.8-1.6,1.1
		c-0.6,0.3-1.2,0.4-1.9,0.4c-0.5,0-1-0.1-1.5-0.3s-0.8-0.4-1.1-0.7h0l-1.3,7.4h-3l3.7-20.8h2.5v1.8h0c0.2-0.3,0.4-0.5,0.6-0.8
		c0.2-0.3,0.5-0.5,0.8-0.7s0.6-0.4,0.9-0.5C338.3,26,338.7,26,339.1,26z M334.1,37.1c0.2,0.2,0.5,0.4,0.8,0.6c0.3,0.2,0.7,0.2,1,0.2
		c0.4,0,0.7-0.1,1.1-0.3s0.6-0.5,0.9-0.8c0.3-0.3,0.5-0.7,0.7-1.2c0.2-0.4,0.4-0.9,0.5-1.4c0.1-0.5,0.3-1,0.3-1.6
		c0.1-0.5,0.1-1.1,0.1-1.6c0-0.7-0.1-1.3-0.3-1.7c-0.2-0.4-0.6-0.6-1.1-0.6c-0.4,0-0.9,0.2-1.3,0.5s-0.9,0.8-1.2,1.5
		c-0.2,0.4-0.4,0.8-0.6,1.3c-0.2,0.5-0.3,1.1-0.4,1.7L334.1,37.1z"/>
	<path class="st2" d="M352.2,26c0.5,0,1,0.1,1.4,0.4s0.8,0.6,1.1,1c0.3,0.4,0.6,1,0.7,1.6c0.2,0.6,0.3,1.3,0.3,2.1
		c0,0.7-0.1,1.5-0.2,2.3c-0.1,0.8-0.3,1.5-0.6,2.2c-0.2,0.7-0.5,1.4-0.9,2c-0.4,0.6-0.8,1.2-1.2,1.6c-0.5,0.5-1,0.8-1.6,1.1
		c-0.6,0.3-1.2,0.4-1.9,0.4c-0.5,0-1-0.1-1.5-0.3s-0.8-0.4-1.1-0.7h0l-1.3,7.4h-3l3.7-20.8h2.5v1.8h0c0.2-0.3,0.4-0.5,0.6-0.8
		c0.2-0.3,0.5-0.5,0.8-0.7s0.6-0.4,0.9-0.5C351.4,26,351.8,26,352.2,26z M347.2,37.1c0.2,0.2,0.5,0.4,0.8,0.6c0.3,0.2,0.7,0.2,1,0.2
		c0.4,0,0.7-0.1,1.1-0.3s0.6-0.5,0.9-0.8c0.3-0.3,0.5-0.7,0.7-1.2c0.2-0.4,0.4-0.9,0.5-1.4c0.1-0.5,0.3-1,0.3-1.6
		c0.1-0.5,0.1-1.1,0.1-1.6c0-0.7-0.1-1.3-0.3-1.7c-0.2-0.4-0.6-0.6-1.1-0.6c-0.4,0-0.9,0.2-1.3,0.5s-0.9,0.8-1.2,1.5
		c-0.2,0.4-0.4,0.8-0.6,1.3c-0.2,0.5-0.3,1.1-0.4,1.7L347.2,37.1z"/>
	<path class="st2" d="M360.4,19.4h3l-3,16.7c-0.1,0.4-0.1,0.7-0.1,0.8c0,0.3,0.1,0.5,0.2,0.6c0.1,0.1,0.4,0.2,0.6,0.2
		c0.3,0,0.6,0,0.9-0.1l-0.5,2.9c-0.2,0-0.4,0.1-0.7,0.1c-0.3,0-0.6,0.1-0.9,0.1c-0.9,0-1.6-0.2-2-0.7c-0.4-0.5-0.7-1.1-0.7-2
		c0-0.5,0.1-1,0.2-1.6L360.4,19.4z"/>
	<path class="st2" d="M363.8,40.4l2.5-14h3l-2.5,14H363.8z M366.9,23.1l0.7-3.7h3.1l-0.7,3.7H366.9z"/>
	<path class="st2" d="M381.6,29.8c0,0.8-0.2,1.5-0.5,2.1c-0.3,0.6-0.8,1.2-1.5,1.6c-0.6,0.4-1.4,0.8-2.4,1s-2,0.3-3.3,0.3
		c-0.1,0-0.3,0-0.5,0v0.1c0,0.5,0.1,1,0.2,1.3c0.1,0.4,0.3,0.7,0.6,0.9s0.5,0.4,0.9,0.5c0.4,0.1,0.7,0.2,1.2,0.2
		c0.7,0,1.3-0.1,2.1-0.3c0.7-0.2,1.3-0.4,1.9-0.7l-0.5,3c-0.5,0.2-1.1,0.4-1.8,0.6s-1.4,0.2-2.1,0.2c-0.9,0-1.7-0.1-2.3-0.4
		c-0.7-0.3-1.2-0.7-1.6-1.2c-0.4-0.5-0.7-1.1-1-1.8c-0.2-0.7-0.3-1.5-0.3-2.3c0-0.7,0.1-1.5,0.2-2.2c0.1-0.7,0.3-1.4,0.6-2.1
		c0.3-0.7,0.6-1.3,1-1.9s0.8-1.1,1.3-1.5c0.5-0.4,1.1-0.8,1.7-1c0.6-0.2,1.3-0.4,2-0.4c0.6,0,1.2,0.1,1.7,0.3c0.5,0.2,1,0.4,1.3,0.8
		s0.6,0.7,0.8,1.2C381.5,28.7,381.6,29.2,381.6,29.8z M378.6,29.8c0-0.3-0.1-0.6-0.3-0.8c-0.2-0.2-0.5-0.3-1-0.3
		c-0.3,0-0.7,0.1-1,0.2c-0.3,0.2-0.7,0.4-1,0.7c-0.3,0.3-0.6,0.7-0.8,1.1c-0.2,0.4-0.4,0.9-0.6,1.5c0.9,0,1.6-0.1,2.2-0.2
		s1.1-0.3,1.5-0.5s0.6-0.5,0.8-0.8C378.5,30.4,378.6,30.1,378.6,29.8z"/>
	<path class="st2" d="M393,37c0,0.2,0.1,0.4,0.2,0.5c0.1,0.1,0.3,0.2,0.5,0.2c0.2,0,0.5,0,0.9-0.1l-0.5,2.8
		c-0.2,0.1-0.5,0.1-0.8,0.1c-0.3,0-0.5,0.1-0.7,0.1c-0.7,0-1.2-0.2-1.6-0.6c-0.4-0.4-0.6-0.9-0.7-1.6h-0.1c-0.6,0.8-1.2,1.4-1.9,1.8
		s-1.3,0.5-1.9,0.5c-0.5,0-1-0.1-1.5-0.3s-0.8-0.6-1.1-1c-0.3-0.4-0.5-0.9-0.7-1.5c-0.2-0.6-0.2-1.3-0.2-2c0-0.8,0.1-1.6,0.2-2.4
		c0.1-0.8,0.3-1.6,0.5-2.3c0.2-0.7,0.5-1.4,0.8-2.1c0.3-0.6,0.7-1.2,1.1-1.7c0.4-0.5,0.9-0.8,1.4-1.1c0.5-0.3,1.1-0.4,1.7-0.4
		s1.1,0.1,1.6,0.4s0.9,0.7,1.3,1.3h0.1l1.5-8.3h3l-3,16.7c0,0.2-0.1,0.4-0.1,0.5C393,36.8,393,36.9,393,37z M391.2,29.9
		c-0.1-0.1-0.2-0.3-0.3-0.4c-0.1-0.1-0.3-0.3-0.4-0.4c-0.2-0.1-0.3-0.2-0.5-0.3c-0.2-0.1-0.4-0.1-0.6-0.1c-0.4,0-0.7,0.1-1.1,0.3
		c-0.3,0.2-0.6,0.5-0.9,0.9s-0.5,0.8-0.7,1.2c-0.2,0.5-0.3,1-0.5,1.5s-0.2,1-0.3,1.5c-0.1,0.5-0.1,0.9-0.1,1.4
		c0,0.8,0.1,1.4,0.3,1.8c0.2,0.4,0.5,0.6,1,0.6c0.5,0,0.9-0.2,1.4-0.6s0.9-0.9,1.2-1.6c0.4-0.7,0.7-1.6,0.9-2.7L391.2,29.9z"/>
	<path class="st2" d="M401.8,40.4l3.5-19.4h3.1l-3.5,19.4H401.8z"/>
	<path class="st2" d="M411.5,40.4h-3l2.5-14h2.5v1.8h0c0.2-0.3,0.4-0.5,0.7-0.8c0.3-0.3,0.6-0.5,0.9-0.7c0.3-0.2,0.7-0.3,1.1-0.5
		c0.4-0.1,0.8-0.2,1.2-0.2c0.5,0,0.9,0.1,1.3,0.2s0.8,0.4,1.1,0.7c0.3,0.3,0.6,0.7,0.8,1.1c0.2,0.4,0.3,1,0.3,1.5
		c0,0.4,0,0.8-0.1,1.2c-0.1,0.4-0.1,0.9-0.2,1.3l-1.5,8.3h-3l1.5-8.6c0.1-0.3,0.1-0.6,0.1-0.8c0-0.2,0-0.4,0-0.6
		c0-0.5-0.1-0.9-0.4-1.1c-0.2-0.3-0.6-0.4-1.1-0.4c-0.6,0-1.2,0.2-1.7,0.6s-1,0.9-1.3,1.6c-0.1,0.1-0.1,0.3-0.2,0.4
		c-0.1,0.1-0.1,0.3-0.2,0.5c-0.1,0.2-0.1,0.4-0.2,0.6s-0.1,0.5-0.2,0.8L411.5,40.4z"/>
	<path class="st2" d="M428.6,36.1c0-0.3-0.1-0.5-0.2-0.7c-0.2-0.2-0.4-0.3-0.6-0.5s-0.5-0.3-0.9-0.4c-0.3-0.1-0.6-0.2-1-0.4
		c-0.3-0.1-0.6-0.3-0.9-0.5s-0.5-0.4-0.8-0.7s-0.4-0.6-0.5-1s-0.2-0.8-0.2-1.4c0-0.8,0.1-1.5,0.4-2.1c0.3-0.6,0.6-1.1,1-1.4
		s0.9-0.7,1.5-0.9c0.6-0.2,1.2-0.3,1.8-0.3c0.4,0,0.7,0,1.1,0.1c0.4,0.1,0.7,0.1,1.1,0.2c0.3,0.1,0.7,0.2,1,0.3
		c0.3,0.1,0.6,0.3,0.9,0.4l-0.5,2.7c-0.6-0.3-1.2-0.5-1.8-0.7c-0.6-0.2-1.2-0.2-1.7-0.2c-0.6,0-1,0.1-1.3,0.4
		c-0.3,0.3-0.5,0.6-0.5,1.1c0,0.3,0.1,0.5,0.2,0.7c0.1,0.2,0.3,0.3,0.5,0.5c0.2,0.1,0.4,0.3,0.7,0.4c0.2,0.1,0.5,0.2,0.8,0.3
		c0.3,0.1,0.7,0.3,1,0.5s0.7,0.4,1,0.7c0.3,0.3,0.5,0.6,0.7,1.1c0.2,0.4,0.3,0.9,0.3,1.6c0,0.8-0.1,1.5-0.4,2.1
		c-0.3,0.6-0.6,1.1-1.1,1.5c-0.5,0.4-1.1,0.7-1.7,0.9c-0.7,0.2-1.4,0.3-2.2,0.3c-0.5,0-0.9,0-1.3-0.1s-0.8-0.1-1.1-0.2
		c-0.3-0.1-0.6-0.2-0.9-0.3c-0.2-0.1-0.4-0.2-0.6-0.3l0.5-2.7c0.6,0.3,1.1,0.4,1.7,0.6s1.1,0.2,1.7,0.2c0.8,0,1.5-0.2,1.9-0.5
		S428.6,36.7,428.6,36.1z"/>
	<path class="st2" d="M433.1,40.4l2.5-14h3l-2.5,14H433.1z M436.2,23.1l0.7-3.7h3.1l-0.7,3.7H436.2z"/>
	<path class="st2" d="M446.6,38.8c-0.4,0.6-0.9,1.1-1.5,1.4c-0.6,0.3-1.1,0.5-1.8,0.5c-0.5,0-1-0.1-1.5-0.3s-0.8-0.6-1.1-1
		c-0.3-0.4-0.5-0.9-0.7-1.5c-0.2-0.6-0.2-1.3-0.2-2c0-0.8,0.1-1.6,0.2-2.4c0.1-0.8,0.3-1.6,0.5-2.3c0.2-0.7,0.5-1.4,0.8-2.1
		c0.3-0.6,0.7-1.2,1.1-1.7s0.9-0.8,1.5-1.1c0.5-0.3,1.1-0.4,1.8-0.4c0.6,0,1.1,0.1,1.6,0.4c0.5,0.3,1,0.7,1.4,1.3h0.1l0.4-1.4h2.5
		l-2.5,14.2c-0.2,1.2-0.5,2.2-0.9,3.1c-0.4,0.9-0.9,1.6-1.5,2.2c-0.6,0.6-1.3,1-2.1,1.3c-0.8,0.3-1.7,0.4-2.7,0.4
		c-0.7,0-1.4-0.1-2.1-0.2c-0.7-0.1-1.4-0.3-2-0.6l0.5-2.8c0.5,0.2,1.1,0.4,1.6,0.6c0.6,0.2,1.2,0.2,1.8,0.2c0.7,0,1.3-0.1,1.8-0.3
		s0.9-0.5,1.3-0.9c0.4-0.4,0.6-0.9,0.9-1.5c0.2-0.6,0.4-1.3,0.6-2.1C446.5,39.4,446.6,39.1,446.6,38.8L446.6,38.8z M448.2,29.9
		c-0.1-0.1-0.2-0.3-0.3-0.4c-0.1-0.1-0.3-0.2-0.4-0.3c-0.2-0.1-0.3-0.2-0.5-0.3c-0.2-0.1-0.4-0.1-0.6-0.1c-0.4,0-0.8,0.1-1.1,0.3
		c-0.3,0.2-0.6,0.5-0.9,0.9c-0.3,0.4-0.5,0.8-0.7,1.2s-0.3,1-0.5,1.5s-0.2,1-0.3,1.5c-0.1,0.5-0.1,0.9-0.1,1.4
		c0,0.8,0.1,1.4,0.3,1.8c0.2,0.4,0.5,0.6,1,0.6c0.4,0,0.8-0.1,1.2-0.4c0.4-0.3,0.8-0.7,1.1-1.2c0.5-0.8,0.9-1.9,1.1-3.2L448.2,29.9z
		"/>
	<path class="st2" d="M462,31.8c0-0.3,0.1-0.6,0.1-0.8c0-0.2,0-0.4,0-0.6c0-0.5-0.1-0.9-0.4-1.1c-0.2-0.3-0.6-0.4-1.1-0.4
		c-0.6,0-1.2,0.2-1.7,0.6s-1,0.9-1.3,1.6c-0.1,0.1-0.1,0.3-0.2,0.4s-0.1,0.3-0.2,0.5c-0.1,0.2-0.1,0.4-0.2,0.6S457,33,457,33.4
		l-1.3,7h-3l3.8-21h3l-1.2,6.6c-0.1,0.6-0.3,1.3-0.5,2.1h0.1c0.2-0.3,0.4-0.5,0.7-0.8c0.3-0.3,0.6-0.5,0.9-0.7
		c0.3-0.2,0.7-0.3,1.1-0.5c0.4-0.1,0.8-0.2,1.2-0.2c0.5,0,0.9,0.1,1.3,0.2c0.4,0.2,0.8,0.4,1.1,0.7c0.3,0.3,0.6,0.7,0.8,1.1
		c0.2,0.4,0.3,1,0.3,1.5c0,0.4,0,0.8-0.1,1.2c-0.1,0.4-0.1,0.9-0.2,1.3l-1.5,8.3h-3L462,31.8z"/>
	<path class="st2" d="M475.5,29.1h-3.2l-1.2,6.8c0,0.2-0.1,0.4-0.1,0.6c0,0.2,0,0.3,0,0.4c0,0.4,0.1,0.6,0.3,0.7s0.5,0.2,0.9,0.2
		c0.3,0,0.6,0,1.1-0.1c0.4-0.1,0.8-0.2,1.2-0.3l-0.5,2.9c-0.4,0.1-0.8,0.2-1.3,0.3c-0.5,0.1-0.9,0.1-1.3,0.1c-0.6,0-1.1-0.1-1.5-0.2
		c-0.4-0.1-0.8-0.3-1-0.6c-0.3-0.3-0.5-0.6-0.6-1c-0.1-0.4-0.2-0.8-0.2-1.3c0-0.2,0-0.4,0-0.6c0-0.2,0.1-0.5,0.1-0.8l1.3-7.1h-2.3
		l0.5-2.8h2.3l0.7-3.9h3l-0.7,3.9h3.2L475.5,29.1z"/>
	<path class="st2" d="M482.3,36.1c0-0.3-0.1-0.5-0.2-0.7c-0.2-0.2-0.4-0.3-0.6-0.5s-0.5-0.3-0.9-0.4c-0.3-0.1-0.6-0.2-1-0.4
		c-0.3-0.1-0.6-0.3-0.9-0.5s-0.5-0.4-0.8-0.7s-0.4-0.6-0.5-1s-0.2-0.8-0.2-1.4c0-0.8,0.1-1.5,0.4-2.1c0.3-0.6,0.6-1.1,1-1.4
		s0.9-0.7,1.5-0.9c0.6-0.2,1.2-0.3,1.8-0.3c0.4,0,0.7,0,1.1,0.1c0.4,0.1,0.7,0.1,1.1,0.2c0.3,0.1,0.7,0.2,1,0.3
		c0.3,0.1,0.6,0.3,0.9,0.4l-0.5,2.7c-0.6-0.3-1.2-0.5-1.8-0.7c-0.6-0.2-1.2-0.2-1.7-0.2c-0.6,0-1,0.1-1.3,0.4
		c-0.3,0.3-0.5,0.6-0.5,1.1c0,0.3,0.1,0.5,0.2,0.7c0.1,0.2,0.3,0.3,0.5,0.5c0.2,0.1,0.4,0.3,0.7,0.4c0.2,0.1,0.5,0.2,0.8,0.3
		c0.3,0.1,0.7,0.3,1,0.5s0.7,0.4,1,0.7c0.3,0.3,0.5,0.6,0.7,1.1c0.2,0.4,0.3,0.9,0.3,1.6c0,0.8-0.1,1.5-0.4,2.1
		c-0.3,0.6-0.6,1.1-1.1,1.5c-0.5,0.4-1.1,0.7-1.7,0.9c-0.7,0.2-1.4,0.3-2.2,0.3c-0.5,0-0.9,0-1.3-0.1s-0.8-0.1-1.1-0.2
		c-0.3-0.1-0.6-0.2-0.9-0.3c-0.2-0.1-0.4-0.2-0.6-0.3l0.5-2.7c0.6,0.3,1.1,0.4,1.7,0.6s1.1,0.2,1.7,0.2c0.8,0,1.5-0.2,1.9-0.5
		S482.3,36.7,482.3,36.1z"/>
	<path class="st2" d="M495.9,45.2c-0.3-0.3-0.6-0.7-1-1.3s-0.7-1.2-0.9-1.9c-0.3-0.7-0.5-1.6-0.7-2.6s-0.3-2-0.3-3.2
		c0-1.8,0.2-3.4,0.5-5c0.4-1.6,0.8-3,1.5-4.4c0.6-1.3,1.3-2.6,2.1-3.7c0.8-1.1,1.6-2,2.5-2.8l1.4,1.8c-0.8,0.8-1.5,1.8-2.2,2.8
		s-1.2,2.1-1.7,3.3c-0.5,1.2-0.8,2.5-1.1,3.9c-0.3,1.4-0.4,2.9-0.4,4.4c0,1.4,0.2,2.7,0.5,3.8s0.7,2.1,1.3,2.9L495.9,45.2z"/>
	<path class="st2" d="M503.2,40.4h-3.1l3.5-19.4h4.2c1.6,0,2.8,0.2,3.6,0.5c1,0.4,1.7,1,2.2,1.8c0.5,0.8,0.7,1.7,0.7,2.7
		c0,1-0.2,1.9-0.5,2.8c-0.3,0.8-0.9,1.6-1.5,2.2c-0.7,0.6-1.5,1.1-2.5,1.4c-1,0.3-2.1,0.5-3.4,0.5c-0.6,0-1.3,0-1.9-0.1L503.2,40.4z
		 M505.1,29.7c0.4,0.1,0.9,0.1,1.5,0.1c0.8,0,1.5-0.1,2.1-0.3c0.6-0.2,1.1-0.4,1.5-0.8c0.4-0.3,0.7-0.7,0.9-1.2
		c0.2-0.5,0.3-1,0.3-1.5c0-0.5-0.1-0.8-0.3-1.1c-0.2-0.3-0.5-0.5-0.8-0.7c-0.2-0.1-0.5-0.2-0.8-0.2c-0.3,0-0.8-0.1-1.3-0.1h-1.9
		L505.1,29.7z"/>
	<path class="st2" d="M524,29.1h-3.2l-1.2,6.8c0,0.2-0.1,0.4-0.1,0.6c0,0.2,0,0.3,0,0.4c0,0.4,0.1,0.6,0.3,0.7
		c0.2,0.1,0.5,0.2,0.9,0.2c0.3,0,0.6,0,1.1-0.1c0.4-0.1,0.8-0.2,1.2-0.3l-0.5,2.9c-0.4,0.1-0.8,0.2-1.3,0.3
		c-0.5,0.1-0.9,0.1-1.3,0.1c-0.6,0-1.1-0.1-1.5-0.2c-0.4-0.1-0.8-0.3-1-0.6c-0.3-0.3-0.5-0.6-0.6-1c-0.1-0.4-0.2-0.8-0.2-1.3
		c0-0.2,0-0.4,0-0.6c0-0.2,0.1-0.5,0.1-0.8l1.3-7.1h-2.3l0.5-2.8h2.3l0.7-3.9h3l-0.7,3.9h3.2L524,29.1z"/>
	<path class="st2" d="M525.2,26.3h3l1.1,6.2c0.2,1.4,0.4,2.6,0.6,3.7h0.1c0.5-1.1,1-2.3,1.6-3.5l3-6.4h3.3l-7.1,14.5
		c-0.5,1-1,1.9-1.4,2.7c-0.5,0.8-1,1.5-1.6,2.1c-0.6,0.6-1.2,1-1.9,1.4s-1.5,0.5-2.3,0.5c-0.6,0-1.2-0.1-1.6-0.2l0.5-2.7
		c0.3,0.1,0.6,0.1,1,0.1c0.5,0,0.9-0.1,1.3-0.3c0.4-0.2,0.8-0.5,1.1-0.8s0.7-0.8,1-1.4c0.3-0.6,0.7-1.2,1-2L525.2,26.3z"/>
	<path class="st2" d="M540.6,20.4c0.3,0.3,0.6,0.7,1,1.3c0.3,0.5,0.7,1.2,0.9,1.9c0.3,0.7,0.5,1.6,0.7,2.6c0.2,1,0.3,2,0.3,3.2
		c0,1.8-0.2,3.4-0.5,5c-0.4,1.6-0.8,3-1.5,4.4s-1.3,2.6-2.1,3.7c-0.8,1.1-1.6,2-2.5,2.8l-1.4-1.8c0.8-0.8,1.5-1.8,2.2-2.8
		s1.2-2.1,1.7-3.3c0.5-1.2,0.8-2.5,1.1-3.9c0.3-1.4,0.4-2.9,0.4-4.4c0-1.4-0.2-2.7-0.5-3.8s-0.7-2.1-1.3-2.9L540.6,20.4z"/>
	<path class="st2" d="M554.1,37.4h7.9l-0.5,3h-11l3.5-19.4h3.1L554.1,37.4z"/>
	<path class="st2" d="M572.8,29.1h-3.2l-1.2,6.8c0,0.2-0.1,0.4-0.1,0.6c0,0.2,0,0.3,0,0.4c0,0.4,0.1,0.6,0.3,0.7
		c0.2,0.1,0.5,0.2,0.9,0.2c0.3,0,0.6,0,1.1-0.1c0.4-0.1,0.8-0.2,1.2-0.3l-0.5,2.9c-0.4,0.1-0.8,0.2-1.3,0.3
		c-0.5,0.1-0.9,0.1-1.3,0.1c-0.6,0-1.1-0.1-1.5-0.2c-0.4-0.1-0.8-0.3-1-0.6c-0.3-0.3-0.5-0.6-0.6-1c-0.1-0.4-0.2-0.8-0.2-1.3
		c0-0.2,0-0.4,0-0.6c0-0.2,0.1-0.5,0.1-0.8l1.3-7.1h-2.3l0.5-2.8h2.3l0.7-3.9h3l-0.7,3.9h3.2L572.8,29.1z"/>
	<path class="st2" d="M583.9,37c0,0.2,0.1,0.4,0.2,0.5c0.1,0.1,0.3,0.2,0.5,0.2c0.2,0,0.5,0,0.9-0.1l-0.5,2.8
		c-0.2,0.1-0.5,0.1-0.8,0.1c-0.3,0-0.5,0.1-0.7,0.1c-0.7,0-1.2-0.2-1.6-0.6c-0.4-0.4-0.6-0.9-0.7-1.6h0c-0.6,0.8-1.2,1.4-1.9,1.8
		c-0.7,0.4-1.3,0.5-1.9,0.5c-0.5,0-1-0.1-1.5-0.3c-0.4-0.2-0.8-0.6-1.1-1s-0.5-0.9-0.7-1.5c-0.2-0.6-0.2-1.3-0.2-2
		c0-0.8,0.1-1.6,0.2-2.4c0.1-0.8,0.3-1.6,0.5-2.3c0.2-0.7,0.5-1.4,0.8-2.1c0.3-0.6,0.7-1.2,1.1-1.7c0.4-0.5,0.9-0.8,1.4-1.1
		c0.5-0.3,1.1-0.4,1.7-0.4c0.6,0,1.1,0.1,1.6,0.4s0.9,0.7,1.3,1.3h0l1.5-8.3h3l-3,16.7c0,0.2-0.1,0.4-0.1,0.5
		C583.9,36.8,583.9,36.9,583.9,37z M582.2,29.9c-0.1-0.1-0.2-0.3-0.3-0.4c-0.1-0.1-0.3-0.3-0.4-0.4c-0.2-0.1-0.3-0.2-0.5-0.3
		c-0.2-0.1-0.4-0.1-0.6-0.1c-0.4,0-0.8,0.1-1.1,0.3c-0.3,0.2-0.6,0.5-0.9,0.9c-0.3,0.4-0.5,0.8-0.7,1.2c-0.2,0.5-0.3,1-0.5,1.5
		s-0.2,1-0.3,1.5c-0.1,0.5-0.1,0.9-0.1,1.4c0,0.8,0.1,1.4,0.3,1.8c0.2,0.4,0.5,0.6,1,0.6c0.5,0,0.9-0.2,1.4-0.6s0.9-0.9,1.2-1.6
		c0.4-0.7,0.7-1.6,0.9-2.7L582.2,29.9z"/>
</g>
<g class="st1">
	<path class="st2" d="M598.6,40.6l0.2-1.2c0.5,0.4,1.1,0.7,1.9,0.9c0.8,0.2,1.6,0.3,2.5,0.3c1.6,0,2.9-0.4,3.9-1.3
		c1-0.9,1.4-2,1.4-3.5c0-0.8-0.2-1.5-0.5-2s-0.8-0.9-1.2-1.2c-0.5-0.3-1.1-0.5-1.8-0.7c-0.9-0.3-1.7-0.6-2.2-1
		c-0.6-0.4-1.1-0.9-1.4-1.5c-0.3-0.6-0.5-1.4-0.5-2.3c0-1,0.2-1.9,0.7-2.8c0.5-0.8,1.1-1.5,2-1.9s1.9-0.7,3.1-0.7c1.6,0,3,0.3,4.2,1
		l-0.2,1.3c-0.3-0.3-0.9-0.5-1.7-0.8c-0.8-0.2-1.6-0.3-2.3-0.3c-1.4,0-2.5,0.4-3.4,1.2S602,26,602,27.3c0,0.8,0.2,1.5,0.7,2
		c0.5,0.5,1.4,1,2.8,1.5c0.9,0.3,1.6,0.6,2.2,1s1,0.9,1.4,1.6c0.4,0.7,0.5,1.5,0.5,2.6c0,1.8-0.6,3.2-1.8,4.3
		c-1.2,1.1-2.8,1.6-4.7,1.6c-0.9,0-1.7-0.1-2.5-0.3C599.8,41.3,599.1,41,598.6,40.6z"/>
	<path class="st2" d="M612.7,36.6c0-1,0.2-2.2,0.6-3.6s1.1-2.7,2-3.8s2.1-1.6,3.5-1.6c1.3,0,2.2,0.5,2.9,1.4c0.6,1,1,2.3,1,4.1
		c0,1-0.2,2.2-0.6,3.6s-1.1,2.6-2,3.6c-0.9,1-2.1,1.5-3.5,1.5c-1.1,0-2.1-0.5-2.7-1.4C613,39.5,612.7,38.2,612.7,36.6z M621.5,33
		c0-1.2-0.2-2.3-0.7-3.1c-0.4-0.8-1.2-1.3-2.1-1.3c-1,0-1.9,0.4-2.7,1.3c-0.8,0.9-1.3,1.9-1.7,3.2c-0.4,1.2-0.6,2.4-0.6,3.5
		c0,1.2,0.2,2.2,0.7,3c0.5,0.7,1.1,1.1,2,1.1c1,0,1.9-0.4,2.7-1.2c0.8-0.8,1.3-1.8,1.7-3C621.3,35.4,621.5,34.2,621.5,33z"/>
	<path class="st2" d="M625,40.3c0-0.2,0-0.5,0.1-0.8l3.4-19h1L626.2,39l-0.1,1c0,0.3,0,0.4,0.1,0.5s0.3,0.1,0.5,0.1l0.8-0.1l-0.2,1
		c-0.3,0.1-0.5,0.1-0.8,0.1c-0.5,0-0.9-0.1-1.2-0.3C625.1,41.1,625,40.8,625,40.3z"/>
	<path class="st2" d="M630.7,28h1l1.7,9.3l0.5,2.8h0c0.3-0.5,0.6-1.1,1-2l4.9-10.1h1.2l-6.7,13.5h-1.2L630.7,28z"/>
	<path class="st2" d="M641.2,41.5l2.4-13.5h1l-2.4,13.5H641.2z M644.1,24.8l0.2-1.3h1l-0.2,1.3H644.1z"/>
	<path class="st2" d="M648.3,28h0.7l0,2h0c0.6-0.8,1.3-1.4,2-1.8c0.7-0.4,1.5-0.5,2.4-0.5c0.9,0,1.7,0.3,2.2,0.8
		c0.5,0.5,0.8,1.3,0.8,2.3c0,0.4,0,0.9-0.1,1.4c-0.1,0.5-0.6,3.7-1.7,9.4h-1l1.5-8.5c0.1-0.8,0.2-1.5,0.2-2.1c0-0.8-0.2-1.4-0.6-1.7
		s-1-0.5-1.7-0.5c-1.5,0-2.8,0.8-3.9,2.4c-0.4,0.6-0.7,1.4-0.8,2.3l-1.5,8.1h-1L648.3,28z"/>
	<path class="st2" d="M657.6,47.9l0.2-1.2c1,0.4,2,0.7,3,0.7c1.6,0,2.8-0.4,3.5-1.3c0.8-0.9,1.4-2.4,1.8-4.7l0.4-2h0
		c-0.6,0.9-1.3,1.6-2,1.9c-0.7,0.3-1.4,0.5-2,0.5c-1.1,0-1.9-0.4-2.5-1.2s-0.9-1.9-0.9-3.3c0-1.6,0.3-3.1,0.8-4.6
		c0.5-1.5,1.3-2.7,2.2-3.7c1-1,2-1.4,3.3-1.4s2.1,0.6,2.7,1.7h0l0.6-1.4h0.7l-2.5,14.4c-0.4,2.3-1.1,3.9-2.3,4.8
		c-1.1,0.9-2.4,1.4-4,1.4c-0.6,0-1.1-0.1-1.5-0.2C658.7,48.3,658.2,48.1,657.6,47.9z M667.9,30.6c-0.4-0.6-0.8-1.1-1.2-1.4
		c-0.4-0.4-1-0.5-1.6-0.5c-1,0-1.8,0.5-2.6,1.4s-1.3,2.1-1.7,3.4c-0.4,1.3-0.6,2.5-0.6,3.6c0,2.5,0.8,3.7,2.3,3.7
		c0.6,0,1.2-0.2,1.9-0.7c0.7-0.4,1.2-1,1.7-1.8c0.5-0.7,0.8-1.5,0.9-2.3L667.9,30.6z"/>
	<path class="st2" d="M671.6,48.4l0.1-1l1,0.1c1.1,0,1.9-0.4,2.5-1.1c0.6-0.8,1-2,1.4-3.8l2.4-13.5h-2.3l0.2-1h2.2l0.6-3
		c0.3-1.7,0.9-2.9,1.7-3.7c0.8-0.8,1.7-1.2,2.9-1.2c0.4,0,0.8,0.1,1.2,0.2l-0.2,1c-0.4-0.1-0.7-0.1-1.1-0.1c-0.9,0-1.7,0.3-2.2,0.9
		c-0.6,0.6-1,1.7-1.3,3.1l-0.6,2.8h3.3l-0.2,1H680l-2.6,14.6c-0.3,1.8-0.9,3.1-1.7,3.8c-0.8,0.7-1.8,1.1-2.9,1.1
		C672.3,48.5,671.9,48.5,671.6,48.4z"/>
	<path class="st2" d="M683.2,36.6c0-1,0.2-2.2,0.6-3.6s1.1-2.7,2-3.8s2.1-1.6,3.5-1.6c1.3,0,2.2,0.5,2.9,1.4c0.6,1,1,2.3,1,4.1
		c0,1-0.2,2.2-0.6,3.6s-1.1,2.6-2,3.6c-0.9,1-2.1,1.5-3.5,1.5c-1.1,0-2.1-0.5-2.7-1.4C683.5,39.5,683.2,38.2,683.2,36.6z M692,33
		c0-1.2-0.2-2.3-0.7-3.1c-0.4-0.8-1.2-1.3-2.1-1.3c-1,0-1.9,0.4-2.7,1.3c-0.8,0.9-1.3,1.9-1.7,3.2c-0.4,1.2-0.6,2.4-0.6,3.5
		c0,1.2,0.2,2.2,0.7,3c0.5,0.7,1.1,1.1,2,1.1c1,0,1.9-0.4,2.7-1.2c0.8-0.8,1.3-1.8,1.7-3C691.8,35.4,692,34.2,692,33z"/>
	<path class="st2" d="M697.4,28h0.8l0,2h0c0.4-0.6,0.9-1.2,1.6-1.6c0.7-0.5,1.3-0.7,2.1-0.7c0.3,0,0.6,0,0.7,0.1l-0.2,1.2
		c-0.1,0-0.3-0.1-0.5-0.1c-0.9,0-1.6,0.2-2.1,0.6c-0.5,0.4-1,0.9-1.4,1.6c-0.4,0.7-0.7,1.5-0.9,2.4l-1.4,8.1h-1L697.4,28z"/>
	<path class="st2" d="M705.9,40.6l0.2-1.2c0.5,0.4,1.1,0.7,1.9,0.9c0.8,0.2,1.6,0.3,2.5,0.3c1.6,0,2.9-0.4,3.9-1.3
		c1-0.9,1.4-2,1.4-3.5c0-0.8-0.2-1.5-0.5-2s-0.8-0.9-1.2-1.2c-0.5-0.3-1.1-0.5-1.8-0.7c-0.9-0.3-1.7-0.6-2.2-1
		c-0.6-0.4-1.1-0.9-1.4-1.5c-0.3-0.6-0.5-1.4-0.5-2.3c0-1,0.2-1.9,0.7-2.8c0.5-0.8,1.1-1.5,2-1.9s1.9-0.7,3.1-0.7c1.6,0,3,0.3,4.2,1
		l-0.2,1.3c-0.3-0.3-0.9-0.5-1.7-0.8c-0.8-0.2-1.6-0.3-2.3-0.3c-1.4,0-2.5,0.4-3.4,1.2s-1.3,1.9-1.3,3.1c0,0.8,0.2,1.5,0.7,2
		c0.5,0.5,1.4,1,2.8,1.5c0.9,0.3,1.6,0.6,2.2,1s1,0.9,1.4,1.6c0.4,0.7,0.5,1.5,0.5,2.6c0,1.8-0.6,3.2-1.8,4.3
		c-1.2,1.1-2.8,1.6-4.7,1.6c-0.9,0-1.7-0.1-2.5-0.3C707.2,41.3,706.5,41,705.9,40.6z"/>
	<path class="st2" d="M720.5,38.2c0-0.6,0-1.1,0.1-1.5l1.6-8.7h1l-1.6,8.8c-0.1,0.4-0.1,0.8-0.1,1.3c0,0.8,0.2,1.5,0.7,2
		c0.4,0.5,1.1,0.8,2.1,0.8c1.1,0,2-0.4,2.6-1.1c0.6-0.7,1-1.8,1.3-3.1l1.5-8.6h1l-1.5,8.5c-0.3,2-0.9,3.3-1.7,4.2s-1.8,1.2-3.2,1.2
		C721.7,41.8,720.5,40.6,720.5,38.2z"/>
	<path class="st2" d="M732.2,36.7c0-1.4,0.2-2.8,0.7-4.2c0.4-1.4,1.1-2.6,2-3.5c0.9-0.9,2-1.4,3.3-1.4c1.1,0,2,0.3,2.9,0.8l-0.2,1
		c-0.4-0.2-0.8-0.4-1.3-0.5c-0.5-0.1-1-0.2-1.4-0.2c-1.1,0-2,0.4-2.8,1.3c-0.7,0.9-1.3,1.9-1.6,3.1c-0.3,1.2-0.5,2.4-0.5,3.5
		c0,1.5,0.3,2.6,0.8,3.2s1.4,1,2.4,1c0.6,0,1.1-0.1,1.7-0.3s0.9-0.3,1.1-0.5l-0.2,1c-0.3,0.2-0.6,0.4-1.2,0.6s-1,0.2-1.5,0.2
		c-1.3,0-2.3-0.4-3.1-1.3S732.2,38.4,732.2,36.7z"/>
	<path class="st2" d="M742.1,36.7c0-1.4,0.2-2.8,0.7-4.2c0.4-1.4,1.1-2.6,2-3.5c0.9-0.9,2-1.4,3.3-1.4c1.1,0,2,0.3,2.9,0.8l-0.2,1
		c-0.4-0.2-0.8-0.4-1.3-0.5c-0.5-0.1-1-0.2-1.4-0.2c-1.1,0-2,0.4-2.8,1.3c-0.7,0.9-1.3,1.9-1.6,3.1c-0.3,1.2-0.5,2.4-0.5,3.5
		c0,1.5,0.3,2.6,0.8,3.2s1.4,1,2.4,1c0.6,0,1.1-0.1,1.7-0.3s0.9-0.3,1.1-0.5l-0.2,1c-0.3,0.2-0.6,0.4-1.2,0.6s-1,0.2-1.5,0.2
		c-1.3,0-2.3-0.4-3.1-1.3S742.1,38.4,742.1,36.7z"/>
	<path class="st2" d="M752.2,36.5c0-1.4,0.2-2.9,0.7-4.2c0.5-1.4,1.2-2.5,2.1-3.4c0.9-0.9,2-1.3,3.2-1.3c1,0,1.8,0.3,2.4,0.9
		s0.9,1.4,0.9,2.4c0,1.3-0.6,2.3-1.9,3c-1.3,0.7-3.2,1.1-5.7,1.2l-0.6,0c-0.1,0.4-0.1,0.8-0.1,1.2c0,1.5,0.3,2.6,0.9,3.4
		c0.6,0.7,1.5,1.1,2.8,1.1c0.9,0,1.8-0.3,2.9-0.8l-0.1,1c-0.9,0.5-1.8,0.8-3,0.8c-1.5,0-2.7-0.5-3.4-1.4
		C752.6,39.4,752.2,38.2,752.2,36.5z M760.5,30.9c0-0.6-0.2-1.1-0.6-1.6c-0.4-0.4-0.9-0.6-1.6-0.6c-1.2,0-2.2,0.5-3.1,1.5
		s-1.4,2.3-1.8,3.9c2.6-0.1,4.4-0.4,5.5-1C760,32.6,760.5,31.8,760.5,30.9z"/>
	<path class="st2" d="M762.6,40.9l0.2-1.2c1,0.7,1.9,1,2.9,1c1.4,0,2.4-0.3,2.8-1c0.4-0.7,0.6-1.4,0.6-2c0-0.6-0.1-1.1-0.3-1.4
		c-0.2-0.4-0.5-0.6-0.8-0.8c-0.3-0.2-0.8-0.4-1.4-0.6c-0.6-0.2-1-0.5-1.3-0.7c-0.3-0.2-0.6-0.5-0.8-0.9s-0.3-0.9-0.3-1.6
		c0-1.2,0.4-2.2,1.1-3c0.7-0.7,1.6-1.1,2.8-1.1c0.6,0,1.2,0.1,1.8,0.3c0.6,0.2,1,0.4,1.4,0.6l-0.2,1.1c-0.5-0.3-1-0.5-1.4-0.7
		s-0.9-0.2-1.3-0.2c-0.9,0-1.6,0.3-2.2,0.8s-0.8,1.2-0.8,2.1c0,0.6,0.2,1.1,0.4,1.5c0.3,0.3,0.7,0.6,1.3,0.8
		c0.7,0.3,1.3,0.5,1.7,0.7c0.4,0.2,0.8,0.5,1.1,1c0.3,0.5,0.5,1.1,0.5,1.8c0,1.6-0.4,2.7-1.2,3.4c-0.8,0.7-1.9,1.1-3.3,1.1
		c-0.4,0-1-0.1-1.6-0.2S762.9,41.3,762.6,40.9z"/>
	<path class="st2" d="M772.3,40.9l0.2-1.2c1,0.7,1.9,1,2.9,1c1.4,0,2.4-0.3,2.8-1c0.4-0.7,0.6-1.4,0.6-2c0-0.6-0.1-1.1-0.3-1.4
		c-0.2-0.4-0.5-0.6-0.8-0.8c-0.3-0.2-0.8-0.4-1.4-0.6c-0.6-0.2-1-0.5-1.3-0.7c-0.3-0.2-0.6-0.5-0.8-0.9s-0.3-0.9-0.3-1.6
		c0-1.2,0.4-2.2,1.1-3c0.7-0.7,1.6-1.1,2.8-1.1c0.6,0,1.2,0.1,1.8,0.3c0.6,0.2,1,0.4,1.4,0.6l-0.2,1.1c-0.5-0.3-1-0.5-1.4-0.7
		s-0.9-0.2-1.3-0.2c-0.9,0-1.6,0.3-2.2,0.8s-0.8,1.2-0.8,2.1c0,0.6,0.2,1.1,0.4,1.5c0.3,0.3,0.7,0.6,1.3,0.8
		c0.7,0.3,1.3,0.5,1.7,0.7c0.4,0.2,0.8,0.5,1.1,1c0.3,0.5,0.5,1.1,0.5,1.8c0,1.6-0.4,2.7-1.2,3.4c-0.8,0.7-1.9,1.1-3.3,1.1
		c-0.4,0-1-0.1-1.6-0.2S772.6,41.3,772.3,40.9z"/>
</g>
</svg>
