<?xml version="1.0" encoding="utf-8"?>
<!-- Generator: Adobe Illustrator 27.7.0, SVG Export Plug-In . SVG Version: 6.00 Build 0)  -->
<svg version="1.1" id="Layer_1" xmlns="http://www.w3.org/2000/svg" xmlns:xlink="http://www.w3.org/1999/xlink" x="0px" y="0px"
	 viewBox="0 0 170.3 33.3" style="enable-background:new 0 0 170.3 33.3;" xml:space="preserve">
<style type="text/css">
	.st0{fill:#FFFFFF;}
</style>
<g id="Matogen_Base" transform="translate(-543 -399.745)">
	<g id="logo" transform="translate(543 300.752)">
		<path id="Path_397" class="st0" d="M85,115.2H72.1c-0.5,0-1,0.3-1.2,0.8l-2.8,5.6c-0.1,0.2,0,0.4,0.2,0.4h2.1
			c0.3,0,0.5-0.2,0.6-0.4l1.1-2.2h8.6l-1.1,2.2c-0.1,0.2,0,0.4,0.2,0.4H82c0.3,0,0.5-0.2,0.6-0.4l2.8-5.6
			C85.6,115.5,85.4,115.2,85,115.2z M81.8,117.3c-0.1,0.3-0.4,0.4-0.7,0.5h-7.7c-0.3,0-0.3-0.2-0.2-0.5c0.1-0.3,0.4-0.4,0.7-0.5h7.7
			C81.8,116.9,81.9,117.1,81.8,117.3L81.8,117.3z"/>
		<path id="Path_398" class="st0" d="M54.6,99l-36,4.4c-3,0.4-6.9,3.1-8.6,6l-8.1,17.2c-1.7,2.9-0.6,5,2.4,4.6l36-4.5
			c1.9-0.2,4-1.4,5.8-2.8h-8.8l-0.9-1.8l4.5-9.3l-0.8-1.6h-4.2l-2.4,1.6l-4.8,9.9l-1.8,1.2h-4.3l-0.9-1.9l4.6-9.3l-4.5,9.3l4.5-9.3
			l-0.8-1.6H12.9l1.1-2.2c0.6-1.1,1.7-1.9,3-2h32.2c1.1,0,1.6,0.9,1,2L43.8,122H48c0.3-0.4,0.6-0.8,0.9-1.3l8.2-17.1
			C58.7,100.7,57.6,98.6,54.6,99z M19.2,113.3l-4.6,9.4l-1.8,1.2H8.5l-1-1.9l4.3-8.8L19.2,113.3z"/>
		<path id="Path_399" class="st0" d="M87.6,115.2l-0.8,1.7h5.9l-2.3,4.6l0.3,0.5h2l0.7-0.5l2.3-4.7h5.8l0.8-1.7L87.6,115.2z"/>
		<path id="Path_400" class="st0" d="M116.1,115.2h-10.7c-0.8,0.1-1.4,0.5-1.8,1.2l-1.4,2.9c-0.7,1.5-0.1,2.7,1.4,2.7h10.7
			c0.8-0.1,1.4-0.5,1.8-1.2l1.4-2.9C118.3,116.4,117.6,115.2,116.1,115.2z M114.5,118.1l-0.8,1.6c-0.2,0.4-0.6,0.6-1,0.6h-6.9
			c-0.7,0-0.9-0.5-0.6-1.2l0.8-1.6c0.2-0.4,0.6-0.6,1-0.6h6.9C114.5,116.9,114.8,117.4,114.5,118.1L114.5,118.1z"/>
		<path id="Path_401" class="st0" d="M122.9,116.9h11.8l0.4-0.9c0.2-0.4,0-0.8-0.4-0.8h-13.1c-0.5,0-1,0.3-1.2,0.8l-0.4,0.9
			l-1.7,3.5l-0.4,0.9c-0.2,0.4,0,0.8,0.4,0.8h10.2c0.5,0,1-0.4,1.2-0.8l-0.4,0.8h3l1.3-2.6l0.8-1.6h-6l-0.8,1.6h3l-0.4,0.9h-8.2
			c-0.3,0-0.5-0.3-0.3-0.6L122.9,116.9z"/>
		<path id="Path_402" class="st0" d="M150,117.8h-11c-0.3,0-0.3-0.2-0.2-0.5c0.1-0.3,0.4-0.4,0.7-0.5h11.6l0.5-1.1
			c0.2-0.3,0-0.6-0.3-0.6h-13.1c-0.5,0-1,0.3-1.2,0.8l-2.1,4.3c-0.5,1-0.1,1.7,0.9,1.7h12.8l0.5-1.1c0.2-0.3,0-0.6-0.3-0.6h-11
			c-0.3,0-0.3-0.2-0.2-0.5c0.1-0.3,0.4-0.4,0.7-0.5h11.6l0.5-1C150.5,118.1,150.4,117.8,150,117.8z"/>
		<path id="Path_403" class="st0" d="M165.5,115.2l-2.1,4.2l-5.4-4.2H154l-3.3,6.9h3l2.4-4.9l6.2,4.9h3l3.3-6.9H165.5z"/>
		<path id="Path_404" class="st0" d="M68.5,115.2h-13c-0.5,0-1,0.3-1.2,0.8l-0.4,0.9h5l0.3,0.6l0,0l-1.8,3.8l0.4,0.7h1.7l0.7-0.5
			l2-4l1-0.6h1.7l0.3,0.6l-1.8,3.8l0.4,0.7h1.7l0.7-0.5l2.7-5.5C69.2,115.5,69,115.2,68.5,115.2z"/>
		<path id="Path_405" class="st0" d="M51.8,121.3l0.4,0.8h1.7l0.7-0.5l2-4h-3L51.8,121.3z"/>
	</g>
	<path id="Path_2" class="st0" d="M623.8,428.5h-1.8l-0.9,1.7h-0.7l3-5.4h0.6l0.7,5.4H624L623.8,428.5z M623.7,427.9l-0.1-1.1
		c-0.1-0.4-0.1-0.9-0.1-1.3c-0.1,0.2-0.2,0.4-0.3,0.6c-0.1,0.2-0.4,0.8-0.9,1.8H623.7z M627.3,426.1c0.5,0,0.9,0.3,1,0.7h0
		c0-0.3,0.1-0.7,0.2-1l0.3-1.3h0.6l-1.2,5.8h-0.5l0.1-0.8h0c-0.2,0.3-0.4,0.5-0.7,0.7c-0.2,0.1-0.4,0.2-0.7,0.2
		c-0.3,0-0.6-0.1-0.8-0.4c-0.2-0.3-0.3-0.6-0.3-1c0-0.5,0.1-1,0.3-1.5c0.1-0.4,0.4-0.7,0.7-1C626.6,426.2,627,426.1,627.3,426.1z
		 M626.6,429.8c0.3,0,0.5-0.1,0.7-0.3c0.3-0.2,0.5-0.6,0.6-0.9c0.1-0.3,0.2-0.7,0.2-1.1c0-0.2-0.1-0.5-0.2-0.6
		c-0.2-0.2-0.4-0.2-0.6-0.2c-0.3,0-0.5,0.1-0.7,0.3c-0.2,0.2-0.4,0.5-0.5,0.9c-0.1,0.4-0.2,0.8-0.2,1.2
		C626,429.5,626.2,429.8,626.6,429.8z M630.2,430.2l-0.5-4.1h0.6l0.2,2.3c0.1,0.6,0.1,1.1,0.1,1.3h0c0.3-0.7,0.5-1.1,0.7-1.4
		l1.2-2.2h0.7l-2.2,4.1L630.2,430.2z M635.2,426.1c0.2,0,0.4,0.1,0.6,0.2c0.2,0.1,0.3,0.3,0.4,0.5h0l0.2-0.6h0.5l-0.9,4.1h-0.5
		l0.1-0.8h0c-0.3,0.5-0.8,0.8-1.4,0.8c-0.3,0-0.6-0.1-0.8-0.4c-0.2-0.3-0.3-0.6-0.3-1c0-0.5,0.1-1,0.3-1.4c0.1-0.4,0.4-0.8,0.7-1
		C634.5,426.2,634.8,426.1,635.2,426.1z M634.5,429.8c0.3,0,0.5-0.1,0.7-0.3c0.3-0.3,0.5-0.6,0.6-0.9c0.1-0.3,0.2-0.7,0.2-1.1
		c0-0.2-0.1-0.4-0.2-0.6c-0.1-0.2-0.3-0.2-0.5-0.2c-0.3,0-0.5,0.1-0.7,0.3c-0.2,0.2-0.4,0.5-0.5,0.9c-0.1,0.4-0.2,0.8-0.2,1.2
		c0,0.2,0,0.4,0.2,0.6C634.1,429.7,634.3,429.8,634.5,429.8z M639.8,430.2l0.5-2.6c0-0.2,0.1-0.4,0.1-0.5c0-0.1,0-0.3-0.1-0.4
		c-0.1-0.1-0.3-0.2-0.4-0.1c-0.2,0-0.5,0.1-0.6,0.2c-0.2,0.2-0.4,0.4-0.6,0.6c-0.2,0.3-0.3,0.6-0.4,1l-0.4,1.8h-0.6l0.9-4.1h0.5
		l-0.1,0.8h0c0.2-0.3,0.4-0.5,0.7-0.6c0.2-0.1,0.4-0.2,0.7-0.2c0.3,0,0.5,0.1,0.7,0.3c0.2,0.2,0.3,0.5,0.3,0.7c0,0.2,0,0.4-0.1,0.7
		l-0.5,2.5H639.8z M643.4,430.3c-0.4,0-0.8-0.1-1.1-0.4c-0.3-0.3-0.4-0.7-0.4-1.1c0-0.5,0.1-0.9,0.3-1.4c0.2-0.4,0.4-0.7,0.8-1
		c0.3-0.2,0.7-0.4,1.1-0.3c0.3,0,0.7,0.1,1,0.2l-0.2,0.5c-0.3-0.1-0.5-0.2-0.8-0.2c-0.3,0-0.5,0.1-0.8,0.3c-0.2,0.2-0.4,0.5-0.5,0.8
		c-0.1,0.4-0.2,0.7-0.2,1.1c0,0.3,0.1,0.5,0.2,0.7c0.2,0.2,0.4,0.3,0.7,0.3c0.2,0,0.3,0,0.5-0.1c0.2,0,0.3-0.1,0.5-0.2v0.5
		C644.1,430.2,643.7,430.3,643.4,430.3L643.4,430.3z M645.8,430.2h-0.6l0.9-4.1h0.6L645.8,430.2z M646.2,425.1c0-0.1,0-0.2,0.1-0.3
		c0.1-0.1,0.2-0.1,0.3-0.1c0.2,0,0.3,0.1,0.3,0.3c0,0,0,0.1,0,0.1c0,0.1,0,0.2-0.1,0.3c-0.1,0.1-0.2,0.1-0.3,0.1
		c-0.1,0-0.2,0-0.2-0.1C646.2,425.3,646.2,425.2,646.2,425.1z M649.6,430.2l0.5-2.6c0-0.2,0.1-0.4,0.1-0.5c0-0.1,0-0.3-0.1-0.4
		c-0.1-0.1-0.3-0.2-0.4-0.1c-0.2,0-0.5,0.1-0.6,0.2c-0.2,0.2-0.4,0.4-0.6,0.6c-0.2,0.3-0.3,0.6-0.4,1l-0.4,1.8h-0.6l0.9-4.1h0.5
		l-0.1,0.8h0c0.2-0.3,0.4-0.5,0.7-0.6c0.2-0.1,0.4-0.2,0.7-0.2c0.3,0,0.5,0.1,0.7,0.3c0.2,0.2,0.3,0.5,0.3,0.7c0,0.2,0,0.4-0.1,0.7
		l-0.5,2.5H649.6z M655.3,426.2l-0.1,0.4l-0.8,0.1c0.1,0.2,0.2,0.4,0.2,0.6c0,0.4-0.1,0.8-0.4,1.1c-0.3,0.3-0.7,0.4-1.2,0.4
		c-0.1,0-0.2,0-0.3,0c-0.3,0.1-0.5,0.3-0.5,0.5c0,0.1,0,0.2,0.1,0.2c0.1,0,0.2,0.1,0.4,0.1l0.4,0.1c0.3,0,0.7,0.1,1,0.3
		c0.2,0.2,0.3,0.4,0.3,0.7c0,0.4-0.2,0.8-0.5,1.1c-0.5,0.3-1,0.4-1.5,0.4c-0.4,0-0.8-0.1-1.1-0.3c-0.3-0.2-0.4-0.5-0.4-0.8
		c0-0.3,0.1-0.5,0.3-0.7c0.2-0.2,0.5-0.4,0.9-0.5c-0.2-0.1-0.3-0.3-0.3-0.4c0-0.2,0.1-0.3,0.2-0.4c0.2-0.1,0.3-0.3,0.5-0.3
		c-0.2-0.1-0.3-0.2-0.4-0.3c-0.1-0.2-0.2-0.3-0.1-0.5c0-0.4,0.1-0.9,0.4-1.2c0.3-0.3,0.7-0.5,1.1-0.5c0.2,0,0.4,0,0.6,0.1
		L655.3,426.2z M651.4,431c0,0.2,0.1,0.4,0.2,0.5c0.2,0.1,0.5,0.2,0.7,0.2c0.4,0,0.7-0.1,1.1-0.2c0.2-0.1,0.4-0.4,0.4-0.7
		c0-0.1-0.1-0.3-0.2-0.4c-0.2-0.1-0.4-0.2-0.7-0.2l-0.6-0.1c-0.3,0-0.5,0.2-0.7,0.3C651.4,430.5,651.4,430.8,651.4,431z
		 M652.4,427.7c0,0.2,0,0.3,0.2,0.5c0.1,0.1,0.3,0.2,0.5,0.2c0.2,0,0.4-0.1,0.5-0.2c0.1-0.1,0.3-0.3,0.3-0.4
		c0.1-0.2,0.1-0.4,0.1-0.6c0-0.2,0-0.3-0.2-0.5c-0.1-0.1-0.3-0.2-0.5-0.2c-0.2,0-0.4,0-0.5,0.2c-0.1,0.1-0.3,0.3-0.3,0.4
		C652.4,427.3,652.4,427.5,652.4,427.7L652.4,427.7z M659.7,430.2l0.5-2.6c0-0.2,0.1-0.3,0.1-0.5c0-0.3-0.1-0.5-0.4-0.5
		c0,0-0.1,0-0.1,0c-0.2,0-0.5,0.1-0.6,0.2c-0.2,0.2-0.4,0.4-0.6,0.6c-0.2,0.3-0.3,0.7-0.4,1l-0.4,1.7h-0.6l1.2-5.8h0.6
		c0,0.2-0.1,0.4-0.1,0.6c0,0.2-0.1,0.4-0.1,0.6c0,0.2-0.1,0.4-0.1,0.6c-0.1,0.2-0.1,0.4-0.2,0.7h0c0.2-0.3,0.4-0.5,0.7-0.7
		c0.2-0.1,0.5-0.2,0.7-0.2c0.3,0,0.5,0.1,0.8,0.3c0.2,0.2,0.3,0.5,0.3,0.8c0,0.2,0,0.4-0.1,0.6c-0.1,0.5-0.3,1.3-0.5,2.5H659.7z
		 M663.1,426.2l-0.6,2.6c0,0.2-0.1,0.3-0.1,0.5c0,0.3,0.1,0.5,0.4,0.5c0,0,0.1,0,0.1,0c0.2,0,0.5-0.1,0.6-0.2
		c0.2-0.2,0.4-0.4,0.6-0.6c0.2-0.3,0.3-0.6,0.4-1l0.4-1.8h0.6l-0.9,4.1h-0.5l0.1-0.8h0c-0.2,0.3-0.4,0.5-0.7,0.6
		c-0.2,0.1-0.4,0.2-0.7,0.2c-0.3,0-0.5-0.1-0.7-0.3c-0.2-0.2-0.3-0.5-0.3-0.7c0-0.2,0-0.4,0.1-0.6l0.5-2.5L663.1,426.2z
		 M668.3,430.2l0.5-2.6c0-0.2,0.1-0.3,0.1-0.5c0-0.1,0-0.3-0.1-0.4c-0.1-0.1-0.2-0.2-0.4-0.1c-0.2,0-0.4,0.1-0.6,0.2
		c-0.2,0.2-0.4,0.4-0.5,0.6c-0.2,0.3-0.3,0.6-0.3,1l-0.4,1.8H666l0.9-4.1h0.5l-0.1,0.8h0c0.2-0.3,0.4-0.5,0.6-0.6
		c0.2-0.1,0.4-0.2,0.7-0.2c0.2,0,0.5,0.1,0.6,0.2c0.2,0.2,0.3,0.4,0.3,0.7h0c0.2-0.3,0.4-0.5,0.7-0.7c0.2-0.1,0.5-0.2,0.7-0.2
		c0.3,0,0.5,0.1,0.7,0.3c0.2,0.2,0.3,0.5,0.3,0.7c0,0.2,0,0.4-0.1,0.7l-0.5,2.5h-0.6l0.5-2.6c0-0.2,0.1-0.4,0.1-0.5
		c0-0.1,0-0.3-0.1-0.4c-0.1-0.1-0.3-0.2-0.4-0.1c-0.2,0-0.4,0.1-0.6,0.2c-0.2,0.2-0.4,0.4-0.5,0.6c-0.2,0.3-0.3,0.6-0.3,0.9
		l-0.4,1.8H668.3z M674.7,426.1c0.2,0,0.4,0.1,0.6,0.2c0.2,0.1,0.3,0.3,0.4,0.5h0l0.2-0.6h0.5l-0.9,4.1h-0.5l0.1-0.8h0
		c-0.3,0.5-0.8,0.8-1.4,0.8c-0.3,0-0.6-0.1-0.8-0.4c-0.2-0.3-0.3-0.6-0.3-1c0-0.5,0.1-1,0.3-1.4c0.1-0.4,0.4-0.8,0.7-1
		C674,426.2,674.4,426.1,674.7,426.1z M674,429.8c0.3,0,0.5-0.1,0.7-0.3c0.3-0.3,0.5-0.6,0.6-0.9c0.1-0.3,0.2-0.7,0.2-1.1
		c0-0.2-0.1-0.4-0.2-0.6c-0.1-0.2-0.3-0.2-0.5-0.2c-0.3,0-0.5,0.1-0.7,0.3c-0.2,0.2-0.4,0.5-0.5,0.9c-0.1,0.4-0.2,0.8-0.2,1.1
		c0,0.2,0,0.4,0.2,0.6C673.7,429.7,673.9,429.8,674,429.8L674,429.8z M679.4,430.2l0.5-2.6c0-0.2,0.1-0.4,0.1-0.5
		c0-0.1,0-0.3-0.1-0.4c-0.1-0.1-0.3-0.2-0.4-0.1c-0.2,0-0.5,0.1-0.6,0.2c-0.2,0.2-0.4,0.4-0.6,0.6c-0.2,0.3-0.3,0.6-0.4,1l-0.4,1.8
		h-0.6l0.9-4.1h0.5l-0.1,0.8h0c0.2-0.3,0.4-0.5,0.7-0.6c0.2-0.1,0.4-0.2,0.7-0.2c0.3,0,0.5,0.1,0.7,0.3c0.2,0.2,0.3,0.5,0.3,0.7
		c0,0.2,0,0.4-0.1,0.7l-0.5,2.5L679.4,430.2z M685,430.3c-0.2,0-0.4-0.1-0.6-0.2c-0.2-0.1-0.3-0.3-0.4-0.5h0l0,0.1
		c0,0.1,0,0.1,0,0.3c0,0.1-0.2,0.8-0.4,2.1h-0.6l1.2-5.9h0.5l-0.1,0.8h0c0.3-0.5,0.8-0.8,1.4-0.8c0.3,0,0.6,0.1,0.8,0.4
		c0.2,0.3,0.3,0.7,0.3,1c0,0.5-0.1,1-0.3,1.4c-0.1,0.4-0.4,0.7-0.7,1C685.8,430.2,685.4,430.3,685,430.3L685,430.3z M685.7,426.6
		c-0.3,0-0.5,0.1-0.7,0.4c-0.3,0.3-0.5,0.6-0.6,0.9c-0.1,0.3-0.2,0.7-0.2,1.1c0,0.2,0.1,0.5,0.2,0.6c0.2,0.2,0.4,0.2,0.6,0.2
		c0.3,0,0.5-0.1,0.7-0.3c0.2-0.2,0.4-0.5,0.5-0.9c0.1-0.4,0.2-0.8,0.2-1.2C686.4,426.9,686.2,426.6,685.7,426.6L685.7,426.6z
		 M690.2,426.1c0.1,0,0.3,0,0.4,0.1l-0.1,0.6c-0.1,0-0.3,0-0.4,0c-0.2,0-0.5,0.1-0.6,0.2c-0.2,0.2-0.4,0.4-0.5,0.6
		c-0.2,0.3-0.3,0.6-0.3,0.9l-0.4,1.9h-0.6l0.9-4.1h0.5l-0.1,0.8h0c0.1-0.2,0.3-0.4,0.4-0.5c0.1-0.1,0.2-0.2,0.4-0.2
		C689.9,426.1,690,426.1,690.2,426.1z M692.8,426.1c0.4,0,0.8,0.1,1.1,0.4c0.3,0.3,0.4,0.7,0.4,1.1c0,0.5-0.1,0.9-0.3,1.3
		c-0.2,0.4-0.4,0.7-0.7,1c-0.3,0.2-0.7,0.3-1,0.3c-0.4,0-0.8-0.1-1.1-0.4c-0.3-0.3-0.4-0.7-0.4-1.1c0-0.5,0.1-0.9,0.3-1.3
		c0.2-0.4,0.4-0.7,0.7-1C692.1,426.2,692.4,426.1,692.8,426.1L692.8,426.1z M693.7,427.6c0-0.3-0.1-0.5-0.2-0.7
		c-0.2-0.2-0.4-0.3-0.6-0.3c-0.3,0-0.5,0.1-0.7,0.3c-0.2,0.2-0.4,0.5-0.5,0.8c-0.1,0.3-0.2,0.7-0.2,1.1c0,0.3,0.1,0.5,0.2,0.8
		c0.2,0.2,0.4,0.3,0.7,0.3c0.3,0,0.5-0.1,0.7-0.3c0.2-0.2,0.4-0.5,0.5-0.8C693.6,428.4,693.7,428,693.7,427.6L693.7,427.6z
		 M698.7,426.2l-0.1,0.4l-0.8,0.1c0.1,0.2,0.2,0.4,0.2,0.6c0,0.4-0.1,0.8-0.4,1.1c-0.3,0.3-0.7,0.4-1.2,0.4c-0.1,0-0.2,0-0.3,0
		c-0.3,0.1-0.5,0.3-0.5,0.5c0,0.1,0,0.2,0.1,0.2c0.1,0,0.2,0.1,0.4,0.1l0.4,0.1c0.3,0,0.7,0.1,1,0.3c0.2,0.2,0.3,0.4,0.3,0.7
		c0,0.4-0.2,0.8-0.5,1.1c-0.5,0.3-1,0.4-1.5,0.4c-0.4,0-0.8-0.1-1.1-0.3c-0.3-0.2-0.4-0.5-0.4-0.8c0-0.3,0.1-0.5,0.3-0.7
		c0.2-0.2,0.5-0.4,0.9-0.5c-0.2-0.1-0.3-0.3-0.3-0.5c0-0.2,0.1-0.3,0.2-0.4c0.2-0.1,0.3-0.3,0.5-0.3c-0.2-0.1-0.3-0.2-0.4-0.3
		c-0.1-0.2-0.2-0.3-0.1-0.5c0-0.4,0.1-0.9,0.4-1.2c0.3-0.3,0.7-0.5,1.1-0.5c0.2,0,0.4,0,0.6,0.1L698.7,426.2z M694.8,431
		c0,0.2,0.1,0.4,0.2,0.5c0.2,0.1,0.5,0.2,0.7,0.2c0.4,0,0.7-0.1,1.1-0.2c0.2-0.1,0.4-0.4,0.4-0.7c0-0.1-0.1-0.3-0.2-0.4
		c-0.2-0.1-0.4-0.2-0.7-0.2l-0.6-0.1c-0.3,0-0.5,0.2-0.7,0.3C694.9,430.5,694.8,430.8,694.8,431L694.8,431z M695.8,427.7
		c0,0.2,0,0.3,0.2,0.5c0.1,0.1,0.3,0.2,0.5,0.2c0.2,0,0.4-0.1,0.5-0.2c0.1-0.1,0.3-0.3,0.3-0.4c0.1-0.2,0.1-0.4,0.1-0.6
		c0-0.2,0-0.3-0.2-0.5c-0.1-0.1-0.3-0.2-0.5-0.2c-0.2,0-0.4,0-0.5,0.2c-0.1,0.1-0.3,0.3-0.3,0.4
		C695.8,427.3,695.8,427.5,695.8,427.7L695.8,427.7z M701.2,426.1c0.1,0,0.3,0,0.4,0.1l-0.1,0.6c-0.1,0-0.3,0-0.4,0
		c-0.2,0-0.5,0.1-0.6,0.2c-0.2,0.2-0.4,0.4-0.5,0.6c-0.2,0.3-0.3,0.6-0.3,0.9l-0.4,1.9h-0.6l0.9-4.1h0.5l-0.1,0.8h0
		c0.1-0.2,0.3-0.4,0.4-0.5c0.1-0.1,0.2-0.2,0.4-0.2C700.9,426.1,701.1,426.1,701.2,426.1z M703.3,430.3c-0.4,0-0.8-0.1-1.1-0.4
		c-0.3-0.3-0.4-0.7-0.4-1.1c0-0.5,0.1-0.9,0.3-1.3c0.2-0.4,0.4-0.7,0.7-1c0.3-0.2,0.6-0.4,1-0.4c0.3,0,0.6,0.1,0.9,0.2
		c0.2,0.2,0.3,0.4,0.3,0.7c0,0.4-0.2,0.8-0.6,1c-0.5,0.3-1.1,0.4-1.8,0.4h-0.1l0,0.3c0,0.3,0.1,0.5,0.2,0.8c0.2,0.2,0.4,0.3,0.7,0.3
		c0.2,0,0.3,0,0.5-0.1c0.2-0.1,0.4-0.1,0.6-0.2v0.5c-0.2,0.1-0.4,0.2-0.6,0.2C703.7,430.3,703.5,430.3,703.3,430.3L703.3,430.3z
		 M703.8,426.6c-0.3,0-0.5,0.1-0.7,0.3c-0.2,0.3-0.4,0.6-0.5,1h0c0.4,0,0.9-0.1,1.3-0.2c0.3-0.1,0.4-0.4,0.5-0.6
		c0-0.1,0-0.2-0.1-0.3C704.1,426.7,703.9,426.6,703.8,426.6L703.8,426.6z M707.9,429.1c0,0.3-0.1,0.7-0.4,0.9
		c-0.3,0.2-0.7,0.3-1.2,0.3c-0.4,0-0.8-0.1-1.1-0.3v-0.6c0.2,0.1,0.4,0.2,0.6,0.2c0.2,0.1,0.4,0.1,0.6,0.1c0.2,0,0.5,0,0.7-0.2
		c0.2-0.1,0.2-0.3,0.2-0.5c0-0.1,0-0.3-0.1-0.4c-0.2-0.2-0.4-0.3-0.6-0.4c-0.3-0.1-0.5-0.3-0.7-0.5c-0.1-0.2-0.2-0.4-0.2-0.6
		c0-0.3,0.1-0.6,0.4-0.8c0.3-0.2,0.6-0.3,1-0.3c0.4,0,0.8,0.1,1.2,0.3l-0.2,0.5l-0.2-0.1c-0.3-0.1-0.5-0.2-0.8-0.2
		c-0.2,0-0.4,0-0.5,0.2c-0.1,0.1-0.2,0.3-0.2,0.4c0,0.1,0,0.3,0.1,0.4c0.2,0.2,0.3,0.3,0.5,0.4c0.2,0.1,0.4,0.2,0.6,0.4
		c0.1,0.1,0.2,0.2,0.3,0.3C707.9,428.8,707.9,428.9,707.9,429.1L707.9,429.1z M711.2,429.1c0,0.3-0.1,0.7-0.4,0.9
		c-0.3,0.2-0.7,0.3-1.2,0.3c-0.4,0-0.8-0.1-1.1-0.3v-0.6c0.2,0.1,0.4,0.2,0.6,0.2c0.2,0.1,0.4,0.1,0.6,0.1c0.2,0,0.5,0,0.7-0.2
		c0.2-0.1,0.2-0.3,0.2-0.5c0-0.1,0-0.3-0.1-0.4c-0.2-0.2-0.4-0.3-0.6-0.4c-0.3-0.1-0.5-0.3-0.7-0.5c-0.1-0.2-0.2-0.4-0.2-0.6
		c0-0.3,0.1-0.6,0.4-0.8c0.3-0.2,0.6-0.3,1-0.3c0.4,0,0.8,0.1,1.2,0.3l-0.2,0.5l-0.2-0.1c-0.3-0.1-0.5-0.2-0.8-0.2
		c-0.2,0-0.4,0-0.5,0.2c-0.1,0.1-0.2,0.3-0.2,0.4c0,0.1,0,0.3,0.1,0.4c0.2,0.2,0.3,0.3,0.5,0.4c0.2,0.1,0.4,0.2,0.6,0.4
		c0.1,0.1,0.2,0.2,0.3,0.3C711.1,428.8,711.2,429,711.2,429.1L711.2,429.1z"/>
</g>
</svg>
