<?xml version="1.0" encoding="utf-8"?>
<!-- Generator: Adobe Illustrator 27.8.1, SVG Export Plug-In . SVG Version: 6.00 Build 0)  -->
<svg version="1.1" id="Layer_1" xmlns="http://www.w3.org/2000/svg" xmlns:xlink="http://www.w3.org/1999/xlink" x="0px" y="0px"
	 viewBox="0 0 170.3 33.3" style="enable-background:new 0 0 170.3 33.3;" xml:space="preserve">
<style type="text/css">
	.st0{fill:#FFFFFF;}
</style>
<g id="Matogen_Base" transform="translate(-543 -399.745)">
	<g id="logo" transform="translate(543 300.752)">
		<path id="Path_397" class="st0" d="M85,115.2H72.1c-0.5,0-1,0.3-1.2,0.8l-2.8,5.6c-0.1,0.2,0,0.4,0.2,0.4h2.1
			c0.3,0,0.5-0.2,0.6-0.4l1.1-2.2h8.6l-1.1,2.2c-0.1,0.2,0,0.4,0.2,0.4H82c0.3,0,0.5-0.2,0.6-0.4l2.8-5.6
			C85.6,115.5,85.4,115.2,85,115.2z M81.8,117.3c-0.1,0.3-0.4,0.4-0.7,0.5h-7.7c-0.3,0-0.3-0.2-0.2-0.5c0.1-0.3,0.4-0.4,0.7-0.5h7.7
			C81.8,116.9,81.9,117.1,81.8,117.3L81.8,117.3z"/>
		<path id="Path_398" class="st0" d="M54.6,99l-36,4.4c-3,0.4-6.9,3.1-8.6,6l-8.1,17.2c-1.7,2.9-0.6,5,2.4,4.6l36-4.5
			c1.9-0.2,4-1.4,5.8-2.8h-8.8l-0.9-1.8l4.5-9.3l-0.8-1.6h-4.2l-2.4,1.6l-4.8,9.9l-1.8,1.2h-4.3l-0.9-1.9l4.6-9.3l-4.5,9.3l4.5-9.3
			l-0.8-1.6H12.9l1.1-2.2c0.6-1.1,1.7-1.9,3-2h32.2c1.1,0,1.6,0.9,1,2L43.8,122H48c0.3-0.4,0.6-0.8,0.9-1.3l8.2-17.1
			C58.7,100.7,57.6,98.6,54.6,99z M19.2,113.3l-4.6,9.4l-1.8,1.2H8.5l-1-1.9l4.3-8.8L19.2,113.3z"/>
		<path id="Path_399" class="st0" d="M87.6,115.2l-0.8,1.7h5.9l-2.3,4.6l0.3,0.5h2l0.7-0.5l2.3-4.7h5.8l0.8-1.7L87.6,115.2z"/>
		<path id="Path_400" class="st0" d="M116.1,115.2h-10.7c-0.8,0.1-1.4,0.5-1.8,1.2l-1.4,2.9c-0.7,1.5-0.1,2.7,1.4,2.7h10.7
			c0.8-0.1,1.4-0.5,1.8-1.2l1.4-2.9C118.3,116.4,117.6,115.2,116.1,115.2z M114.5,118.1l-0.8,1.6c-0.2,0.4-0.6,0.6-1,0.6h-6.9
			c-0.7,0-0.9-0.5-0.6-1.2l0.8-1.6c0.2-0.4,0.6-0.6,1-0.6h6.9C114.5,116.9,114.8,117.4,114.5,118.1L114.5,118.1z"/>
		<path id="Path_401" class="st0" d="M122.9,116.9h11.8l0.4-0.9c0.2-0.4,0-0.8-0.4-0.8h-13.1c-0.5,0-1,0.3-1.2,0.8l-0.4,0.9
			l-1.7,3.5l-0.4,0.9c-0.2,0.4,0,0.8,0.4,0.8h10.2c0.5,0,1-0.4,1.2-0.8l-0.4,0.8h3l1.3-2.6l0.8-1.6h-6l-0.8,1.6h3l-0.4,0.9H122
			c-0.3,0-0.5-0.3-0.3-0.6L122.9,116.9z"/>
		<path id="Path_402" class="st0" d="M150,117.8h-11c-0.3,0-0.3-0.2-0.2-0.5s0.4-0.4,0.7-0.5h11.6l0.5-1.1c0.2-0.3,0-0.6-0.3-0.6
			h-13.1c-0.5,0-1,0.3-1.2,0.8l-2.1,4.3c-0.5,1-0.1,1.7,0.9,1.7h12.8l0.5-1.1c0.2-0.3,0-0.6-0.3-0.6h-11c-0.3,0-0.3-0.2-0.2-0.5
			s0.4-0.4,0.7-0.5h11.6l0.5-1C150.5,118.1,150.4,117.8,150,117.8z"/>
		<path id="Path_403" class="st0" d="M165.5,115.2l-2.1,4.2l-5.4-4.2h-4l-3.3,6.9h3l2.4-4.9l6.2,4.9h3l3.3-6.9H165.5z"/>
		<path id="Path_404" class="st0" d="M68.5,115.2h-13c-0.5,0-1,0.3-1.2,0.8l-0.4,0.9h5l0.3,0.6l0,0l-1.8,3.8l0.4,0.7h1.7l0.7-0.5
			l2-4l1-0.6h1.7l0.3,0.6l-1.8,3.8l0.4,0.7h1.7l0.7-0.5l2.7-5.5C69.2,115.5,69,115.2,68.5,115.2z"/>
		<path id="Path_405" class="st0" d="M51.8,121.3l0.4,0.8h1.7l0.7-0.5l2-4h-3L51.8,121.3z"/>
	</g>
</g>
</svg>
