<svg xmlns="http://www.w3.org/2000/svg" width="38.955" height="37.189" viewBox="0 0 38.955 37.189">
  <path id="purpose" d="M24.01-1.867l-13.579-3.8V-23.682h5.13l7.075,2.6q-.93-.872-1.583-1.51A29.08,29.08,0,0,1,17.5-26.9a9.159,9.159,0,0,1-1.946-5.055,6.81,6.81,0,0,1,2.134-5.037,7.011,7.011,0,0,1,5.052-2.068,7.242,7.242,0,0,1,4.567,1.529,7.393,7.393,0,0,1,4.642-1.529,6.876,6.876,0,0,1,5.025,2.081,6.876,6.876,0,0,1,2.081,5.025A9.159,9.159,0,0,1,37.11-26.9,29.08,29.08,0,0,1,33.56-22.59c-.985.961-2.454,2.334-4.374,4.089A3.345,3.345,0,0,1,30.568-15.7a3.4,3.4,0,0,1-.855,2.264h4.48a4.852,4.852,0,0,1,3.5,1.44,4.757,4.757,0,0,1,1.44,3.423v1.04ZM13.432-7.944,23.876-5.02,35.871-9.509a2.193,2.193,0,0,0-.3-.361,1.839,1.839,0,0,0-1.382-.562H21.917L16.753-12.31l1.558-4.452,4.145,1.568h4.53a.521.521,0,0,0,.421-.161.427.427,0,0,0,.161-.341c0-.2,0-.351-.409-.525L15.028-20.682h-1.6Zm9.311-28.112a4.053,4.053,0,0,0-2.956,1.215,3.861,3.861,0,0,0-1.229,2.891A6.343,6.343,0,0,0,19.974-28.6a26.1,26.1,0,0,0,3.176,3.861c.937.915,2.333,2.22,4.157,3.888,1.825-1.668,3.22-2.974,4.157-3.888A26.1,26.1,0,0,0,34.64-28.6a6.343,6.343,0,0,0,1.417-3.353,3.922,3.922,0,0,0-1.2-2.9,3.922,3.922,0,0,0-2.9-1.2,4.461,4.461,0,0,0-3.521,1.576l-1.123,1.27-1.124-1.27A4.377,4.377,0,0,0,22.742-36.057ZM10.068-1.943H.182V-23.682h9.887Zm-6.887-3H7.068V-20.682H3.182Z" transform="translate(-0.182 39.057)" fill="#459ed8"/>
</svg>
