<?xml version="1.0" encoding="utf-8"?>
<!-- Generator: Adobe Illustrator 27.9.0, SVG Export Plug-In . SVG Version: 6.00 Build 0)  -->
<svg version="1.1" id="Layer_1" xmlns="http://www.w3.org/2000/svg" xmlns:xlink="http://www.w3.org/1999/xlink" x="0px" y="0px"
	 viewBox="0 0 760 230" style="enable-background:new 0 0 760 230;" xml:space="preserve">
<style type="text/css">
	.st0{fill:#231F20;}
	.st1{fill:none;stroke:#231F20;stroke-miterlimit:2.613;}
	.st2{fill:none;stroke:#231F20;stroke-width:0.216;stroke-miterlimit:2.613;}
	.st3{fill:#FFFFFF;}
	.st4{fill:#0052BB;}
</style>
<path class="st0" d="M334.1,141.7L314,93.3c13.1-6,19.6-14.7,19.6-29.3c0-10.9-4.4-20.7-13.6-26.6c-8.3-5.5-19-6.8-28.7-6.8h-56.6
	v111.2h34.5V99.3h10.7l16.2,42.5H334.1z M269.2,75.4V54.2H283c3.3,0,6.8,0,9.7,1.4c3.4,1.8,5.4,5.4,5.4,9.1
	c0,9.6-8.9,10.7-16.4,10.7H269.2L269.2,75.4z M393.2,112.1c-1.3,7.1-5.4,10.1-12.6,10.1c-9.7,0-13-6.5-12.5-15.4h55.4v-4.4
	c0-27.2-16.9-45-44.4-45c-11.8,0-24.5,4.1-32.9,12.8c-7.8,7.9-12.2,20.1-12.2,31.3c0,11.8,4.7,23.2,13.6,31.1
	c9.4,8.3,21.2,10.9,33.4,10.9c19.6,0,37.4-9.2,42.5-29.3L393.2,112.1z M367.9,90.5c-0.3-7.6,3.1-14.3,11.5-14.3
	c9.1,0,11.7,6.2,11.7,14.3L367.9,90.5L367.9,90.5z M463.8,51h-32.1V29h32.1V51z M463.8,141.7h-32.1V58.9h32.1V141.7z M506.5,58.9
	v11.7h0.3c3.9-9.4,13.5-13.3,23.5-13.3c7.8,0,16.7,2.3,21.5,8.6c5.2,6.8,5.2,16.2,5.2,24.8v51h-32.1V91.5c0-5,0-12-7-12
	c-8.9,0-9.7,7.6-9.7,14.4v47.8h-32.1V58.9H506.5z M628.2,87.4l27.9,54.3h-33.6l-15.6-33.2l-8.1,10.4v22.8h-32.1V30.5h32.1v59.9
	l7-9.2l19.4-22.4h27.9L628.2,87.4z"/>
<path class="st0" d="M710.8,112.1c-1.3,7.1-5.4,10.1-12.6,10.1c-9.7,0-13-6.5-12.5-15.4h55.4v-4.4c0-27.2-16.8-45-44.4-45
	c-11.8,0-24.5,4.1-32.9,12.8c-7.8,7.9-12.2,20.1-12.2,31.3c0,11.8,4.7,23.2,13.6,31.1c9.4,8.3,21.2,10.9,33.4,10.9
	c19.6,0,37.4-9.2,42.5-29.3L710.8,112.1z M685.5,90.5c-0.3-7.6,3.1-14.3,11.5-14.3c9.1,0,11.7,6.2,11.7,14.3L685.5,90.5L685.5,90.5z
	"/>
<path class="st1" d="M234.4,152.5h508.3"/>
<path class="st0" d="M250.4,193.2h-3.1l-10.7-25.8h-0.1v25.8h-3.2V165h5.5l10,24.1l10-24.1h5.5v28.2h-3.2v-25.8h-0.1L250.4,193.2z"
	/>
<path class="st2" d="M250.4,193.2h-3.1l-10.7-25.8h-0.1v25.8h-3.2V165h5.5l10,24.1l10-24.1h5.5v28.2h-3.2v-25.8h-0.1L250.4,193.2z"
	/>
<path class="st0" d="M278.5,164.8c-7,0.1-9.2,2.4-9.2,9.5v10c0,6.7,2.4,9.1,9.2,9.1h3.8c6.8,0,9.2-2.5,9.2-9.1v-10
	c0-7.1-2.1-9.4-9.2-9.5H278.5z M282.3,167.6c4.7,0,6,1.2,6,6.7v10c0,5.6-1.8,6.3-6,6.3h-3.8c-4.1,0-6-0.7-6-6.3v-10
	c0-5.5,1.2-6.7,6-6.7H282.3z"/>
<path class="st2" d="M278.5,164.8c-7,0.1-9.2,2.4-9.2,9.5v10c0,6.7,2.4,9.1,9.2,9.1h3.8c6.8,0,9.2-2.5,9.2-9.1v-10
	c0-7.1-2.1-9.4-9.2-9.5H278.5z M282.3,167.6c4.7,0,6,1.2,6,6.7v10c0,5.6-1.8,6.3-6,6.3h-3.8c-4.1,0-6-0.7-6-6.3v-10
	c0-5.5,1.2-6.7,6-6.7H282.3z"/>
<path class="st0" d="M300.4,181.9h10.2c3.9,0,4.7,1.7,4.7,5.3v6h3.2v-7.5c0-3-1.4-4.9-4.6-5.1v-0.1c4.5-0.6,4.9-3.5,4.9-7.5
	c0-6.4-2.7-8.1-8.8-8.1h-13v28.2h3.2L300.4,181.9L300.4,181.9z M300.4,179.1v-11.3h9.8c5,0,5.5,1.3,5.5,5c0,4.7-0.6,6.2-5.5,6.3
	H300.4z"/>
<path class="st2" d="M300.4,181.9h10.2c3.9,0,4.7,1.7,4.7,5.3v6h3.2v-7.5c0-3-1.4-4.9-4.6-5.1v-0.1c4.5-0.6,4.9-3.5,4.9-7.5
	c0-6.4-2.7-8.1-8.8-8.1h-13v28.2h3.2L300.4,181.9L300.4,181.9z M300.4,179.1v-11.3h9.8c5,0,5.5,1.3,5.5,5c0,4.7-0.6,6.2-5.5,6.3
	H300.4z"/>
<path class="st0" d="M328.7,177.4H343v2.6h-14.3v10.3h14.9v2.8h-18.1V165h18.1v2.8h-14.9V177.4z"/>
<path class="st2" d="M328.7,177.4H343v2.6h-14.3v10.3h14.9v2.8h-18.1V165h18.1v2.8h-14.9V177.4z"/>
<path class="st0" d="M370.7,181.9h10.2c3.9,0,4.7,1.7,4.7,5.3v6h3.2v-7.5c0-3-1.4-4.9-4.6-5.1v-0.1c4.5-0.6,4.9-3.5,4.9-7.5
	c0-6.4-2.7-8.1-8.8-8.1h-13v28.2h3.2L370.7,181.9L370.7,181.9z M370.7,179.1v-11.3h9.8c5,0,5.5,1.3,5.5,5c0,4.7-0.6,6.2-5.5,6.3
	H370.7z"/>
<path class="st2" d="M370.7,181.9h10.2c3.9,0,4.7,1.7,4.7,5.3v6h3.2v-7.5c0-3-1.4-4.9-4.6-5.1v-0.1c4.5-0.6,4.9-3.5,4.9-7.5
	c0-6.4-2.7-8.1-8.8-8.1h-13v28.2h3.2L370.7,181.9L370.7,181.9z M370.7,179.1v-11.3h9.8c5,0,5.5,1.3,5.5,5c0,4.7-0.6,6.2-5.5,6.3
	H370.7z"/>
<path class="st0" d="M397,165h3.2v28.2H397V165z"/>
<path class="st2" d="M397,165h3.2v28.2H397V165z"/>
<path class="st0" d="M430.9,179.1v6.1c0,6.6-3,8.2-9.3,8.2h-3.1c-7.5,0-10.8-1.4-10.8-10.1v-8.7c0-7.6,3.5-9.8,8.3-9.8h7.4
	c4.2,0,7.5,1.7,7.5,6.3v2.2h-3.2v-1.6c0-3.2-1.3-4-5.9-4h-3.9c-6.1,0-7,1.2-7,7.3v9.1c0,5.4,1.8,6.6,7.1,6.6h3
	c5.6,0,6.8-0.7,6.8-5.2v-3.5h-9V179L430.9,179.1L430.9,179.1z"/>
<path class="st2" d="M430.9,179.1v6.1c0,6.6-3,8.2-9.3,8.2h-3.1c-7.5,0-10.8-1.4-10.8-10.1v-8.7c0-7.6,3.5-9.8,8.3-9.8h7.4
	c4.2,0,7.5,1.7,7.5,6.3v2.2h-3.2v-1.6c0-3.2-1.3-4-5.9-4h-3.9c-6.1,0-7,1.2-7,7.3v9.1c0,5.4,1.8,6.6,7.1,6.6h3
	c5.6,0,6.8-0.7,6.8-5.2v-3.5h-9V179L430.9,179.1L430.9,179.1z"/>
<path class="st0" d="M460.8,193.2h-3.2v-13h-16.5v13h-3.2V165h3.2v12.4h16.5V165h3.2V193.2z"/>
<path class="st2" d="M460.8,193.2h-3.2v-13h-16.5v13h-3.2V165h3.2v12.4h16.5V165h3.2V193.2z"/>
<path class="st0" d="M479,193.2h-3.2v-25.4h-9.1V165h21.5v2.8H479L479,193.2L479,193.2z"/>
<path class="st2" d="M479,193.2h-3.2v-25.4h-9.1V165h21.5v2.8H479L479,193.2L479,193.2z"/>
<path class="st0" d="M520.6,193.2h-3.2v-25.4h-9.1V165h21.5v2.8h-9.1L520.6,193.2L520.6,193.2z"/>
<path class="st2" d="M520.6,193.2h-3.2v-25.4h-9.1V165h21.5v2.8h-9.1L520.6,193.2L520.6,193.2z"/>
<path class="st0" d="M558.5,193.2h-3.2v-13h-16.5v13h-3.2V165h3.2v12.4h16.5V165h3.2V193.2z"/>
<path class="st2" d="M558.5,193.2h-3.2v-13h-16.5v13h-3.2V165h3.2v12.4h16.5V165h3.2V193.2z"/>
<path class="st0" d="M584.2,187.2l2.2,6h3.3L579.2,165h-4.5l-10.2,28.2h3.3l2.2-6H584.2z M583.3,184.6h-12.5l6.2-16.9L583.3,184.6z"
	/>
<path class="st2" d="M584.2,187.2l2.2,6h3.3L579.2,165h-4.5l-10.2,28.2h3.3l2.2-6H584.2z M583.3,184.6h-12.5l6.2-16.9L583.3,184.6z"
	/>
<path class="st0" d="M619.9,193.2h-5.2l-15.8-25.6h-0.1v25.6h-3.2V165h5.2l15.8,25.7h0.1V165h3.2V193.2z"/>
<path class="st2" d="M619.9,193.2h-5.2l-15.8-25.6h-0.1v25.6h-3.2V165h5.2l15.8,25.7h0.1V165h3.2V193.2z"/>
<path class="st0" d="M648.2,181.9h10.2c3.9,0,4.7,1.7,4.7,5.3v6h3.2v-7.5c0-3-1.4-4.9-4.6-5.1v-0.1c4.5-0.6,4.9-3.5,4.9-7.5
	c0-6.4-2.7-8.1-8.8-8.1h-13v28.2h3.2L648.2,181.9L648.2,181.9z M648.2,179.1v-11.3h9.8c5,0,5.5,1.3,5.5,5c0,4.7-0.6,6.2-5.5,6.3
	H648.2z"/>
<path class="st2" d="M648.2,181.9h10.2c3.9,0,4.7,1.7,4.7,5.3v6h3.2v-7.5c0-3-1.4-4.9-4.6-5.1v-0.1c4.5-0.6,4.9-3.5,4.9-7.5
	c0-6.4-2.7-8.1-8.8-8.1h-13v28.2h3.2L648.2,181.9L648.2,181.9z M648.2,179.1v-11.3h9.8c5,0,5.5,1.3,5.5,5c0,4.7-0.6,6.2-5.5,6.3
	H648.2z"/>
<path class="st0" d="M691.8,187.2l2.2,6h3.3L686.8,165h-4.5L672,193.2h3.3l2.2-6H691.8z M690.9,184.6h-12.5l6.2-16.9L690.9,184.6z"
	/>
<path class="st2" d="M691.8,187.2l2.2,6h3.3L686.8,165h-4.5L672,193.2h3.3l2.2-6H691.8z M690.9,184.6h-12.5l6.2-16.9L690.9,184.6z"
	/>
<path class="st0" d="M703.3,165h3.2v28.2h-3.2V165z"/>
<path class="st2" d="M703.3,165h3.2v28.2h-3.2V165z"/>
<path class="st0" d="M739.2,193.2h-5.2l-15.8-25.6H718v25.6h-3.2V165h5.2l15.8,25.7h0.1V165h3.2V193.2z"/>
<path class="st2" d="M739.2,193.2h-5.2l-15.8-25.6H718v25.6h-3.2V165h5.2l15.8,25.7h0.1V165h3.2V193.2z"/>
<g>
	<path class="st3" d="M22.3,119.4c0-53.5,43.4-96.9,96.9-96.9S216,65.9,216,119.4s-43.4,96.9-96.9,96.9S22.3,172.9,22.3,119.4"/>
	<path class="st0" d="M25.6,115.1c4.1-0.1,8.4-0.1,12.8,0c0.5-7.5,2.4-21.8,8.6-36.9c-4.3,0.4-8.5,1-12.7,1.7
		C29,90.9,26.1,102.9,25.6,115.1L25.6,115.1z M66.4,75.7c5.5,0.3,10.8,0.8,15.5,1.8c3.9-9.9,8.7-18.8,13.2-26.4
		c-4.5-1.2-9.3-1.9-14.2-2.4C75.5,55.6,70.4,64.4,66.4,75.7z M41,115.2c4.5,0.1,9,0.3,13.4,0.6c0.5-6.6,2.3-22,8.6-38.5
		c-4.7,0-9.4,0.3-14,0.7C45,88.3,42.2,100.5,41,115.2z M88.9,193.2c2.3,0.2,4.5,0.4,6.5,0.7c-1.6-1.8-3-3.6-4.4-5.5
		c-5.4-7.5-9.6-15.3-12.8-23.5c-3.5-0.6-7.5-0.9-11.6-1.2C71.3,174,78.3,184.4,88.9,193.2L88.9,193.2z M109.5,26.5
		c-9.3,1.6-25.6,6.3-40.1,20c3.6,0.1,7.3,0.4,11,0.8C87.8,38.6,97.3,31.2,109.5,26.5z M115.8,209c-8.7-2.9-18.5-7.4-27.6-14.2
		c-4.1-0.2-8.4-0.2-12.6-0.1c11.2,8.6,26.1,15.3,45.6,18.3c2.5-0.1,5-0.2,7.5-0.5c-2.1-0.4-4.2-0.9-6.2-1.5
		C120.2,210.5,117.9,209.8,115.8,209L115.8,209z"/>
	<path class="st0" d="M129.4,212.4c0.9-0.1,1.9-0.2,2.8-0.4c-2,0-4.1-0.2-6.1-0.4C127.2,211.9,128.3,212.2,129.4,212.4z M57.8,119.2
		c0,0-1.4,20,7.6,41.8c4.2,0.4,8.2,1,11.9,1.6c-4.6-13.1-6.4-27-5.3-42.1c-4.4-0.7-9.2-1.2-14.2-1.4
		C57.8,119.1,57.8,119.2,57.8,119.2L57.8,119.2z M78.1,88c1-3.1,2.1-6.1,3.3-9.1c-4.8-1-10.1-1.5-15.5-1.6
		c-3.7,10.6-6.4,23.4-7.8,38.8c5,0.4,9.8,1,14.2,1.9C73.1,108.4,75,98.4,78.1,88L78.1,88z M49.9,75.6c4.6-0.1,9.3-0.1,13.8,0
		c3.6-9.2,8.7-18.6,15.6-27.1c-3.8-0.3-7.6-0.5-11.4-0.6C61.1,54.9,54.7,63.9,49.9,75.6L49.9,75.6z M68.1,46.4
		c8.1-7.8,18.5-14.4,31.7-18.6c-14.6,3-27.9,9.5-39.2,18.5C63.1,46.3,65.6,46.3,68.1,46.4z M113.1,26c-8.2,2.5-20.3,8.2-31.1,21.4
		c5,0.5,9.7,1.3,14,2.4C103.3,37.7,110.2,29.4,113.1,26C113.1,26,113.1,26,113.1,26z"/>
	<path class="st0" d="M48,75.7c4.2-9.5,10.1-19.2,18.5-27.7c-2.8,0-5.5,0-8.1,0.2C49.2,56,41.6,65.5,36,76.2
		C39.9,76,43.9,75.8,48,75.7L48,75.7z M119,25.8c-0.8,0-1.6,0-2.5,0c-0.7,2.5-6.3,25.8,5.2,50.4c8.8,13.9,17.1,21.5,23.2,27
		c1.2,1.1,2.3,2.1,3.3,3c0.8,0.8,2,1.8,3.3,3c8.7,7.7,24.8,22,29.7,39.5c5.4,19.2-1.4,34.5-5.9,41.9c-1.6,2.6-3.7,5.3-6.3,7.9
		c26.1-16.6,43.5-45.8,43.5-79.1C212.6,67.7,170.8,25.8,119,25.8L119,25.8z M69.6,192.4c-8.7-7.1-16.7-16.5-22.4-29
		c-3.5,0.1-7,0.2-10.5,0.4c6,11,14.1,20.8,23.9,28.7C63.6,192.4,66.6,192.4,69.6,192.4L69.6,192.4z M61.5,160.6
		c-4.6-11.3-7.4-24.9-7.3-41.4v-0.3c-4.4-0.1-9-0.1-13.5,0c0,0.4-0.1,0.8-0.1,1.3c0,0-0.5,18.8,8.3,39.6
		C53.1,159.9,57.3,160.2,61.5,160.6L61.5,160.6z M72.8,192.5c4.3,0.1,8.8,0.3,13,0.5c-9-7.2-17.3-16.7-23.1-29.4
		c-4.1-0.1-8.1-0.2-12.2-0.1C55.4,173.5,62.4,183.7,72.8,192.5z M45.4,159.5c-4.3-10.8-7.1-23.6-7.3-38.9c0,0,0-0.6,0-1.7
		c-4.3,0.1-8.6,0.4-12.7,0.6c0,14.1,3.1,27.5,8.8,39.5C37.8,159.1,41.5,159.3,45.4,159.5z M115.5,212.9c-11.2-2.1-27.9-7-43-18.2
		c-3,0.1-5.9,0.3-8.5,0.4C79.1,206.1,97,212.3,115.5,212.9z M96.9,195.6c-1.9-0.3-3.9-0.5-5.8-0.7c5.2,4.1,11.4,7.8,18.4,10.9
		C105.2,203.4,101,200.1,96.9,195.6z"/>
</g>
<path class="st3" d="M114,23.8c-0.3,0.3-24.7,26.7-36.6,63.9c-5.8,19.8-7.7,38.3-5.5,55c2.2,16.7,8.4,32.2,18.5,46.2
	c11.5,15.9,25.9,24,42.7,24c6.1,0,11.6-1,15.7-2c12.9-2.8,22.5-12.1,27.3-19.9c4.6-7.5,11.5-23.1,6-42.5
	c-5-17.6-21.2-32.1-29.9-39.8c-1.3-1.2-2.5-2.2-3.3-3c-1.1-1-2.2-2.1-3.3-3c-6-5.5-14.3-13-23-26.8c-12-25.7-5.2-49.8-5.1-50
	L114,23.8z"/>
<path class="st4" d="M115.4,25.2c0,0-7.2,24.9,5.3,51.6c10.6,16.8,20.5,24.4,26.7,30.3c6.3,6,27,22.1,32.7,41.9
	c5.6,19.8-2.2,35-5.8,40.9c-3.6,5.9-12.5,16-26,19c-13.5,3-36.5,6.1-56.3-21.3s-24.3-60.1-12.7-99.3
	C91.3,51.2,115.4,25.2,115.4,25.2z"/>
</svg>
