<svg xmlns="http://www.w3.org/2000/svg" width="34.233" height="30.75" viewBox="0 0 34.233 30.75">
  <path id="Path_31" data-name="Path 31" d="M28.188-23.223a1.913,1.913,0,0,1-1.281.48,1.63,1.63,0,0,1-1.2-.48L18.1-30.83,6.006-18.818,4.885-19.859a5.624,5.624,0,0,1-1.321-2.362,4.789,4.789,0,0,1,0-2.6,5.649,5.649,0,0,1,1.321-2.322l7.287-7.207a4.494,4.494,0,0,1,2.282-1.361,5.53,5.53,0,0,1,2.643,0,4.494,4.494,0,0,1,2.282,1.361l8.809,8.729a1.63,1.63,0,0,1,.48,1.2A1.63,1.63,0,0,1,28.188-23.223Zm1.2-3.6a3.259,3.259,0,0,1,.961,2.4,3.259,3.259,0,0,1-.961,2.4,4.054,4.054,0,0,1-1.682,1,2.786,2.786,0,0,1-1.481,0,3.645,3.645,0,0,1-1.121-.521,5.665,5.665,0,0,1-.6-.48L18.1-28.428,8.568-18.9a1.63,1.63,0,0,0-.48,1.2,1.63,1.63,0,0,0,.48,1.2,1.63,1.63,0,0,0,1.2.48,1.63,1.63,0,0,0,1.2-.48L18.9-24.424l1.2,1.281-7.848,7.848a1.517,1.517,0,0,0-.561,1.2,1.517,1.517,0,0,0,.561,1.2,1.582,1.582,0,0,0,1.161.48,1.863,1.863,0,0,0,1.241-.48L22.5-20.74l1.281,1.2-7.928,7.848a1.863,1.863,0,0,0-.48,1.241,1.582,1.582,0,0,0,.48,1.161,1.517,1.517,0,0,0,1.2.561,1.517,1.517,0,0,0,1.2-.561l7.928-7.848,1.2,1.2L19.459-8.008a1.582,1.582,0,0,0-.48,1.161,1.863,1.863,0,0,0,.48,1.241,1.63,1.63,0,0,0,1.2.48,1.63,1.63,0,0,0,1.2-.48L36.115-19.859a5.624,5.624,0,0,0,1.321-2.362,4.789,4.789,0,0,0,0-2.6,5.649,5.649,0,0,0-1.321-2.322l-7.287-7.207a5.065,5.065,0,0,0-2.242-1.321,4.91,4.91,0,0,0-2.562-.04,5.7,5.7,0,0,0-2.322,1.2Z" transform="translate(-3.383 35.875)" fill="#fff"/>
</svg>
