<svg xmlns="http://www.w3.org/2000/svg" width="27.387" height="27.35" viewBox="0 0 27.387 27.35">
  <path id="Path_30" data-name="Path 30" d="M10.33-27.227q2.643-2.643,8.608-4.364a61.818,61.818,0,0,1,10.61-2.2l4.645-.4q-.08,2-.44,5.165a71.08,71.08,0,0,1-2.122,9.609q-1.762,6.446-4.4,9.089A11.533,11.533,0,0,1,20.74-7.007a11.548,11.548,0,0,1-7.047-1A27.178,27.178,0,0,1,17.137-16.7,27.31,27.31,0,0,1,22.9-23.943,26.317,26.317,0,0,0,10.33-10.33a12.025,12.025,0,0,1-2.482-3.964,12.041,12.041,0,0,1-1.041-4.524A11.75,11.75,0,0,1,7.848-23.3,12.1,12.1,0,0,1,10.33-27.227Z" transform="translate(-6.807 34.193)" fill="#fff"/>
</svg>
