<?xml version="1.0" encoding="utf-8"?>
<!-- Generator: Adobe Illustrator 27.9.0, SVG Export Plug-In . SVG Version: 6.00 Build 0)  -->
<svg version="1.1" id="Layer_1" xmlns="http://www.w3.org/2000/svg" xmlns:xlink="http://www.w3.org/1999/xlink" x="0px" y="0px"
	 viewBox="0 0 760 230" style="enable-background:new 0 0 760 230;" xml:space="preserve">
<style type="text/css">
	.st0{fill-rule:evenodd;clip-rule:evenodd;fill:#00A651;}
	.st1{fill-rule:evenodd;clip-rule:evenodd;fill:#21409A;}
</style>
<path class="st0" d="M389,75.2c-11.9,0-16.5,1-23.2,3.4c-10.8-42,7.2-68,74.3-75.4c-5.2,8.3-9.9,21-11.5,32.2
	C425.1,59.3,416,75.3,389,75.2z"/>
<path class="st1" d="M46.7,78.6c12.7-0.5,23.5,1.2,32.8,4.1l-7,18.9c-5.6-2.4-12.9-3.7-18.3-4.1c-7-0.5-16.3,1-16.4,7.9
	c-0.1,4.7,3.9,7.3,13.4,8.9c21.8,3.6,34.5,11.1,34.7,31.1C86,164,72.1,176.7,46,177.2c-15.8,0.3-32.1-3.8-39.6-7.9l8-18.7
	c6.4,2.8,14.2,6.6,26.3,6.7c8.4,0.1,16-2.3,16.1-8.9c0.2-7.4-7.1-8-16.5-9.8c-19.8-3.8-33-11.1-31.7-29.8
	C10,89.1,24.4,79.6,46.7,78.6L46.7,78.6z M117.1,82L86,82l36.1,92.5l-5.9,14.2c-8,15.3-16.7,20.3-32.5,14.8l-4.6,19
	c34.5,7.1,52-3,63.7-30.2l45-110.3h-26.9l-22.7,60.9l-0.9-5.4L117.1,82L117.1,82z M193.3,82.1l28.8-0.1v8.6
	c8.6-5.7,19.6-10.5,30.1-10.6c16.9-0.1,30.2,8.7,30.8,26.2l0,69.2l-28.8,0c-0.2-20.3-0.3-40.6-0.5-60.9c0.1-7.8-3.8-13.1-14.4-12.6
	c-6.9,0.3-12.4,4.1-16.6,8.3V175h-29.5V82.1L193.3,82.1z M496.5,81.4l28.8-0.1V90c8.6-5.7,19.6-10.5,30.1-10.6
	c16.9-0.1,30.2,8.7,30.8,26.2l0,69.2l-28.8,0c-0.2-20.3-0.3-40.6-0.5-60.9c0.1-7.8-3.8-13.1-14.4-12.6c-6.9,0.3-12.4,4.1-16.6,8.3
	v64.8h-29.5V81.4L496.5,81.4z M342.3,96.2c8.6,0,14.2,6.5,14.2,14.4c0,8-5.3,14.4-14.2,14.4c-8.9,0-14.2-6.5-14.2-14.4
	C328.1,102.7,333.7,96.2,342.3,96.2L342.3,96.2z M345.7,79.6c-30.3-0.2-45.7,13.3-46.2,30.8c-0.2,9.2,4.5,17.2,12.7,22.8
	c-10.1,5-17.6,13.7-17.8,23c-0.1,8.7,4.9,16,13.3,20.1c-9.7,6.2-15.2,13.7-14.9,21.8c0.4,17.6,15.5,28.7,45.3,28.7
	c40.5,0,53.8-21.5,54.5-40.2c0.7-19.8-13.9-29.4-30.4-30.4c-6.5,0-12.9,0.1-19.4,0.1H338c-13.4-0.3-16.4-3.8-16.3-8.1
	c0.1-3.8,3.3-6.3,7.4-8.1c4,0.8,8.3,1.3,12.8,1.3c25.2,0,42.4-13.5,42.4-30.9C384.3,93,376.1,79.7,345.7,79.6L345.7,79.6z
	 M340.5,180c11.3,0.1,23.6-0.8,23.4,10.8c-0.8,8.8-5.4,15.8-23.7,16.3c-12.1-0.2-24.3-4.2-23.5-14c0.4-4.6,4.3-11,11.7-13.2
	c3.4,0,6.4,0,10.5,0.1l0,0l0,0C339.4,180,339.9,180,340.5,180L340.5,180L340.5,180z M422.9,135.1c1.6,16.8,11.2,22.5,26.7,21.9
	c9.1-0.4,18.8-3.6,24.2-7.4l7.6,17.2c-11.1,5.7-26.6,10.7-41.7,10.5c-28.7-0.3-48.4-18.9-46.9-49c1.2-23.4,15.1-47.2,49-48.4
	c14.8-0.5,27.7,5.2,34.7,13.8c8.7,10.8,9.5,23.2,8.9,41.3L422.9,135.1L422.9,135.1z M455.6,116.3c0.1-1.5,0.2-3.3,0-5.4
	c-0.8-7.1-7-12.1-15.1-11.6c-9.9,0.6-14.8,7.9-16.8,16.9H455.6L455.6,116.3z M595.9,82h14.7V61.5l28.8-8.3V82h25.5v18.6h-25.5v42.3
	c0.2,10.8,5.4,15.2,14.7,14.3c3-0.3,6.4-0.5,9.4-0.8l1.4,19.1c-7.6,1.2-13.9,2.1-22.2,2c-25.5-0.3-33-12.2-32.1-35.7v-41.2h-14.7V82
	L595.9,82z M753.9,113.2l0.1,62.1h-27.8v-7.1c-4.5,5.1-12.4,8.1-25.2,8.7c-16.6,0.8-31.5-7.8-30.2-26.9
	c0.4-24.7,23.6-32.3,40.4-33.9c5-0.5,10.1-0.5,14.7-0.3v-1.2c0-10-5.1-15.4-16.3-14.7c-12,0.7-21.6,5.5-27,9.3l-7.2-17.3
	c10.6-6.4,29.1-14,48-11.5C747.4,83.5,753.2,93.4,753.9,113.2L753.9,113.2z M725.9,150.3v-17.4c-4.2,0.2-8.5,0.7-11.9,1
	c-7.2,0.6-13.6,3.7-14.5,12.7c0.4,7.7,5.4,10.3,12.7,11.1C717.7,156.5,722.4,154.5,725.9,150.3z"/>
</svg>
