<svg xmlns="http://www.w3.org/2000/svg" width="27" height="33.047" viewBox="0 0 27 33.047">
  <path id="Path_28" data-name="Path 28" d="M14.836-14.836A4.325,4.325,0,0,1,13.5-18a4.325,4.325,0,0,1,1.336-3.164A4.325,4.325,0,0,1,18-22.5a4.325,4.325,0,0,1,3.164,1.336A4.325,4.325,0,0,1,22.5-18a4.325,4.325,0,0,1-1.336,3.164A4.325,4.325,0,0,1,18-13.5,4.325,4.325,0,0,1,14.836-14.836ZM31.5-28.477v9a18.584,18.584,0,0,1-2.883,9.984l-4.359-4.359A7.327,7.327,0,0,0,25.523-18a7.773,7.773,0,0,0-.633-2.848,7.334,7.334,0,0,0-1.547-2.5,7.334,7.334,0,0,0-2.5-1.547A7.773,7.773,0,0,0,18-25.523a7.51,7.51,0,0,0-2.812.633,7.389,7.389,0,0,0-2.461,1.547,7.753,7.753,0,0,0-1.582,2.5A7.427,7.427,0,0,0,10.477-18a7.178,7.178,0,0,0,.668,2.813,7.825,7.825,0,0,0,1.582,2.461,7.825,7.825,0,0,0,2.461,1.582A7.178,7.178,0,0,0,18-10.477a7.327,7.327,0,0,0,4.148-1.266l4.641,4.711A16.574,16.574,0,0,1,18-1.477,16.794,16.794,0,0,1,8.367-8.051,18.632,18.632,0,0,1,4.5-19.477v-9L18-34.523Z" transform="translate(-4.5 34.523)" fill="#fff"/>
</svg>
