<?xml version="1.0" encoding="utf-8"?>
<!-- Generator: Adobe Illustrator 27.9.0, SVG Export Plug-In . SVG Version: 6.00 Build 0)  -->
<svg version="1.1" id="Layer_1" xmlns="http://www.w3.org/2000/svg" xmlns:xlink="http://www.w3.org/1999/xlink" x="0px" y="0px"
	 viewBox="0 0 760 230" style="enable-background:new 0 0 760 230;" xml:space="preserve">
<style type="text/css">
	.st0{fill:#0063A3;}
</style>
<path class="st0" d="M203.1,177V76.6h-37V54.1h101.4v22.7h-37.3v100.4L203.1,177z"/>
<path class="st0" d="M245.3,177V88.9H272v14.3h0.2c4.9-7.5,13.3-16.6,29.9-16.6h0.8v23.8c-1-0.2-5.7-0.5-7.3-0.5
	c-9.3,0.1-18.1,4.6-23.6,12.1v55.1L245.3,177z"/>
<path class="st0" d="M311.4,76.4V54.9h26.9v21.5H311.4z M311.6,177.1V88.4h26.6V177L311.6,177.1z"/>
<path class="st0" d="M348.6,177V88.4h26.7v14c5.3-7,15.1-15.8,29.2-15.8c14.8,0,21.8,6.1,24.3,15.8c5.3-6.8,15.3-15.8,29.2-15.8
	c17.9,0,25.9,11.3,25.9,27.1V177h-26.8v-56.2c0-8-1.8-12.1-9.6-12.1c-6.6,0-12,3.7-17.8,8.8V177H403v-56.2c0-8-1.8-12.1-9.7-12.1
	c-6.6,0-12,3.7-17.9,8.8V177H348.6z"/>
<path class="st0" d="M520.8,166.6V177H494v-123h26.8v48c5.8-8.1,14.1-15.5,27.2-15.5c20.1,0,34,15.5,34,46s-14.1,45.8-34.4,45.8
	C535.7,178.4,527.4,174,520.8,166.6z M555.4,132.8c0-14.8-5.2-24.1-17.1-24.1c-6.8,0-13,4.2-17.4,8.7v32.7
	c5.8,5.5,10.6,8.1,17.8,8.1C549.7,158.2,555.4,148.9,555.4,132.8L555.4,132.8z"/>
<path class="st0" d="M590.4,177v-123H617v123H590.4z"/>
<path class="st0" d="M625.3,132.8c0-34.4,26.3-46.2,44.5-46.2s40.7,9.2,40.7,49.4v4h-58.7c1.3,14.6,9.5,20.3,20.6,20.3
	c9.7-0.3,19.1-4.1,26.3-10.6l10.3,16c-10.3,8.8-23.1,13.3-38.6,13.3C647.4,178.9,625.3,167.1,625.3,132.8z M686.6,124.2
	c-1.3-12.5-7-18.5-17-18.5c-8.3,0-15.5,5.5-17.4,18.5H686.6z"/>
<path class="st0" d="M715.6,167.1c-0.1-5.5,4.4-10.1,9.9-10.1c0.1,0,0.2,0,0.2,0c5.6,0,10.1,4.5,10.1,10.1c0,5.6-4.5,10.1-10.1,10.1
	C720.1,177.3,715.6,172.7,715.6,167.1z M734,167.1c-0.1-4.6-3.9-8.3-8.5-8.2c-4.6,0.1-8.3,3.9-8.2,8.5c0.1,4.6,3.8,8.2,8.4,8.2
	c4.6,0,8.3-3.7,8.3-8.3C734,167.2,734,167.2,734,167.1z M721.8,161.3h4.1c2.6,0,4.1,1.1,4.1,3.4c0.1,1.4-0.8,2.8-2.2,3.1l2.4,4.6
	H728l-2.2-4.2H724v4.2h-2.2L721.8,161.3z M725.8,166.5c1.4,0,2.1-0.4,2.1-1.6s-0.7-1.6-2.2-1.6H724v3.2H725.8z"/>
<path class="st0" d="M25.4,159.7v38.2l33.2-19.2C45.9,175.9,34.3,169.3,25.4,159.7z"/>
<path class="st0" d="M58.4,54.9l-33-19v38C34.2,64.3,45.8,57.7,58.4,54.9z"/>
<path class="st0" d="M165.7,116.9l-33.2-19.2c3.9,12.5,3.9,25.9-0.1,38.4L165.7,116.9z"/>
<path class="st0" d="M47.3,64.9c4.8-1.1,14.7,0,19.9,1.4c4.9-3.5,10.8-5.4,16.8-5.6C71.6,58.7,58.9,60.1,47.3,64.9z"/>
<path class="st0" d="M110.6,134.5c-0.8-7.3-2.6-14.4-5.2-21.3c-11.3,5.2-25.5,1.8-34.9-6.3c-6.9,7.2-13.1,15.1-18.5,23.5
	C68,143.4,94.2,146.8,110.6,134.5z"/>
<path class="st0" d="M43.3,131.6c-14.1-14.4-19-35.4-14.5-51.6c-19.1,22.6-17.7,56,3.2,76.9C34.7,148,38.4,139.5,43.3,131.6z"/>
<path class="st0" d="M102.9,107.1c-3-6.3-6.8-12.2-11.3-17.5c-5.7,3.8-11.1,8-16.2,12.6C83.9,109.3,95,110.7,102.9,107.1z"/>
<path class="st0" d="M92.3,80.8c3.8-2.8,8-5.1,12.3-6.9c-9-9.1-23.5-8.9-29.8-4.9C81.3,71.9,87.2,75.9,92.3,80.8z"/>
<path class="st0" d="M48.5,136.3c-7,12.1-9.6,21.1-10.5,25.7c20.9,15.7,49.7,15.1,70-1.4c2.3-5.9,3.4-12.1,3.2-18.4
	C91.8,153.8,65.1,149.4,48.5,136.3z"/>
<path class="st0" d="M108.4,103c6.2-6.5,5-17.6,0.2-23.9c-4.1,1.7-8,4-11.6,6.8C101.5,91.1,105.3,96.9,108.4,103z"/>
<path class="st0" d="M119.1,89.1c1,7.7-1.9,15.4-7.8,20.4c2.5,6.1,4.3,12.5,5.4,19.1C125.1,117.5,124.9,101.7,119.1,89.1z"/>
<path class="st0" d="M70.7,97.3c5-4.6,10.3-8.8,15.9-12.6C81.6,80,75.6,76.4,69.2,74C63.9,81.1,65.5,90.2,70.7,97.3z"/>
<path class="st0" d="M117.7,137.4c0.2,4.8,0,9.6-0.7,14.4c8.8-11.3,13-25.4,11.8-39.7C127.9,121.6,124,130.5,117.7,137.4z"/>
<path class="st0" d="M62.5,72c-7.4-1.8-15.1-1.8-22.5,0.1c-11.2,15.8-6,39,7,53.5c5.5-8.4,11.9-16.3,18.9-23.6
	C59.3,93.8,56.7,81.1,62.5,72z"/>
</svg>
