<?xml version="1.0" encoding="utf-8"?>
<!-- Generator: Adobe Illustrator 27.9.0, SVG Export Plug-In . SVG Version: 6.00 Build 0)  -->
<svg version="1.1" id="Layer_1" xmlns="http://www.w3.org/2000/svg" xmlns:xlink="http://www.w3.org/1999/xlink" x="0px" y="0px"
	 viewBox="0 0 760 230" style="enable-background:new 0 0 760 230;" xml:space="preserve">
<style type="text/css">
	.st0{fill:none;}
	.st1{fill:#EC2227;}
	.st2{fill:#FFFFFF;}
	.st3{fill:#095DA9;}
</style>
<path class="st0" d="M185.2,18.1V2.2c0-4.7,3.8-8.6,8.6-8.6h15.7c4.7,0,8.6,3.8,8.6,8.6v15.9c0,4.7-3.8,8.6-8.6,8.6h-15.9
	C189,26.7,185.2,22.7,185.2,18.1"/>
<path class="st0" d="M185.2-15v-15.7c0-4.7,3.8-8.6,8.6-8.6h15.7c4.7,0,8.6,3.8,8.6,8.6v15.9c0,4.7-3.8,8.6-8.6,8.6h-15.9
	C189-6.4,185.2-10.2,185.2-15"/>
<g id="villa" transform="translate(-12.72 -12.19)">
	<path id="Path_4" class="st1" d="M651.4,75.2c0,28.7-24.4,52.1-54.6,52.1c-30.2,0-54.6-23.2-54.6-52.1c0-28.7,24.4-52.1,54.6-52.1
		C626.9,23.1,651.4,46.5,651.4,75.2"/>
	<path id="Path_5" class="st2" d="M617.2,75.2l-20.4-19.4l-20.4,19.4l20.4,19.4L617.2,75.2z M596.8,111.3l-38.1-36.2L596.8,39
		l38.1,36.2L596.8,111.3z"/>
	<path id="Path_6" class="st3" d="M298.6,100.1l-58.1,120.2c-3,6.7-10,11-17.5,10.5c-7.5,0.5-14.5-3.7-17.5-10.5L147,100.1h26.9
		l48.9,100.7l49.4-100.7H298.6z"/>
	<path id="Path_7" class="st3" d="M324.3,229.3h-25.7V100.1h25.7C324.3,100.1,324.3,229.3,324.3,229.3z M328.3,70.7
		c0,4-2,7.7-5.2,10.2c-3.2,3-7.7,4.5-12.2,4.5c-4.2,0-8.5-1.5-12-4.2c-3.2-2.5-5-6.2-5-10.2c0-4,1.7-8,4.7-10.5
		c3.2-3,7.7-4.5,12-4.5c4.5-0.2,8.7,1.5,12.2,4.2C326.3,62.7,328.3,66.7,328.3,70.7"/>
	<rect id="Rectangle_20" x="341.2" y="54.5" class="st3" width="25.7" height="174.8"/>
	<rect id="Rectangle_21" x="383.9" y="54.5" class="st3" width="25.7" height="174.8"/>
	<path id="Path_8" class="st3" d="M520,192.6v-24.7c0-2.7-2-4-6-4h-49.9c-12.5,0-18.4,5.2-18.4,16v12.7c0,4.2,2,8.2,5.5,10.7
		c4,2.7,8.7,4.2,13.5,4H502C514,207.1,520,202.1,520,192.6 M545.7,196.8c0.2,8.7-3.2,17.5-9.7,23.4c-6.5,6-15.5,9-26.7,9h-49.4
		c-12,0-21.2-2.5-28.4-7.7c-7.5-5.2-11.7-14-11.5-23.2v-23.2c0-10.2,3.5-18,10.2-23.7c6.7-5.7,16.2-8.5,28.2-8.5h61.8
		c-0.2-7.2-1.5-12.5-3.7-15.5c-2.7-3.7-8.2-5.7-16.5-5.7h-64.6v-21.7h68.1c28.2,0,42.1,11,42.1,32.7V196.8L545.7,196.8z"/>
</g>
</svg>
