<svg xmlns="http://www.w3.org/2000/svg" width="41.555" height="41.309" viewBox="0 0 41.555 41.309">
  <path id="vision" d="M3.223-1.207H-3.223V-9.375H3.223Zm-3.445-3H.223V-6.375H-.223Zm-12.068-.712L-16.873-9.5l5.211-5.348,4.582,4.582Zm-.367-4.61.339.339,1.023-1.05-.339-.339ZM12.291-4.92,7.062-10.286l4.6-4.451,5.221,5.221Zm-.978-5.3L12.319-9.19l.326-.326-1.014-1.014ZM0-9.9a11.611,11.611,0,0,1-8.484-3.516A11.611,11.611,0,0,1-12-21.9a11.611,11.611,0,0,1,3.516-8.484A11.611,11.611,0,0,1,0-33.9a11.611,11.611,0,0,1,8.484,3.516A11.611,11.611,0,0,1,12-21.9a11.611,11.611,0,0,1-3.516,8.484A11.611,11.611,0,0,1,0-9.9Zm0-21a8.6,8.6,0,0,0-6.363,2.637A8.6,8.6,0,0,0-9-21.9a8.6,8.6,0,0,0,2.637,6.363A8.6,8.6,0,0,0,0-12.9a8.6,8.6,0,0,0,6.363-2.637A8.6,8.6,0,0,0,9-21.9a8.6,8.6,0,0,0-2.637-6.363A8.6,8.6,0,0,0,0-30.9ZM20.777-18.6h-8.25v-6.527h8.25Zm-5.25-3h2.25v-.527h-2.25Zm-28.055,3h-8.25v-6.527h8.25Zm-5.25-3h2.25v-.527h-2.25Zm29.426-7.371L7.066-33.551,12.3-38.789l4.582,4.582Zm-.34-4.582.34.34,1-1-.34-.34Zm-22.957,4.582-5.238-5.238,4.582-4.582,5.239,5.239Zm-1-5.239,1,1,.34-.34-1-1Zm15.867-.141H-3.223v-8.168H3.223Zm-3.445-3H.223v-2.168H-.223Z" transform="translate(20.777 42.516)" fill="#b6db65"/>
</svg>
