<?xml version="1.0" encoding="utf-8"?>
<!-- Generator: Adobe Illustrator 28.0.0, SVG Export Plug-In . SVG Version: 6.00 Build 0)  -->
<svg version="1.1" id="Layer_1" xmlns="http://www.w3.org/2000/svg" xmlns:xlink="http://www.w3.org/1999/xlink" x="0px" y="0px"
	 viewBox="0 0 903 904" style="enable-background:new 0 0 903 904;" xml:space="preserve">
<style type="text/css">
	.st0{fill-rule:evenodd;clip-rule:evenodd;fill:none;stroke:#27A8E0;stroke-width:10;stroke-miterlimit:10;}
	.st1{fill-rule:evenodd;clip-rule:evenodd;fill:#707070;}
</style>
<g>
	<path class="st0" d="M467.3,22.1c3-0.4,5.4,0.5,7.3,2.7c2.7,4.5,5.3,8.9,8,13.4c25.8,32.1,51.6,64.1,77.5,96.2
		c-2.6,31.6-5.9,63.3-10,94.8c3.4,64.1,7,128.2,10.7,192.4c41.7-28.1,83.5-55.9,125.6-83.5c7-3.3,14.1-6.2,21.4-8.7
		c8.2,3.9,12.8,10.1,14,18.7c-1.3,4-2.7,8-4,12c-13.3,25.8-26.7,51.6-40.1,77.5c-1.4,2.8-3.4,5.1-6,6.7
		c-39.4,9.5-78.8,18.8-118.2,28.1c-1.5-0.1-2.8-0.6-4-1.3c-29.3-60-58.3-120.1-86.8-180.3c-14.2-37.1-28.2-74.3-42.1-111.5
		c10.8-43.9,21.7-87.8,32.7-131.6c0.2-7.6,0.9-15.2,2-22.7C459.5,24,463.5,23.1,467.3,22.1z"/>
</g>
<g>
	<path class="st0" d="M586.2,149c12.5,1.5,25,3.3,37.4,5.3c0.8,5.1,1.7,10.2,2.7,15.4c-4.7,16.5-9,33.2-12.7,50.1
		c-4.3,3.8-8.1,8.1-11.4,12.7c-6.1,0.8-11.9-0.3-17.4-3.3c-2.9-4-5.8-8-8.7-12c0-20,0.5-40.1,1.3-60.1
		C580.3,154,583.2,151.4,586.2,149z"/>
</g>
<g>
	<path class="st0" d="M693.1,178.4c17.3,6.7,33.8,15.1,49.4,25.4c-18.2,18.6-34.4,38.6-48.8,60.1c-5.9,4-12.4,7.1-19.4,9.4
		c-5-3.1-9.7-6.6-14-10.7c-0.9-7.6-0.9-15.1,0-22.7c6.3-17.4,12.8-34.8,19.4-52.1C684.3,184.6,688.7,181.5,693.1,178.4z"/>
</g>
<g>
	<path class="st0" d="M389.8,182.4c5.8,0.5,10.9,2.8,15.4,6.7c2.1,9.7,2.5,19.5,1.3,29.4c-3,7.8-8.7,11.9-17.4,12
		c-3.9-1.6-7.7-3.4-11.4-5.3c-3.4-7-7-13.9-10.7-20.7c2.4-5.1,5.1-10,8-14.7C380.5,188,385.4,185.5,389.8,182.4z"/>
</g>
<g>
	<path class="st0" d="M321.7,225.1c4.9-0.2,9.8,0,14.7,0.7c6,6,12,12,18,18c0.9,3.6,0.9,7.1,0,10.7c-6.3,5.3-12.8,10.4-19.4,15.4
		c-7.2,1.1-14.3,0.9-21.4-0.7c-6.1-11.3-8.1-23.3-6-36.1C312.6,230.6,317.2,227.9,321.7,225.1z"/>
</g>
<g>
	<path class="st0" d="M777.2,251.9c7.1-0.2,14.3,0,21.4,0.7c6.9,4.5,14.1,8.7,21.4,12.7c0.9,7.7,0,15.2-2.7,22.7
		c-20.9,14.5-41.9,28.9-62.8,43.4c-5.8,1-11.6,1.5-17.4,1.3c-4.7-4.7-9.4-9.4-14-14c0.5-5.4,1.8-10.8,4-16
		C744,286,760.6,269.1,777.2,251.9z"/>
</g>
<g>
	<path class="st0" d="M580.9,253.2c6.5,0.2,12.7,1.5,18.7,4c3.5,5.7,6.6,11.5,9.4,17.4c-4.5,24.6-8.7,49-12.7,73.5
		c15.4-20.4,30.3-41.1,44.7-62.1c4.1-1.8,8.4-3.4,12.7-4.7c7.5,3.9,14.4,8.5,20.7,14c-1.5,6.5-3,12.9-4.7,19.4
		c-30.3,25.8-60.6,51.7-90.8,77.5c-3.9-1.6-7.6-3.4-11.4-5.3c-1.7-37.8-2.3-75.7-2-113.5C570.6,266.5,575.8,259.8,580.9,253.2z"/>
</g>
<g>
	<path class="st0" d="M383.2,295.9c1,1,1.7,2.4,2,4c2.7,0,5.3,0,8,0c0.4-0.9,0.9-1.8,1.3-2.7c1.3,0.5,2.4,1,3.3,1.3
		c-7.6,7.8-15.8,14.9-24.7,21.4c-15.9,29.7-32.4,59.1-49.4,88.2c-28.7,30.5-57.4,61-86.2,91.5c-18.9,16.3-38,32.4-57.4,48.1
		c-3.1,2.4-5.3,5.3-6.7,8.7c-3.2-3-5.6-6.5-7.3-10.7c-1.2,2.5-3.2,3.8-6,4c15.2-21.7,31.3-42.8,48.1-63.4
		c20.8-14.8,41.5-29.7,62.1-44.7c14.8-24.7,29.9-49.2,45.4-73.5C338,343.8,360.5,319.7,383.2,295.9z"/>
</g>
<g>
	<path class="st0" d="M848,325.3c6.7-0.4,13.4,0,20,1.3c7.7,14.5,14.6,29.2,20.7,44.1c-3.8,4.3-8.1,8.1-12.7,11.4
		c-24.5,10.2-49,20.5-73.5,30.7c-7.1,0.9-14.2,0.9-21.4,0c-2.4-5-4.6-10.1-6.7-15.4c5.1-10.2,10.2-20.4,15.4-30.7
		c15.8-12.2,31.6-24.5,47.4-36.7C840.7,327.7,844.3,326.1,848,325.3z"/>
</g>
<g>
	<path class="st0" d="M173.5,556.4c1.3-3.4,3.6-6.3,6.7-8.7c19.4-15.7,38.5-31.7,57.4-48.1c28.7-30.5,57.4-61,86.2-91.5
		c17-29,33.5-58.4,49.4-88.2c8.9-6.4,17.1-13.6,24.7-21.4c9.2-6.3,17.9-13.5,26-21.4c-9.2,15.1-19.4,29.8-30.7,44.1
		c-15.1,32-30.3,64.1-45.4,96.2c-58,52.6-116.8,104.3-176.3,154.9C171.8,567.1,172.5,561.8,173.5,556.4z"/>
</g>
<g>
	<path class="st0" d="M735.8,378.8c1.3-0.1,2.4,0.3,3.3,1.3c11.4,18.3,22.7,36.5,34.1,54.8c-25.6,2.8-51.3,5.5-76.8,8
		c-0.9-1.3-0.9-2.7,0-4C709.6,418.8,722.7,398.8,735.8,378.8z"/>
</g>
<g>
	<path class="st0" d="M439.3,291.9c8,7.9,15.3,16.3,22,25.4c1.6,37.8,2.2,75.7,2,113.5c7.1,0.4,14.2,0.9,21.4,1.3
		c-1-19.2-1.7-38.3-2-57.4c1-1.3,2.1-1.5,3.3-0.7c8.4,15.3,16.6,30.6,24.7,46.1c7.4,19.7,15.2,39.3,23.4,58.8
		c-11.7,13.2-22.6,27-32.7,41.4c-13.7,25.2-27.1,50.5-40.1,76.1c-15.5,35.5-31.8,70.7-48.8,105.5c-5.5-2.7-10.4-6.1-14.7-10
		c10.5-42.9,20.7-85.9,30.7-128.9c-3.7-16.5-8.2-32.8-13.4-48.8c-22.7-2.2-45.4-3.5-68.1-4c-54.4,25.7-108.7,51.1-163,76.1
		c38.7-30.7,77.5-61.4,116.2-92.2c30.1-28.3,60.1-56.5,90.2-84.8C406.9,370.3,423.2,331.1,439.3,291.9z"/>
</g>
<g>
	<path class="st0" d="M383.2,295.9c-22.7,23.8-45.1,47.8-67.5,72.1c-15.5,24.3-30.6,48.8-45.4,73.5c-20.6,15.1-41.3,30-62.1,44.7
		c-16.8,20.6-32.9,41.8-48.1,63.4c-2.4,2.6-4.6,5.5-6.7,8.7c-4.4,2.1-8.8,2.3-13.4,0.7c15.5-24.2,31.4-48.3,47.4-72.1
		c24.1-19.1,48.4-38,72.8-56.8c4.2-4.1,7.5-8.8,10-14c8.5-16,16.9-32.1,25.4-48.1c34.2-32,68.1-64.5,101.5-97.5
		c0.9,3.1,0.9,6.2,0,9.4C391.7,284.7,387.1,290,383.2,295.9z"/>
</g>
<g>
	<path class="st0" d="M392.5,428.2c8-0.2,16,0,24,0.7c20.8,6.5,40.1,15.6,58.1,27.4c0.9,2.2,0.9,4.5,0,6.7
		c-15.5,14.8-33.6,25.2-54.1,31.4c-7.2,1.1-14.4,0.7-21.4-1.3c-17.2-8.1-33.5-17.6-48.8-28.7c-3.1-4.5-2.4-8.2,2-11.4
		c10.2-6.2,20-12.8,29.4-20C385.4,430.9,388.9,429.3,392.5,428.2z"/>
</g>
<g>
	<path class="st0" d="M439.3,448.2c5.3,2.7,10.7,5.3,16,8c-1.4,4.1-4.1,6.7-8,8c0.2-1,0-1.9-0.7-2.7c-8.8,6.5-18.3,11.4-28.7,14.7
		c-0.9-0.4-1.8-0.9-2.7-1.3c-6.6,1.2-12.8,2.1-18.7,2.7c-0.4,0-0.9,0-1.3,0c0.3-1.6-0.2-2.9-1.3-4c-7.4-3.5-14-7.9-20-13.4
		c0.6-1.3,1.5-2.4,2.7-3.3c-0.9-0.4-1.8-0.9-2.7-1.3c12-12.7,26.7-17.1,44.1-13.4c5.9,2.2,11.7,4.7,17.4,7.3
		C436.5,448.7,437.8,448.3,439.3,448.2z"/>
</g>
<g>
	<path class="st0" d="M439.3,448.2c-1.4,0.1-2.8,0.5-4,1.3c-5.7-2.7-11.5-5.1-17.4-7.3c-17.4-3.7-32.1,0.7-44.1,13.4
		c0.9,0.4,1.8,0.9,2.7,1.3c-1.1,0.9-2,2-2.7,3.3c6,5.4,12.7,9.9,20,13.4c1.2,1.1,1.6,2.4,1.3,4c-9.9-4.6-19-10.4-27.4-17.4
		c-0.9-1.8-0.9-3.6,0-5.3C389.9,434.4,413.7,432.1,439.3,448.2z"/>
</g>
<g>
	<path class="st0" d="M447.3,464.2c-14.8,13.5-31.7,18-50.8,13.4c5.9-0.6,12.1-1.5,18.7-2.7c0.9,0.4,1.8,0.9,2.7,1.3
		c10.4-3.3,20-8.2,28.7-14.7C447.2,462.4,447.5,463.3,447.3,464.2z"/>
</g>
<g>
	<path class="st1" d="M862.7,408.6c1.8,0.1,2.1,0.8,1,2C862.9,410.2,862.5,409.5,862.7,408.6z"/>
</g>
<g>
	<path class="st0" d="M281.7,569.8c-6.2-0.9-12.5-1.8-18.7-2.7c31.5-9.8,62.9-20.1,94.2-30.7c16.2,4.4,32.4,8.4,48.8,12
		c0.2,21.4,0,42.7-0.7,64.1c-7.6,30.4-15.6,60.7-24,90.8c-7.7,6.3-15,13.2-22,20.7c-4.9,0.3-9.8-0.1-14.7-1.3c-4.3-4.3-9-8-14-11.4
		c-2.3-8.8-4.1-17.7-5.3-26.7c-19.4-20.3-38.7-40.5-58.1-60.8c-24.9-2.6-49.8-4.8-74.8-6.7c-1.2-3.2-1.7-6.5-1.3-10
		c15.8-5.6,31.6-11.4,47.4-17.4c17.9,5,36,9.7,54.1,14c20.3,19.4,40.6,38.8,60.8,58.1c4.2-3.5,7.5-7.5,10-12
		c-2.8-17.5-6.1-34.8-10-52.1c-8.7-8.7-17.4-17.4-26-26C311.9,571.1,296.8,570.5,281.7,569.8z"/>
</g>
<g>
	<path class="st0" d="M397.9,247.8c1-0.2,1.9,0,2.7,0.7c-30.9,25.4-61.6,51-92.2,76.8c-41.2,49.5-85.1,96.7-131.6,141.6
		c-24.7,29.2-49.4,58.3-74.1,87.5c7.7,2.8,15,6.2,22,10c1.7,10.8,3.9,21.5,6.7,32.1c1.7,31.6,3.4,63.2,5.3,94.8
		c16.9,23.2,33.8,46.3,50.8,69.5c0.9,8.9,0.9,17.8,0,26.7c-7.6,8.3-14.9,16.7-22,25.4c-15.6,1.6-31.1,1.8-46.8,0.7
		c-26.3-18.1-52.2-36.8-77.5-56.1c-9.3-30.6-18.2-61.4-26.7-92.2c6.4-19.1,13.3-38,20.7-56.8c31.2-39.2,62.3-78.4,93.5-117.5
		c46.5-50.1,93.1-100.2,139.6-150.3C312,310.4,355.2,279.4,397.9,247.8z"/>
</g>
<g>
	<path class="st0" d="M263,567.1c6.2,0.9,12.5,1.8,18.7,2.7c-7.1,0.2-14.3,0-21.4-0.7C261,568.1,261.9,567.5,263,567.1z"/>
</g>
<g>
	<path class="st0" d="M145.4,632.5c11.6,3.6,23.2,7.4,34.7,11.4c24,2.7,48,4.9,72.1,6.7c16.7,17.2,33,34.8,48.8,52.8
		c1.4,7.5,1.9,15.1,1.3,22.7c-6.1,3.2-12.6,4.8-19.4,4.7c-4.7-1.7-9-4.2-12.7-7.3c-8.5-12.8-17.2-25.5-26-38.1
		c-30.1-8.6-60.3-16.3-90.8-23.4C151,652.1,148.3,642.3,145.4,632.5z"/>
</g>
<g>
	<path class="st0" d="M173.5,688.7c23,13.6,45.9,27.4,68.8,41.4c0.3,4.1,1,8.1,2,12c-4.2,2.8-8.7,5.2-13.4,7.3
		c-6.4-0.1-12.7-1.5-18.7-4c-16.7-14-33.4-28.1-50.1-42.1c-2.1-2.3-3.2-5-3.3-8C164.2,694.2,169.1,691.9,173.5,688.7z"/>
</g>
</svg>
