<?xml version="1.0" encoding="utf-8"?>
<!-- Generator: Adobe Illustrator 28.0.0, SVG Export Plug-In . SVG Version: 6.00 Build 0)  -->
<svg version="1.1" xmlns="http://www.w3.org/2000/svg" xmlns:xlink="http://www.w3.org/1999/xlink" x="0px" y="0px"
	 viewBox="0 0 1053.6 1000" style="enable-background:new 0 0 1053.6 1000;" xml:space="preserve">
<style type="text/css">
	.st0{fill-rule:evenodd;clip-rule:evenodd;fill:none;stroke:#27A8E0;stroke-width:10;stroke-miterlimit:10;}
	.st1{fill-rule:evenodd;clip-rule:evenodd;fill:#707070;}
	.st2{fill:none;stroke:#27A8E0;stroke-width:10;stroke-miterlimit:10;}
</style>
<g id="Layer_1">
	<g>
		<path class="st0" d="M515,51.1c3.3-0.5,6,0.5,8.1,2.9c2.9,4.9,5.9,9.8,8.8,14.7c28.4,35.3,56.8,70.5,85.2,105.8
			c-2.8,34.8-6.5,69.6-11,104.3c3.8,70.5,7.7,141,11.8,211.5c45.8-30.9,91.9-61.5,138.1-91.8c7.7-3.6,15.5-6.8,23.5-9.5
			c9,4.3,14.1,11.1,15.4,20.6c-1.5,4.4-2.9,8.8-4.4,13.2c-14.7,28.3-29.4,56.8-44.1,85.2c-1.5,3.1-3.7,5.6-6.6,7.3
			c-43.3,10.4-86.6,20.7-130,30.9c-1.6-0.1-3.1-0.6-4.4-1.5c-32.3-66-64.1-132.1-95.5-198.3c-15.6-40.8-31.1-81.7-46.3-122.7
			c11.9-48.3,23.9-96.5,36-144.7c0.2-8.4,1-16.7,2.2-25C506.4,53.2,510.8,52.2,515,51.1z"/>
	</g>
	<g>
		<path class="st0" d="M645.8,190.7c13.8,1.6,27.5,3.6,41.1,5.9c0.9,5.6,1.9,11.3,2.9,16.9c-5.2,18.2-9.9,36.6-14,55.1
			c-4.7,4.2-8.9,8.9-12.5,14c-6.8,0.9-13.1-0.3-19.1-3.7c-3.2-4.4-6.4-8.8-9.5-13.2c0-22,0.5-44.1,1.5-66.1
			C639.2,196.2,642.4,193.3,645.8,190.7z"/>
	</g>
	<g>
		<path class="st0" d="M763.3,223c19.1,7.3,37.2,16.6,54.4,27.9c-20,20.4-37.9,42.5-53.6,66.1c-6.5,4.4-13.6,7.8-21.3,10.3
			c-5.5-3.4-10.6-7.3-15.4-11.8c-1-8.3-1-16.6,0-25c7-19.1,14.1-38.2,21.3-57.3C753.6,229.8,758.5,226.4,763.3,223z"/>
	</g>
	<g>
		<path class="st0" d="M429.8,227.4c6.3,0.6,12,3,16.9,7.3c2.3,10.7,2.8,21.4,1.5,32.3c-3.2,8.6-9.6,13-19.1,13.2
			c-4.3-1.8-8.4-3.7-12.5-5.9c-3.7-7.7-7.6-15.3-11.8-22.8c2.7-5.6,5.6-11,8.8-16.2C419.5,233.5,424.9,230.8,429.8,227.4z"/>
	</g>
	<g>
		<path class="st0" d="M354.9,274.4c5.4-0.2,10.8,0,16.2,0.7c6.6,6.6,13.2,13.2,19.8,19.8c1,3.9,1,7.8,0,11.8
			c-7,5.8-14.1,11.4-21.3,16.9c-7.9,1.2-15.7,1-23.5-0.7c-6.8-12.4-9-25.7-6.6-39.7C344.8,280.4,350,277.5,354.9,274.4z"/>
	</g>
	<g>
		<path class="st0" d="M855.8,303.8c7.9-0.2,15.7,0,23.5,0.7c7.6,4.9,15.5,9.6,23.5,14c1,8.4,0,16.8-2.9,25
			c-23,15.9-46,31.8-69,47.7c-6.4,1.1-12.7,1.6-19.1,1.5c-5.1-5.1-10.3-10.3-15.4-15.4c0.5-6,2-11.9,4.4-17.6
			C819.2,341.4,837.6,322.8,855.8,303.8z"/>
	</g>
	<g>
		<path class="st0" d="M639.9,305.3c7.2,0.2,14,1.7,20.6,4.4c3.9,6.3,7.3,12.6,10.3,19.1c-4.9,27-9.6,53.9-14,80.8
			c16.9-22.4,33.3-45.2,49.2-68.3c4.5-2,9.2-3.7,14-5.1c8.2,4.2,15.8,9.4,22.8,15.4c-1.6,7.1-3.3,14.2-5.1,21.3
			c-33.3,28.4-66.6,56.8-99.9,85.2c-4.3-1.8-8.4-3.7-12.5-5.9c-1.8-41.6-2.6-83.2-2.2-124.9C628.6,319.9,634.3,312.6,639.9,305.3z"
			/>
	</g>
	<g>
		<path class="st0" d="M422.5,352.3c1.1,1.1,1.9,2.6,2.2,4.4c2.9,0,5.9,0,8.8,0c0.5-1,1-2,1.5-2.9c1.4,0.6,2.6,1.1,3.7,1.5
			c-8.3,8.6-17.4,16.4-27.2,23.5c-17.5,32.7-35.6,65-54.4,97c-31.6,33.5-63.2,67.1-94.8,100.6c-20.8,18-41.8,35.6-63.2,52.9
			c-3.4,2.7-5.9,5.8-7.3,9.5c-3.5-3.3-6.2-7.2-8.1-11.8c-1.3,2.8-3.6,4.2-6.6,4.4c16.7-23.9,34.4-47.1,52.9-69.8
			c22.9-16.2,45.7-32.6,68.3-49.2c16.3-27.2,32.9-54.1,49.9-80.8C372.8,404.9,397.5,378.4,422.5,352.3z"/>
	</g>
	<g>
		<path class="st0" d="M933.7,384.6c7.4-0.5,14.8,0,22,1.5c8.5,15.9,16,32.1,22.8,48.5c-4.2,4.7-8.9,8.9-14,12.5
			c-26.9,11.3-53.9,22.5-80.8,33.8c-7.8,1-15.7,1-23.5,0c-2.6-5.5-5.1-11.2-7.3-16.9c5.6-11.2,11.2-22.5,16.9-33.8
			c17.4-13.5,34.8-26.9,52.2-40.4C925.7,387.2,929.6,385.5,933.7,384.6z"/>
	</g>
	<g>
		<path class="st0" d="M191.8,638.7c1.5-3.7,3.9-6.9,7.3-9.5c21.3-17.3,42.4-34.9,63.2-52.9c31.6-33.5,63.2-67.1,94.8-100.6
			c18.7-31.9,36.8-64.3,54.4-97c9.8-7.1,18.8-14.9,27.2-23.5c10.2-7,19.7-14.8,28.6-23.5c-10.1,16.6-21.3,32.8-33.8,48.5
			c-16.6,35.2-33.3,70.5-49.9,105.8c-63.8,57.9-128.4,114.7-193.9,170.4C190,650.5,190.8,644.7,191.8,638.7z"/>
	</g>
	<g>
		<path class="st0" d="M810.3,443.4c1.5-0.1,2.7,0.4,3.7,1.5c12.5,20.1,25,40.2,37.5,60.2c-28.2,3.1-56.4,6-84.5,8.8
			c-1-1.5-1-2.9,0-4.4C781.4,487.4,795.9,465.3,810.3,443.4z"/>
	</g>
	<g>
		<path class="st0" d="M484.2,347.9c8.7,8.6,16.8,18,24.2,27.9c1.7,41.6,2.5,83.2,2.2,124.9c7.8,0.5,15.7,1,23.5,1.5
			c-1.1-21.1-1.9-42.1-2.2-63.2c1.1-1.4,2.3-1.6,3.7-0.7c9.2,16.8,18.3,33.7,27.2,50.7c8.2,21.7,16.7,43.3,25.7,64.6
			c-12.8,14.5-24.8,29.7-36,45.5c-15.1,27.7-29.8,55.6-44.1,83.7c-17.1,39.1-35,77.8-53.6,116.1c-6-3-11.4-6.7-16.2-11
			c11.5-47.2,22.8-94.5,33.8-141.8c-4.1-18.2-9-36-14.7-53.6c-25-2.4-49.9-3.8-74.9-4.4c-59.8,28.2-119.5,56.1-179.2,83.7
			c42.6-33.8,85.2-67.6,127.8-101.4c33.1-31.1,66.1-62.2,99.2-93.3C448.6,434.1,466.4,391,484.2,347.9z"/>
	</g>
	<g>
		<path class="st0" d="M422.5,352.3c-24.9,26.2-49.7,52.6-74.2,79.3c-17,26.7-33.7,53.6-49.9,80.8c-22.6,16.6-45.4,33-68.3,49.2
			c-18.5,22.7-36.1,45.9-52.9,69.8c-2.6,2.9-5.1,6.1-7.3,9.5c-4.8,2.3-9.7,2.5-14.7,0.7c17.1-26.6,34.5-53.1,52.2-79.3
			c26.6-21,53.2-41.8,80.1-62.4c4.6-4.5,8.2-9.6,11-15.4c9.3-17.6,18.6-35.3,27.9-52.9c37.7-35.2,74.9-71,111.6-107.2
			c1,3.4,1,6.9,0,10.3C431.9,339.9,426.7,345.8,422.5,352.3z"/>
	</g>
	<g>
		<path class="st0" d="M432.7,497.7c8.8-0.2,17.6,0,26.4,0.7c22.8,7.1,44.1,17.2,63.9,30.1c1,2.4,1,4.9,0,7.3
			c-17.1,16.3-36.9,27.8-59.5,34.5c-8,1.2-15.8,0.7-23.5-1.5c-19-8.9-36.8-19.4-53.6-31.6c-3.4-4.9-2.6-9.1,2.2-12.5
			c11.2-6.8,21.9-14.1,32.3-22C424.9,500.7,428.8,499,432.7,497.7z"/>
	</g>
	<g>
		<path class="st0" d="M484.2,519.7c5.8,2.9,11.7,5.9,17.6,8.8c-1.5,4.5-4.5,7.4-8.8,8.8c0.2-1.1-0.1-2.1-0.7-2.9
			c-9.6,7.1-20.2,12.5-31.6,16.2c-1-0.5-2-1-2.9-1.5c-7.2,1.3-14.1,2.3-20.6,2.9c-0.5,0-1,0-1.5,0c0.3-1.7-0.2-3.2-1.5-4.4
			c-8.1-3.8-15.4-8.7-22-14.7c0.7-1.4,1.7-2.7,2.9-3.7c-1-0.5-2-1-2.9-1.5c13.2-13.9,29.3-18.8,48.5-14.7c6.5,2.5,12.8,5.2,19.1,8.1
			C481.1,520.3,482.6,519.8,484.2,519.7z"/>
	</g>
	<g>
		<path class="st0" d="M484.2,519.7c-1.6,0.1-3.1,0.5-4.4,1.5c-6.3-2.9-12.6-5.6-19.1-8.1c-19.2-4.1-35.3,0.8-48.5,14.7
			c1,0.5,2,1,2.9,1.5c-1.3,1-2.2,2.2-2.9,3.7c6.6,6,13.9,10.9,22,14.7c1.3,1.2,1.8,2.7,1.5,4.4c-10.9-5.1-20.9-11.4-30.1-19.1
			c-1-2-1-3.9,0-5.9C429.8,504.5,456,502.1,484.2,519.7z"/>
	</g>
	<g>
		<path class="st0" d="M493,537.4c-16.2,14.9-34.8,19.8-55.8,14.7c6.5-0.6,13.3-1.6,20.6-2.9c1,0.5,2,1,2.9,1.5
			c11.4-3.6,21.9-9,31.6-16.2C492.9,535.3,493.2,536.3,493,537.4z"/>
	</g>
	<g>
		<path class="st1" d="M949.8,476.2c2,0.2,2.4,0.9,1.1,2.2C950,477.9,949.6,477.2,949.8,476.2z"/>
	</g>
	<g>
		<path class="st0" d="M310.8,653.4c-6.9-1-13.7-2-20.6-2.9c34.6-10.8,69.1-22.1,103.6-33.8c17.8,4.9,35.7,9.3,53.6,13.2
			c0.2,23.5,0,47-0.7,70.5c-8.4,33.4-17.2,66.7-26.4,99.9c-8.4,7-16.5,14.6-24.2,22.8c-5.4,0.3-10.8-0.2-16.2-1.5
			c-4.7-4.7-9.9-8.9-15.4-12.5c-2.5-9.7-4.5-19.5-5.9-29.4c-21.3-22.3-42.6-44.6-63.9-66.8c-27.4-2.8-54.8-5.3-82.3-7.3
			c-1.4-3.5-1.9-7.2-1.5-11c17.4-6.2,34.8-12.6,52.2-19.1c19.7,5.5,39.6,10.6,59.5,15.4c22.4,21.4,44.6,42.7,66.8,63.9
			c4.6-3.8,8.3-8.2,11-13.2c-3.1-19.2-6.7-38.3-11-57.3c-9.5-9.5-19.1-19.1-28.6-28.6C344.1,654.9,327.5,654.2,310.8,653.4z"/>
	</g>
	<g>
		<path class="st0" d="M438.6,299.4c1.1-0.2,2.1,0.1,2.9,0.7c-34,27.9-67.8,56-101.4,84.5c-45.3,54.4-93.6,106.3-144.7,155.7
			c-27.2,32.1-54.4,64.1-81.5,96.2c8.4,3.1,16.5,6.8,24.2,11c1.8,11.9,4.3,23.6,7.3,35.3c1.8,34.8,3.8,69.5,5.9,104.3
			c18.6,25.5,37.2,50.9,55.8,76.4c1,9.8,1,19.6,0,29.4c-8.4,9.1-16.4,18.4-24.2,27.9c-17.1,1.7-34.3,2-51.4,0.7
			c-29-19.9-57.4-40.4-85.2-61.7C36.1,826.1,26.3,792.4,17,758.5c7-21,14.6-41.8,22.8-62.4c34.3-43.1,68.6-86.2,102.8-129.3
			c51.2-55.1,102.3-110.2,153.5-165.3C344.2,368.1,391.7,334.1,438.6,299.4z"/>
	</g>
	<g>
		<path class="st0" d="M290.2,650.5c6.9,1,13.7,2,20.6,2.9c-7.9,0.2-15.7,0-23.5-0.7C288.1,651.6,289.1,650.9,290.2,650.5z"/>
	</g>
	<g>
		<path class="st0" d="M161,722.5c12.7,4,25.5,8.2,38.2,12.5c26.4,2.9,52.8,5.4,79.3,7.3c18.4,18.9,36.3,38.3,53.6,58
			c1.6,8.3,2.1,16.6,1.5,25c-6.7,3.6-13.8,5.3-21.3,5.1c-5.2-1.9-9.8-4.6-14-8.1c-9.4-14.1-18.9-28-28.6-41.9
			c-33.1-9.4-66.4-18-99.9-25.7C167.1,743.9,164.2,733.2,161,722.5z"/>
	</g>
	<g>
		<path class="st0" d="M191.8,784.2c25.3,15,50.5,30.1,75.7,45.5c0.4,4.5,1.1,8.9,2.2,13.2c-4.7,3.1-9.6,5.8-14.7,8.1
			c-7.1-0.1-13.9-1.6-20.6-4.4c-18.4-15.4-36.7-30.9-55.1-46.3c-2.3-2.5-3.5-5.5-3.7-8.8C181.7,790.2,187,787.8,191.8,784.2z"/>
	</g>
	<g>
		<path class="st0" d="M1002.1,502.5c7.4,0.7,14.6,2.3,21.6,4.8c5.9,17,11,34.2,15.1,51.4c-4.9,4-10.1,7.4-15.7,10.2
			c-28.3,7-56.7,14.1-85,21.1c-7.9-0.2-15.6-1.4-23.2-3.6c-1.8-5.9-3.3-11.8-4.7-17.8c7.2-10.2,14.5-20.5,21.8-30.8
			c19.2-10.7,38.5-21.3,57.7-32C993.7,503.8,997.9,502.7,1002.1,502.5z"/>
	</g>
	<g>
		<path class="st0" d="M871.2,541.7c1.5,0.1,2.6,0.8,3.4,2c9.3,21.7,18.6,43.5,27.8,65.2c-28.3-1.3-56.6-2.6-84.8-4.2
			c-0.7-1.6-0.5-3.1,0.7-4.4C835.9,580.9,853.6,561.3,871.2,541.7z"/>
	</g>
	<g>
		<path class="st1" d="M1004,595.5c1.9,0.5,2.2,1.2,0.7,2.3C1004,597.2,1003.7,596.4,1004,595.5z"/>
	</g>
	<path class="st2" d="M566.8,794.8c8.2,10,20.3,27.6,25.5,52.3c2,9.5,2.6,18.2,2.6,25.5"/>
	<path class="st2" d="M504.2,756.5c29.4-51.9,58.7-103.8,88.1-155.7c12.5-12.9,28.3-27.6,33.2-24.3c7,4.7-11.3,44.2-21.7,63.8
		C588,670.1,559.2,713.2,504.2,756.5z"/>
	<path class="st2" d="M536.2,769.3c15.9-4.8,63.5-21.6,99.6-70.2c35.8-48.3,38.2-98.3,38.3-114.9"/>
	<path class="st2" d="M608.9,815.2c-6.8,7.8-8.8,18.7-5.1,28.1c5,12.9,17.9,16.3,19.1,16.6"/>
	<path class="st2" d="M908.9,642.9c-16.2,3.8-32.8,8.4-49.8,14c-111.6,36.9-193.8,101.3-250.2,158.3"/>
	<path class="st2" d="M925.5,686.3c-28.4-2.1-97.3-3.4-171.1,35.7C674,764.7,635.9,830,623,854.8"/>
	<path class="st2" d="M908.9,642.9c3.2,3.2,9.9,11,12.8,23c2.4,10.2,1,18.6,0,23"/>
	<path class="st2" d="M803,544.6c-22.1,8.5-51.7,16.5-86.8,16.6c-9,0-17.5-0.4-25.5-1.3"/>
	<path class="st2" d="M739.1,636.5c7.7-16,18.1-34.4,31.9-53.6c10.8-15,21.7-27.7,31.9-38.3"/>
	<path class="st2" d="M674,838.2c12.8-19.7,40.8-57.3,90.6-85.5c45.5-25.7,88-31.6,111.1-33.2"/>
</g>
<g id="Layer_2">
	<path class="st2" d="M464.7,802.5c109.9,4.5,201.2-40.9,228.5-112.3c5.9-15.4,12.1-40.5,6.4-75.3"/>
</g>
</svg>
