<?xml version="1.0" encoding="utf-8"?>
<!-- Generator: Adobe Illustrator 27.9.0, SVG Export Plug-In . SVG Version: 6.00 Build 0)  -->
<svg version="1.1" id="Layer_1" xmlns="http://www.w3.org/2000/svg" xmlns:xlink="http://www.w3.org/1999/xlink" x="0px" y="0px"
	 viewBox="0 0 1421 423" style="enable-background:new 0 0 1421 423;" xml:space="preserve">
<style type="text/css">
	.st0{enable-background:new    ;}
	.st1{fill:#FFFFFF;}
	.st2{fill:#27A8E0;}
</style>
<g class="st0">
	<path class="st1" d="M607.4,305.4v7.3l-38.2,55h38.7V379h-56.1v-7.3l38.2-55h-37.3v-11.3H607.4z"/>
	<path class="st1" d="M649.6,367.7h35.1V379h-48.2v-73.6h46.2v11.3h-33.2v19H678V347h-28.5v20.7H649.6z"/>
	<path class="st1" d="M765.5,324.9c0,3.2-0.7,6.1-2.1,8.8c-1.4,2.7-3.7,4.9-6.9,6.6v0.2c1.8,0.6,3.4,1.4,4.9,2.4s2.7,2.1,3.8,3.5
		c1,1.3,1.9,2.9,2.5,4.5c0.6,1.7,0.9,3.6,0.9,5.7c0,1.8-0.3,3.7-0.8,5.8c-0.6,2.1-1.5,4-2.9,6s-3.2,3.7-5.5,5.3
		c-2.3,1.6-5.2,2.9-8.7,3.8c-0.9,0.2-1.9,0.4-2.9,0.6s-2.2,0.3-3.5,0.5c-1.3,0.1-2.7,0.2-4.3,0.3c-1.6,0.1-3.3,0.1-5.3,0.1h-20.8
		v-73.6h24.8c5.3,0,9.6,0.5,12.8,1.6c2.4,0.8,4.5,1.9,6.3,3.2c1.8,1.3,3.2,2.7,4.4,4.3c1.2,1.6,2,3.3,2.6,5.1
		C765.3,321.4,765.5,323.1,765.5,324.9z M738.7,335.7c3.6,0,6.2-0.4,7.9-1.1c2-0.8,3.4-2,4.2-3.5s1.3-3.2,1.3-5
		c0-1.9-0.5-3.7-1.4-5.2c-1-1.5-2.6-2.6-4.9-3.4c-1-0.3-2.1-0.5-3.4-0.6c-1.3-0.1-2.9-0.2-4.7-0.2H727v19L738.7,335.7L738.7,335.7z
		 M726.9,346.9v20.7h8.5c2.3,0,4.2-0.1,5.9-0.2c1.6-0.1,3-0.3,4.2-0.6c1.8-0.4,3.3-0.9,4.5-1.6s2.2-1.4,2.9-2.3s1.3-1.8,1.6-2.9
		s0.5-2.2,0.5-3.3c0-2.1-0.6-3.8-1.7-5.4c-1.1-1.5-2.8-2.7-5.2-3.5c-1-0.3-2.2-0.6-3.6-0.7c-1.4-0.1-3.2-0.2-5.3-0.2H726.9z"/>
	<path class="st1" d="M850,327.5c0,5.1-1.4,9.5-4.1,13.1c-2.8,3.6-7,6.2-12.8,7.9v0.2l21.2,30.2h-15.7l-19.4-28.5h-9v28.5h-13.1
		v-73.6h21.7c3.6,0,6.9,0.2,10,0.6s5.7,1.1,7.9,1.9c4.2,1.6,7.4,4.1,9.7,7.3C848.9,318.5,850,322.6,850,327.5z M816.7,339.2
		c3,0,5.5-0.1,7.6-0.4s3.8-0.7,5.3-1.2c2.6-1,4.5-2.4,5.5-4.2c1-1.8,1.5-3.8,1.5-6.1c0-2-0.4-3.7-1.2-5.3c-0.8-1.5-2.2-2.7-4.1-3.6
		c-1.2-0.6-2.8-1-4.7-1.3s-4.2-0.4-7-0.4h-9.3v22.5H816.7z"/>
	<path class="st1" d="M922,360.2h-26.9l-7,18.8h-13.9l28.3-73.6h11.9l28.3,73.6H929L922,360.2z M908.4,323.1
		c-2.5,7.7-4.7,14.1-6.7,19.3l-2.4,6.5h18.4l-2.4-6.5c-1.9-5.2-4.2-11.6-6.7-19.3H908.4z"/>
</g>
<g id="Logo" transform="translate(-198.05 -312.063)">
	<path id="Path_397" class="st2" d="M1000.4,534.2h-94.5c-3.7,0.3-7.1,2.7-8.9,6.1L876.9,583c-0.8,1.6,0,3,1.5,3h15.7
		c1.9-0.1,3.6-1.3,4.4-3l7.9-16.8h63l-7.9,16.8c-0.8,1.6,0,3,1.5,3h15.7c1.9-0.1,3.6-1.3,4.4-3l20.2-42.8
		C1005.1,537,1003.7,534.2,1000.4,534.2z M976.9,550.7c-1,2-2.9,3.4-5.1,3.6h-56.2c-1.9,0-2.6-1.6-1.7-3.6c1-2,2.9-3.4,5.1-3.5h56.2
		C977,547.1,977.8,548.7,976.9,550.7L976.9,550.7z"/>
	<path id="Path_399" class="st2" d="M1019.9,534.2l-6.1,12.9h42.9l-16.5,35.2l1.9,3.8h14.2l5.5-3.8l16.5-35.3h42.8l6.1-12.9
		L1019.9,534.2z"/>
	<path id="Path_400" class="st2" d="M1228.3,534.2h-78.6c-5.6,0.5-10.6,4-13.2,9.1l-10.4,22c-5.5,11.4-0.8,20.7,10.3,20.7h78.6
		c5.6-0.5,10.6-4,13.2-9.2l10.4-22C1243.9,543.5,1239.4,534.2,1228.3,534.2z M1216.3,556.3l-5.7,12.1c-1.4,2.8-4.1,4.5-7,4.9H1153
		c-4.9,0-7-4.1-4.5-9.2l5.7-12c1.4-2.8,4.1-4.7,7-4.9h50.6C1216.7,547.1,1218.6,551.3,1216.3,556.3L1216.3,556.3z"/>
	<path id="Path_401" class="st2" d="M1278.1,547.1h86.2l3.1-6.8c1.6-3.4,0.2-6.1-3-6.1h-96.1c-3.7,0.3-7.1,2.7-8.9,6.1l-3.1,6.8
		l-12.5,26.1l-3.1,6.8c-1.6,3.4-0.2,6.1,3,6.1h74.4c3.7-0.3,7.1-2.7,8.9-6.2l-2.8,6.2h21.7l9.3-19.8l5.7-12.1h-43.8l-5.7,12.1h22.1
		l-3.3,6.9h-60.1c-2.6,0-3.5-2.1-2.3-4.5L1278.1,547.1z"/>
	<path id="Path_402" class="st2" d="M1476.6,554.2h-80.3c-1.9,0-2.6-1.6-1.7-3.6c1-2,2.9-3.4,5.1-3.5h84.7l4-8.3
		c1.2-2.7,0.2-4.5-2.3-4.5h-96c-3.7,0.3-7.1,2.7-8.7,6.1l-15.5,32.6c-3.4,7.2-0.5,13.2,6.5,13.2h93.7l4-8.4c1.2-2.7,0.2-4.5-2.3-4.5
		h-80.4c-1.9,0-2.6-1.5-1.7-3.5s2.9-3.3,5-3.5h84.8l3.6-7.6C1480,556.3,1479,554.2,1476.6,554.2z"/>
	<path id="Path_403" class="st2" d="M1589.9,534.2l-15.1,32.2l-39.6-32.2h-29.7l-24.5,52h21.7l17.6-37.3l45.1,37.3h21.7l24.5-52
		H1589.9z"/>
	<path id="Path_404" class="st2" d="M882.3,533.7h-97.4c-3.8,0.3-7.2,2.7-9,6.3l-3.3,7h37.7l2.6,5l0,0l-13.7,29.2l2.9,5.8H815
		l5.6-3.8l14.7-31.1l7.2-5h12.6l2.4,5l-13.7,29.2l2.9,5.7h12.9l5.6-3.8l20.3-43.1C886.9,536.5,885.7,533.7,882.3,533.7z"/>
	<path id="Path_405" class="st2" d="M756.4,581.1l2.9,5.9h12.8l5.6-3.8l14.7-31.2h-22.3L756.4,581.1z"/>
</g>
<path id="Path_398_00000030448023236644192850000012458510006338910142_" class="st2" d="M530.4,213.5l-217.3,27.4
	c-18.3,2.4-41.7,19.3-51.9,37.7l-49,107.2c-10.2,18.4-3.6,31.4,14.7,29l217-28.1c11.2-1.5,24.2-8.5,35.1-17.7h-52.9l-5.7-11.5
	l27.4-58.2l-4.9-9.9h-25.3l-14.4,10.1l-29.1,62.1l-11.1,7.7h-25.7l-5.7-11.5l27.5-58.2l-27.4,58.2l27.4-58.2l-4.9-10.1H279l6.6-14
	c3.4-7,10.2-11.8,17.9-12.4h194.1c6.7,0,9.4,5.6,6.2,12.4L464.9,357h25.7c2-2.5,3.7-5.2,5.3-7.9l49.2-106.5
	C555.4,224.3,548.7,211.2,530.4,213.5z M316.8,302.6l-27.9,59l-11,7.7h-25.5l-5.8-11.8l25.9-54.9L316.8,302.6L316.8,302.6z"/>
<g class="st0">
	<path class="st1" d="M1001.4,379l29.1-73.6h7.5l29.1,73.6h-9.4l-8.5-22.2h-29.8l-8.5,22.2H1001.4z M1034.2,316.8
		c-3.2,9.2-6.2,17.5-9.1,25l-2.7,6.9h23.7l-2.7-6.9c-2.9-7.6-5.9-15.9-8.9-25H1034.2z"/>
	<path class="st1" d="M1102,305.4v65.5h34.8v8.1h-43.5v-73.6H1102z"/>
	<path class="st1" d="M1174.2,379h-8.7v-73.6h19.8c2.9,0,5.7,0.2,8.2,0.5c2.5,0.4,4.8,0.9,6.9,1.7c4.3,1.6,7.5,3.9,9.7,7.1
		s3.3,7,3.3,11.6c0,3.7-0.7,7-2.2,9.9c-1.4,2.8-3.5,5.2-6.3,7.1c-2.7,1.9-6.1,3.3-10,4.3s-8.4,1.5-13.3,1.5c-2.4,0-4.8-0.1-7.4-0.3
		V379z M1174.2,340.6c1.2,0.1,2.4,0.3,3.7,0.3c1.3,0.1,2.5,0.1,3.6,0.1c4.1,0,7.6-0.3,10.5-1s5.2-1.6,7-2.9s3.1-2.8,3.9-4.6
		c0.8-1.8,1.2-3.9,1.2-6.2c0-2.9-0.7-5.2-2-7s-3.2-3.2-5.7-4.2c-1.5-0.6-3.3-1-5.3-1.2s-4.3-0.4-6.9-0.4h-10.1v27.1H1174.2z"/>
	<path class="st1" d="M1251.8,337.3h37.4v-31.8h8.7V379h-8.7v-33.7h-37.4V379h-8.7v-73.6h8.7V337.3z"/>
	<path class="st1" d="M1324.1,379l29.1-73.6h7.5l29.1,73.6h-9.4l-8.5-22.2h-29.8l-8.5,22.2H1324.1z M1356.8,316.8
		c-3.2,9.2-6.2,17.5-9.1,25l-2.7,6.9h23.7l-2.7-6.9c-2.9-7.6-5.9-15.9-8.9-25H1356.8z"/>
</g>
<image style="overflow:visible;" width="588" height="424" xlink:href="../../../Downloads/png_HRES_netkop_ZeBRA_NB_BLOU-removebg-preview (1).png"  transform="matrix(0.934 0 0 0.934 11 13.8898)">
</image>
</svg>
